<?xml version="1.0" encoding="UTF-8"?>
<svg version="1.1" xmlns="http://www.w3.org/2000/svg" width="539" height="425">
<path d="M0 0 C177.87 0 355.74 0 539 0 C539 140.25 539 280.5 539 425 C361.13 425 183.26 425 0 425 C0 284.75 0 144.5 0 0 Z " fill="#FBFCFB" transform="translate(0,0)"/>
<path d="M0 0 C33.82696064 -0.09161971 67.65389032 -0.16207127 101.48094754 -0.20426132 C105.47745156 -0.20926395 109.47395533 -0.21444126 113.47045898 -0.21972656 C114.66387208 -0.22130043 114.66387208 -0.22130043 115.88139453 -0.22290608 C128.75208881 -0.24029608 141.62271139 -0.27182599 154.49336318 -0.30861118 C167.70664682 -0.34605978 180.919893 -0.36824413 194.13322753 -0.37635398 C202.28204058 -0.38183365 210.43065094 -0.39912048 218.57940158 -0.43166587 C224.17256311 -0.45286218 229.76562035 -0.45918852 235.3588191 -0.45400551 C238.58253872 -0.45145161 241.80583209 -0.45748664 245.02950478 -0.4768219 C248.53356483 -0.49680447 252.03676671 -0.49190814 255.54084778 -0.48101807 C257.05111069 -0.49849512 257.05111069 -0.49849512 258.59188396 -0.51632524 C269.64941054 -0.42381764 280.36035036 3.48310626 288.34692383 11.32202148 C293.31249473 16.71380046 296.59343139 23.02630414 300.0625 29.4375 C300.71229218 30.62447723 301.3627746 31.81107684 302.01391602 32.99731445 C303.68651318 36.04983701 305.3486375 39.10791492 307.00695801 42.16821289 C307.98963753 43.98088516 308.97442269 45.79239625 309.95996094 47.60351562 C313.65438717 54.39460122 317.33553878 61.19269906 321 68 C321.66 68 322.32 68 323 68 C324.51986811 66.01479329 324.51986811 66.01479329 326.0546875 63.41796875 C326.6643335 62.43119141 327.27397949 61.44441406 327.90209961 60.42773438 C328.55315674 59.35845703 329.20421387 58.28917969 329.875 57.1875 C331.22741261 54.99321095 332.58028375 52.79920445 333.93359375 50.60546875 C334.61276855 49.49993652 335.29194336 48.3944043 335.99169922 47.25537109 C338.93738112 42.48054463 341.93407673 37.73864256 344.9375 33 C345.9258142 31.43752084 346.91409889 29.87502302 347.90234375 28.3125 C348.59457031 27.219375 349.28679687 26.12625 350 25 C349.39712158 24.72236816 348.79424316 24.44473633 348.1730957 24.15869141 C344.98933314 22.46111393 342.68186894 19.93310518 340.1875 17.375 C339.65995117 16.83955566 339.13240234 16.30411133 338.58886719 15.75244141 C327 3.91133339 327 3.91133339 327 1 C340.87405046 0.85934342 354.7479891 0.75419251 368.62260818 0.68912697 C375.06604081 0.65788971 381.50899253 0.61555458 387.95214844 0.54736328 C394.17675211 0.48190153 400.40089485 0.44623682 406.62581635 0.43073654 C408.99397786 0.4196984 411.36211576 0.39814372 413.73007965 0.36561966 C437.39015711 0.05373804 437.39015711 0.05373804 447 7 C447.59887024 7.3668692 448.19774048 7.7337384 448.8147583 8.11172485 C453.85511748 11.58701534 456.53391979 17.56937656 459 23 C459 23.66 459 24.32 459 25 C459.57854736 24.97905273 460.15709473 24.95810547 460.75317383 24.93652344 C482.23010686 24.26129601 482.23010686 24.26129601 491 29 C492.60875 29.86625 492.60875 29.86625 494.25 30.75 C501.13420639 36.3825325 507.01532378 43.30292556 508.3508606 52.38630676 C508.45830154 54.88299866 508.45127563 57.34945662 508.390625 59.84765625 C508.38496521 60.74495956 508.37930542 61.64226288 508.37347412 62.5667572 C508.35129623 65.39924195 508.30113739 68.23040539 508.25 71.0625 C508.22991087 72.99672637 508.21166436 74.9309728 508.1953125 76.86523438 C508.15149279 81.57732276 508.08259767 86.28843831 508 91 C507.26394531 90.52949219 506.52789063 90.05898437 505.76953125 89.57421875 C504.30580078 88.64029297 504.30580078 88.64029297 502.8125 87.6875 C501.84957031 87.07261719 500.88664062 86.45773438 499.89453125 85.82421875 C498.46173828 84.92123047 498.46173828 84.92123047 497 84 C496.22538925 83.47570908 495.4507785 82.95141815 494.6526947 82.41123962 C491.71024172 80.84584794 489.96866812 80.61552767 486.66235352 80.59594727 C485.10031944 80.57692101 485.10031944 80.57692101 483.50672913 80.55751038 C482.39204758 80.56044601 481.27736603 80.56338165 480.12890625 80.56640625 C478.97382065 80.5611644 477.81873505 80.55592255 476.62864685 80.55052185 C474.18855594 80.54410519 471.74843408 80.545434 469.30834961 80.55395508 C465.5793537 80.56246155 461.85189138 80.53370159 458.12304688 80.50195312 C455.75000046 80.5003409 453.37695133 80.50091905 451.00390625 80.50390625 C449.89124893 80.49267227 448.77859161 80.48143829 447.63221741 80.46986389 C441.59051065 80.52412575 437.68793512 80.77434151 433 85 C428.41172222 89.88219807 425.1723143 95.89220231 422 101.75 C421.34511597 102.94266479 421.34511597 102.94266479 420.67700195 104.15942383 C418.42076917 108.29326494 416.24653374 112.45124025 414.1875 116.6875 C409.79924875 125.63657418 404.70855142 134.21891555 399.77294922 142.87304688 C397.97924307 146.03660902 396.20741052 149.21152566 394.44140625 152.390625 C393.86463135 153.42469482 393.28785645 154.45876465 392.69360352 155.52416992 C391.59175161 157.50089573 390.49433979 159.48010525 389.40209961 161.4621582 C384.60542661 170.03482126 379.29819906 175.86451005 371.4375 181.6875 C370.30538086 182.53924805 370.30538086 182.53924805 369.15039062 183.40820312 C367.10504966 184.94536246 365.05332815 186.47353819 363 188 C362.30011963 188.55534424 361.60023926 189.11068848 360.87915039 189.68286133 C359 191 359 191 357 191 C360.3 195.95 363.6 200.9 367 206 C363.19794307 209.80205693 360.12993399 211.85369039 355.5 214.3125 C354.83613281 214.68439453 354.17226563 215.05628906 353.48828125 215.43945312 C348.58494408 218.06728951 348.58494408 218.06728951 345.95410156 217.76464844 C342.60991748 216.45605467 340.55737816 213.58704842 338.25 210.9375 C337.74339844 210.36966797 337.23679687 209.80183594 336.71484375 209.21679688 C335.46886864 207.8180135 334.23339027 206.40989267 333 205 C327.00804764 206.94379931 327.00804764 206.94379931 321.125 209.1875 C319 210 319 210 316 210 C316.061875 211.546875 316.061875 211.546875 316.125 213.125 C316.14794805 219.48160948 314.98520512 225.7369103 314 232 C310.9317362 232.89749822 308.20730024 233.11711768 305.015625 233.09765625 C304.08105469 233.09443359 303.14648438 233.09121094 302.18359375 233.08789062 C301.21550781 233.07951172 300.24742187 233.07113281 299.25 233.0625 C298.26644531 233.05798828 297.28289062 233.05347656 296.26953125 233.04882812 C293.84632806 233.037065 291.42315623 233.01913018 289 233 C289 226.73 289 220.46 289 214 C277.57197467 212.08214508 277.57197467 212.08214508 266.97314453 215.5703125 C263.166718 219.90231257 260.51243147 224.83683809 258 230 C254.92327538 229.33501072 252.28832547 228.29372371 249.453125 226.93359375 C248.60878906 226.53076172 247.76445312 226.12792969 246.89453125 225.71289062 C246.02183594 225.29201172 245.14914062 224.87113281 244.25 224.4375 C243.36183594 224.01275391 242.47367188 223.58800781 241.55859375 223.15039062 C239.37079674 222.10354152 237.18469149 221.05331073 235 220 C235.73433591 215.86517082 236.98555939 212.85528874 239.0625 209.1875 C239.61035156 208.21167969 240.15820312 207.23585937 240.72265625 206.23046875 C241.14417969 205.49441406 241.56570312 204.75835937 242 204 C241.13890625 203.73960937 240.2778125 203.47921875 239.390625 203.2109375 C235.92288231 201.97245797 232.93910329 200.45993632 229.75 198.625 C228.71359375 198.03976563 227.6771875 197.45453125 226.609375 196.8515625 C223.92997077 194.9503086 223.28896873 193.90205969 222 191 C224.07147682 188.36544673 226.15913218 185.74418132 228.25 183.125 C229.12978516 182.00544922 229.12978516 182.00544922 230.02734375 180.86328125 C230.60097656 180.14785156 231.17460937 179.43242187 231.765625 178.6953125 C232.28930664 178.03547363 232.81298828 177.37563477 233.35253906 176.69580078 C235.16679985 174.82830591 236.52503577 173.81849683 239 173 C241.70340638 174.25978135 244.05184414 175.55322636 246.5625 177.125 C264.61872734 187.81133863 284.44495096 190.9396424 304.9375 186 C319.9013714 182.08947595 332.68466276 175.25256641 345 166 C343.51653239 162.06912955 341.70781299 158.42607905 339.7265625 154.72265625 C339.40693039 154.12373062 339.08729828 153.52480499 338.75798035 152.9077301 C337.71633481 150.95787224 336.67080238 149.01013106 335.625 147.0625 C334.89660991 145.70172364 334.16833956 144.34088317 333.44018555 142.97998047 C328.31476493 133.40997074 323.13780397 123.86864262 317.921875 114.34765625 C315.87696856 110.61272734 313.84757998 106.86984507 311.828125 103.12109375 C305.9479539 92.20897197 299.96669066 81.36973745 293.8203125 70.60522461 C289.37795273 62.77785679 285.19538562 54.8291859 281.13256836 46.79858398 C274.77103622 33.65041326 274.77103622 33.65041326 263 26 C260.21319327 25.2018732 257.74610224 24.8745058 254.85004234 24.87250805 C254.02616378 24.8695004 253.20228522 24.86649275 252.35344064 24.86339396 C251.45364941 24.86514433 250.55385817 24.86689471 249.62680054 24.86869812 C248.66672014 24.86658241 247.70663974 24.86446669 246.717466 24.86228687 C243.49180839 24.85628273 240.26618987 24.85728732 237.04052734 24.8581543 C234.73106825 24.85512303 232.42160976 24.85160167 230.1121521 24.84762573 C225.13359892 24.83973315 220.15505292 24.83459043 215.1764946 24.83133507 C207.30144811 24.82542713 199.42644687 24.8088883 191.55142212 24.78999329 C188.8556195 24.78363656 186.15981677 24.77732809 183.46401405 24.77101612 C182.79028582 24.76943236 182.11655758 24.7678486 181.42241334 24.76621684 C173.75410549 24.74828221 166.08579458 24.73205575 158.41748047 24.71704102 C157.71658049 24.71566514 157.01568052 24.71428927 156.29354115 24.71287171 C144.94533273 24.69096019 133.59713546 24.68018984 122.24890964 24.67267027 C110.58921532 24.66458842 98.92962162 24.64099942 87.26998103 24.6047166 C80.72703464 24.58495876 74.18425544 24.57255052 67.64127731 24.57755089 C61.48360601 24.58219936 55.32625142 24.56838035 49.16864395 24.54053879 C46.9120462 24.53363024 44.65541568 24.53349679 42.39881897 24.54073906 C39.31053838 24.54964732 36.22329775 24.53390077 33.13510132 24.51225281 C32.24869441 24.52069534 31.36228751 24.52913788 30.44901979 24.53783625 C21.94341808 24.42810368 13.92593308 21.76912447 7.60546875 15.9140625 C3.92016347 11.52038954 0 5.84375397 0 0 Z " fill="#175396" transform="translate(14,6)"/>
<path d="M0 0 C25.41705156 -0.04672968 50.83409668 -0.08199361 76.25118256 -0.10362434 C88.05288632 -0.11393501 99.85456338 -0.12799137 111.65625 -0.15087891 C121.94311113 -0.17081915 132.22995291 -0.18371796 142.51683283 -0.18817699 C147.96316579 -0.19078328 153.40944344 -0.19690493 158.85575867 -0.21146011 C163.98401156 -0.22505399 169.11218643 -0.22921896 174.24045563 -0.22621536 C176.12056655 -0.22676471 178.00068013 -0.23073137 179.88077545 -0.23841095 C182.45296067 -0.24840046 185.02485354 -0.24595431 187.5970459 -0.24050903 C188.33636903 -0.24633472 189.07569217 -0.2521604 189.83741903 -0.25816262 C199.10770262 -0.20532657 208.21243051 2.29213744 215.1953125 8.625 C220.88722535 14.46683952 224.1470843 22.12069996 227.8125 29.3125 C229.02083941 31.64630659 230.23379163 33.97767978 231.44676208 36.30908203 C232.23801583 37.83105292 233.0277183 39.35383137 233.81581116 40.87744141 C236.47343816 46.01327665 239.20861554 51.09518719 242.0625 56.125 C247.113289 65.07163091 251.88479127 74.16599425 256.68481445 83.24865723 C261.21899853 91.82591351 265.77160072 100.38183548 270.66430664 108.76220703 C273 112.79986475 273 112.79986475 273 115 C256.38782303 115.14053556 239.77584066 115.24614885 223.16321182 115.31087303 C215.44861151 115.34173251 207.73438184 115.38375988 200.02001953 115.45263672 C193.29144805 115.51268309 186.56314515 115.55120656 179.83431315 115.56453097 C176.27554848 115.57231259 172.71755177 115.59043118 169.15903473 115.63438034 C165.17371941 115.68319549 161.18971536 115.68392388 157.20410156 115.68115234 C156.0409996 115.702724 154.87789764 115.72429565 153.67955017 115.746521 C145.36254195 115.68426743 138.92676871 113.68546549 132 109 C126.8650131 103.76904312 123 98.52499199 123 91 C158.97 91 194.94 91 232 91 C228.7 84.73 225.4 78.46 222 72 C222 71.34 222 70.68 222 70 C221.17854524 70.00276538 220.35709047 70.00553076 219.51074314 70.00837994 C199.50416124 70.07469168 179.49759834 70.12430585 159.4909296 70.15543652 C149.81577159 70.170892 140.14068703 70.1919563 130.46557617 70.22631836 C122.03075101 70.25626109 113.59597907 70.27558459 105.16110224 70.28226548 C100.69670583 70.28616949 96.23246162 70.29531692 91.76811409 70.31719017 C87.56155351 70.33763238 83.35520707 70.34381824 79.14860153 70.33932304 C77.6091527 70.3401448 76.06969631 70.34606428 74.5302906 70.35761642 C63.76412244 70.43441002 54.57636402 69.85129136 45.85546875 62.87109375 C40.79883442 57.77187723 38.24140897 51.7242269 36 45 C92.43 45 148.86 45 207 45 C204.46571123 39.03446916 204.46571123 39.03446916 201.625 33.25 C201.24601563 32.51265625 200.86703125 31.7753125 200.4765625 31.015625 C198.57559003 28.42064671 196.89264134 27.42233583 194 26 C190.69542874 25.55202134 190.69542874 25.55202134 187.043396 25.62145996 C186.35535362 25.61692983 185.66731123 25.6123997 184.95841908 25.6077323 C182.65925987 25.59613082 180.36068499 25.60574595 178.06152344 25.61523438 C176.41038132 25.6111281 174.7592421 25.60566689 173.10810852 25.59895325 C169.55480129 25.58723212 166.00164936 25.5847426 162.44832611 25.58930969 C156.82494697 25.59612274 151.20177184 25.58024446 145.57843018 25.56091309 C133.63563112 25.52305286 121.69284985 25.51026319 109.75 25.5 C96.86995189 25.4889221 83.98999788 25.47350585 71.1100142 25.42928743 C65.5251974 25.41096897 59.94061402 25.40702558 54.3557744 25.41422272 C50.87324925 25.41574935 47.39083981 25.40493027 43.90834618 25.39084435 C42.29956945 25.38685652 40.69077046 25.38794128 39.08200264 25.39461708 C27.5612155 25.4387321 17.16861437 25.04284921 8.44140625 16.46875 C4.26202038 11.88289019 0 6.40197252 0 0 Z " fill="#165396" transform="translate(49,51)"/>
<path d="M0 0 C0.98467255 -0.01283524 1.96934509 -0.02567047 2.9838562 -0.03889465 C4.57763596 -0.04997505 4.57763596 -0.04997505 6.20361328 -0.0612793 C7.84416183 -0.07338692 7.84416183 -0.07338692 9.51785278 -0.08573914 C11.83284929 -0.09957353 14.14786614 -0.11029857 16.46289062 -0.11816406 C20.00315889 -0.13539696 23.54249819 -0.17929237 27.08251953 -0.22338867 C29.33121058 -0.23351394 31.57990956 -0.24203056 33.82861328 -0.2487793 C35.41632034 -0.27504143 35.41632034 -0.27504143 37.03610229 -0.30183411 C44.37781371 -0.28015986 44.37781371 -0.28015986 48.35644531 2.07861328 C50.14892578 4.17700195 50.14892578 4.17700195 50.14892578 6.17700195 C34.30892578 6.67200195 34.30892578 6.67200195 18.14892578 7.17700195 C27.92027498 15.79867432 27.92027498 15.79867432 37.57324219 17.31884766 C39.27608871 17.32939934 39.27608871 17.32939934 41.01333618 17.34016418 C42.86322647 17.3464106 42.86322647 17.3464106 44.75048828 17.3527832 C47.35075673 17.37598899 49.95101716 17.40010662 52.55126953 17.42504883 C56.65917918 17.46137261 60.76694136 17.49116156 64.875 17.50292969 C68.83377425 17.51501296 72.79193811 17.55867806 76.75048828 17.6027832 C78.58216049 17.59992058 78.58216049 17.59992058 80.45083618 17.59700012 C87.47854589 17.69741525 92.19280584 18.35069656 98.14892578 22.17700195 C101.46631874 25.74319938 102.34622445 28.14236697 102.24267578 32.8840332 C102.22914063 33.68945557 102.21560547 34.49487793 102.20166016 35.32470703 C102.18425781 35.93596436 102.16685547 36.54722168 102.14892578 37.17700195 C101.48652893 37.17620636 100.82413208 37.17541077 100.1416626 37.17459106 C93.1971657 37.17213812 86.25377499 37.21164841 79.30957031 37.2746582 C76.7240107 37.29273678 74.13835511 37.30040163 71.55273438 37.29711914 C67.81842965 37.29423884 64.08608257 37.32979921 60.35205078 37.37231445 C58.64036713 37.35867355 58.64036713 37.35867355 56.894104 37.34475708 C46.66957223 37.52659932 38.45582072 40.92995484 30.84423828 47.80200195 C26.33994684 52.70817189 23.21905878 58.36936256 20.02392578 64.17700195 C19.04288081 65.91779154 18.06181448 67.65856974 17.0791626 69.39845276 C16.07884949 71.17267675 15.08380339 72.9497782 14.08935547 74.72729492 C11.1630876 79.92963074 8.16131181 85.08669121 5.14892578 90.23950195 C4.58850586 91.20049805 4.02808594 92.16149414 3.45068359 93.15161133 C-3.21424976 104.5544512 -10.02824767 115.86813088 -16.85107422 127.17700195 C-19.5582243 124.76151447 -21.06537118 122.20438238 -22.74951172 119.00512695 C-23.30533936 117.95873047 -23.86116699 116.91233398 -24.43383789 115.83422852 C-25.02527588 114.70984375 -25.61671387 113.58545898 -26.22607422 112.42700195 C-27.47795449 110.07172215 -28.73123749 107.71728169 -29.98779297 105.36450195 C-30.30659927 104.76696106 -30.62540558 104.16942017 -30.95387268 103.55377197 C-34.73617402 96.48721826 -38.6972322 89.52277842 -42.67480469 82.56469727 C-44.0767827 80.10754868 -45.46610267 77.6437618 -46.85107422 75.17700195 C-47.48658203 74.0580957 -48.12208984 72.93918945 -48.77685547 71.78637695 C-49.85107422 69.17700195 -49.85107422 69.17700195 -49.75732422 67.1965332 C-48.45994025 64.30538013 -46.94409634 61.60487929 -45.35107422 58.86450195 C-44.81921509 57.94689087 -44.81921509 57.94689087 -44.27661133 57.01074219 C-40.57921295 50.65606603 -36.78936652 44.35642777 -32.98779297 38.0637207 C-31.86395111 36.19837493 -30.7469618 34.32911008 -29.63232422 32.45825195 C-27.77903536 29.34835081 -25.91432189 26.2455882 -24.04101562 23.14770508 C-23.21251935 21.77560374 -22.3868863 20.40177116 -21.56347656 19.02661133 C-20.25220676 16.84164463 -18.92808994 14.66493349 -17.60107422 12.48950195 C-17.20090088 11.81798096 -16.80072754 11.14645996 -16.38842773 10.45458984 C-12.28095043 3.77961999 -8.09767771 0.09199661 0 0 Z " fill="#FCFDFD" transform="translate(397.85107421875,29.822998046875)"/>
<path d="M0 0 C3.39983643 1.69991821 6.4918451 3.51881683 9.6875 5.5625 C10.66074219 6.18253906 11.63398438 6.80257812 12.63671875 7.44140625 C15 9 15 9 16 10 C16.09500548 12.46444057 16.12557985 14.90074626 16.11352539 17.36547852 C16.11367142 18.13615662 16.11381744 18.90683472 16.1139679 19.7008667 C16.1132686 22.26024139 16.10547545 24.8195442 16.09765625 27.37890625 C16.09579213 29.14867615 16.0943682 30.91844656 16.09336853 32.68821716 C16.08954288 37.35551366 16.0797122 42.02277923 16.06866455 46.69006348 C16.05845144 51.44897035 16.05387113 56.20788221 16.04882812 60.96679688 C16.03808997 70.31121153 16.02101299 79.6556032 16 89 C16.65226562 89.06058594 17.30453125 89.12117188 17.9765625 89.18359375 C19.28753906 89.30927734 19.28753906 89.30927734 20.625 89.4375 C21.91277344 89.55931641 21.91277344 89.55931641 23.2265625 89.68359375 C26.16471971 90.01879197 29.08302024 90.51383671 32 91 C32 67.57 32 44.14 32 20 C37.28 22.64 42.56 25.28 48 28 C48 83.44 48 138.88 48 196 C34 202 34 202 32 202 C32 176.92 32 151.84 32 126 C26.72 126 21.44 126 16 126 C16 153.72 16 181.44 16 210 C2 218 2 218 0 218 C0 146.06 0 74.12 0 0 Z " fill="#EA6925" transform="translate(124,203)"/>
<path d="M0 0 C0 42.24 0 84.48 0 128 C-4.95 127.67 -9.9 127.34 -15 127 C-15.33 102.91 -15.66 78.82 -16 54 C-16.66 58.95 -17.32 63.9 -18 69 C-18.55431077 71.78123611 -19.15056264 74.55489712 -19.8125 77.3125 C-22.57300744 89.13444011 -24.75090537 101.0724244 -27 113 C-30.96 113 -34.92 113 -39 113 C-41.72013844 101.34391739 -44.32766747 89.67237664 -46.6875 77.9375 C-46.88947998 76.94113525 -47.09145996 75.94477051 -47.29956055 74.91821289 C-48.74971361 67.62403343 -49.86646258 60.36799322 -51 53 C-51.33 75.77 -51.66 98.54 -52 122 C-56.95 122 -61.9 122 -67 122 C-67 84.38 -67 46.76 -67 8 C-60.4 8 -53.8 8 -47 8 C-44.35246165 17.92826883 -42.26356473 27.76990638 -40.58007812 37.90405273 C-39.15394779 46.38882915 -37.42314846 54.79304659 -35.57446289 63.1953125 C-35.36942139 64.1440625 -35.16437988 65.0928125 -34.953125 66.0703125 C-34.76911133 66.90320801 -34.58509766 67.73610352 -34.39550781 68.59423828 C-33.98282178 71.10449025 -33.93098725 73.46067014 -34 76 C-33.34 76 -32.68 76 -32 76 C-31.98582031 75.35160156 -31.97164063 74.70320313 -31.95703125 74.03515625 C-31.28567209 60.22693144 -27.9879995 46.63855073 -24.90234375 33.19921875 C-24.03731769 29.34081031 -23.47352782 25.49024415 -23 21.5625 C-22.24763752 15.63913829 -21.26370656 9.83296312 -20 4 C-17.04222581 3.33076624 -14.08383702 2.66450361 -11.125 2 C-10.28324219 1.80921875 -9.44148438 1.6184375 -8.57421875 1.421875 C-7.76855469 1.24140625 -6.96289062 1.0609375 -6.1328125 0.875 C-5.38918457 0.70742187 -4.64555664 0.53984375 -3.87939453 0.3671875 C-2 0 -2 0 0 0 Z " fill="#EB6824" transform="translate(370,253)"/>
<path d="M0 0 C5.15642336 41.21013549 5.15642336 41.21013549 6.29936218 55.41740417 C6.78111915 61.14235345 7.50418067 66.79341736 8.36328125 72.47265625 C10.03806102 83.88886275 11.38874469 95.33487117 12.67993164 106.80004883 C13.06024174 110.16750423 13.44880331 113.5339395 13.83789062 116.90039062 C15.58837962 132.24404365 16.92404762 147.59471587 18 163 C16.58370302 162.7049618 15.16855899 162.40438638 13.75390625 162.1015625 C12.9657251 161.93479004 12.17754395 161.76801758 11.36547852 161.59619141 C8.0375435 160.75742401 5.10448855 159.45316485 2 158 C0.61546514 145.67174814 -0.71089065 133.33861808 -2 121 C-7.94 119.68 -13.88 118.36 -20 117 C-20.12117188 118.38832031 -20.24234375 119.77664063 -20.3671875 121.20703125 C-22.07756389 140.2672317 -22.07756389 140.2672317 -24 149 C-29 148 -34 147 -39 146 C-38.42324081 138.53515718 -37.7093037 131.11257748 -36.75 123.6875 C-36.62214111 122.68372314 -36.49428223 121.67994629 -36.36254883 120.64575195 C-36.07235565 118.37046918 -35.78102868 116.09533082 -35.48876953 113.8203125 C-35.05135808 110.40142423 -34.61920427 106.98193799 -34.18928528 103.56210327 C-32.3456943 88.90768727 -30.47615298 74.258324 -28.4140625 59.6328125 C-28.28060928 58.68539688 -28.14715607 57.73798126 -28.00965881 56.76185608 C-27.36506385 52.19594455 -26.71453984 47.63097553 -26.05541992 43.06713867 C-25.8138865 41.37424377 -25.57275092 39.68129205 -25.33203125 37.98828125 C-25.21379501 37.17129257 -25.09555878 36.35430389 -24.97373962 35.51255798 C-24.36133749 31.14268626 -23.88095265 26.79326207 -23.55615234 22.39208984 C-23.48418137 21.47558151 -23.41221039 20.55907318 -23.33805847 19.61479187 C-23.20691919 17.85826091 -23.09563903 16.10009839 -23.00727844 14.34089661 C-22.83935728 12.118658 -22.64843007 10.13236143 -22 8 C-18.92221048 5.44545338 -15.76859392 4.47373097 -11.9375 3.4375 C-9.42435241 2.75209611 -7.19826881 2.10187293 -4.87890625 0.91015625 C-3 0 -3 0 0 0 Z " fill="#EC6824" transform="translate(415,238)"/>
<path d="M0 0 C31.92446835 2.9022244 31.92446835 2.9022244 41 12 C49.50684518 23.25551922 51.18925329 35.24987313 50 49 C48.79877807 56.42796417 47.04199696 63.78900321 41.75 69.375 C39.64950961 72.52573558 39.98812594 74.13643203 40.54150391 77.77929688 C41.30775308 81.49058679 42.53845442 84.99940482 43.8125 88.5625 C47.26755802 98.5648046 50.25693756 108.54162534 52 119 C46.06 119 40.12 119 34 119 C31.14751143 110.03503591 28.68840484 101.06651398 26.47021484 91.92919922 C25.74391879 88.94934903 24.99634808 85.97488039 24.25 83 C23.83333333 81.33333333 23.41666667 79.66666667 23 78 C20.69 78 18.38 78 16 78 C16 92.19 16 106.38 16 121 C9 123 9 123 0 123 C0 82.41 0 41.82 0 0 Z " fill="#EB6622" transform="translate(242,256)"/>
<path d="M0 0 C12.13152094 3.30859662 12.13152094 3.30859662 16.5625 5.375 C22.59990869 8.00342331 28.76701462 9.72199832 35.12133789 11.38818359 C40.91219079 12.91219079 40.91219079 12.91219079 42 14 C42.08737645 15.85369611 42.10698153 17.71067541 42.09765625 19.56640625 C42.09443359 20.69111328 42.09121094 21.81582031 42.08789062 22.97460938 C42.07532227 24.75061523 42.07532227 24.75061523 42.0625 26.5625 C42.05798828 27.75037109 42.05347656 28.93824219 42.04882812 30.16210938 C42.03699675 33.10812226 42.02051287 36.05403681 42 39 C32.98953667 37.74579631 24.85087904 35.52882258 16 33 C16 42.9 16 52.8 16 63 C22.53676545 63.28923686 22.53676545 63.28923686 29.07397461 63.56811523 C29.88358643 63.60622314 30.69319824 63.64433105 31.52734375 63.68359375 C32.77632446 63.73858032 32.77632446 63.73858032 34.05053711 63.79467773 C36 64 36 64 37 65 C37.08726223 66.78071246 37.10699041 68.5648314 37.09765625 70.34765625 C37.09443359 71.42724609 37.09121094 72.50683594 37.08789062 73.61914062 C37.07532227 75.32360352 37.07532227 75.32360352 37.0625 77.0625 C37.05798828 78.20267578 37.05347656 79.34285156 37.04882812 80.51757812 C37.0369976 83.34507418 37.0190615 86.17254345 37 89 C30.07 89 23.14 89 16 89 C16 99.89 16 110.78 16 122 C19.465 121.01 19.465 121.01 23 120 C24.60613876 119.74021296 26.22036192 119.52355126 27.83984375 119.3671875 C28.97087524 119.25286377 28.97087524 119.25286377 30.12475586 119.13623047 C31.05296143 119.05002441 31.98116699 118.96381836 32.9375 118.875 C35.928125 118.58625 38.91875 118.2975 42 118 C42 126.58 42 135.16 42 144 C39.586875 144.598125 37.17375 145.19625 34.6875 145.8125 C24.57845977 148.33618254 14.58607952 151.07671435 4.65234375 154.23046875 C2 155 2 155 0 155 C0 103.85 0 52.7 0 0 Z " fill="#EB6823" transform="translate(187,238)"/>
<path d="M0 0 C0 52.47 0 104.94 0 159 C2.97 159.99 5.94 160.98 9 162 C14.94 164.475 14.94 164.475 21 167 C21 179.21 21 191.42 21 204 C14.41520468 201.80506823 14.41520468 201.80506823 10.9375 199.5 C2.28519801 194.39969567 -6.93196119 190.31811372 -16 186 C-16 127.26 -16 68.52 -16 8 C-2 0 -2 0 0 0 Z " fill="#EB6C2A" transform="translate(454,218)"/>
<path d="M0 0 C10.25835866 1.13981763 10.25835866 1.13981763 15 6 C16.61184913 9.22369827 16.22621437 12.71188711 16.25 16.25 C16.270625 17.00152344 16.29125 17.75304687 16.3125 18.52734375 C16.34654776 23.40468481 15.80494796 26.83048277 13 31 C9 33 9 33 0 33 C0 22.11 0 11.22 0 0 Z " fill="#F7F2EE" transform="translate(258,281)"/>
<path d="M0 0 C0.33 0 0.66 0 1 0 C2.37742335 9.53938937 3.44236557 19.07684955 4.30224609 28.67651367 C4.63663313 32.37124502 5.00316481 36.02106156 5.5546875 39.69140625 C6.02014505 43.14967418 6.0984506 46.45029186 6.0625 49.9375 C6.05347656 51.08089844 6.04445313 52.22429687 6.03515625 53.40234375 C6.02355469 54.25957031 6.01195312 55.11679687 6 56 C2.04 55.67 -1.92 55.34 -6 55 C-6.11117753 48.50739645 -5.71503934 42.26320899 -4.94140625 35.8203125 C-4.8327977 34.88573212 -4.72418915 33.95115173 -4.61228943 32.98825073 C-4.38356816 31.02996246 -4.15233907 29.07196558 -3.91870117 27.11425781 C-3.56111161 24.1133486 -3.2125919 21.11148403 -2.86523438 18.109375 C-2.64115668 16.20045835 -2.41656562 14.29160187 -2.19140625 12.3828125 C-2.08719864 11.48595734 -1.98299103 10.58910217 -1.87562561 9.66506958 C-1.72558327 8.41764481 -1.72558327 8.41764481 -1.57250977 7.14501953 C-1.48590591 6.41493683 -1.39930206 5.68485413 -1.31007385 4.93264771 C-1 3 -1 3 0 0 Z " fill="#F9F3ED" transform="translate(404,274)"/>
<path d="M0 0 C1.64182202 3.28364404 2.27139163 4.70169254 2.6328125 8.109375 C2.71660156 8.86347656 2.80039062 9.61757813 2.88671875 10.39453125 C2.96535156 11.17183594 3.04398437 11.94914062 3.125 12.75 C3.21136719 13.54277344 3.29773438 14.33554687 3.38671875 15.15234375 C3.59800054 17.10083141 3.79992467 19.05032976 4 21 C3.34 20.34 2.68 19.68 2 19 C1.67 36.82 1.34 54.64 1 73 C0.67 73 0.34 73 0 73 C0 48.91 0 24.82 0 0 Z " fill="#F3DDCB" transform="translate(318,302)"/>
<path d="M0 0 C0.33 0 0.66 0 1 0 C1.95261487 4.76307437 2.08333357 9.1666528 2 14 C1.34 12.68 0.68 11.36 0 10 C-0.33 12.31 -0.66 14.62 -1 17 C-1.33 17 -1.66 17 -2 17 C-2.21824777 10.9981863 -1.5056904 5.80766296 0 0 Z " fill="#F6D8C6" transform="translate(404,274)"/>
<path d="M0 0 C6.93 0 13.86 0 21 0 C21 0.33 21 0.66 21 1 C12.585 1.495 12.585 1.495 4 2 C4 2.99 4 3.98 4 5 C2 3.625 2 3.625 0 2 C0 1.34 0 0.68 0 0 Z " fill="#255E9C" transform="translate(341,7)"/>
<path d="M0 0 C0.33 0.99 0.66 1.98 1 3 C-0.65 4.65 -2.3 6.3 -4 8 C-4.99 7.67 -5.98 7.34 -7 7 C-4.69 4.69 -2.38 2.38 0 0 Z " fill="#135A9D" transform="translate(432,74)"/>
</svg>
