<?xml version="1.0" encoding="UTF-8"?>
<svg version="1.1" xmlns="http://www.w3.org/2000/svg" width="324" height="92">
<path d="M0 0 C0.99 0 1.98 0 3 0 C4.74437316 3.72996467 6.48573052 7.46131957 8.22460938 11.19384766 C8.81335204 12.45657934 9.40283955 13.71896408 9.99316406 14.98095703 C13.2056906 21.8500624 16.37719691 28.73777555 19.4296875 35.6796875 C19.92452637 36.79843262 20.41936523 37.91717773 20.92919922 39.06982422 C22 42 22 42 22 46 C18.37 46 14.74 46 11 46 C7.87283742 39.05074983 4.90801867 32.0436026 2 25 C-0.74428407 29.1164261 -2.14311394 33.65091719 -3.7890625 38.28320312 C-5.79241071 43.79241071 -5.79241071 43.79241071 -8 46 C-9.98 46.495 -9.98 46.495 -12 47 C74.625 47.495 74.625 47.495 163 48 C160.64464176 58.59911206 156.71053169 68.79603785 153 79 C92.61 79 32.22 79 -30 79 C-22 55 -22 55 -19 48 C-19 47.01 -19 46.02 -19 45 C-18.40313053 40.68006941 -16.79526545 36.97209856 -14.98046875 33.046875 C-14.68062576 32.38721741 -14.38078278 31.72755981 -14.07185364 31.0479126 C-13.11531879 28.94632477 -12.15161233 26.84812081 -11.1875 24.75 C-10.55094045 23.35569319 -9.91486812 21.96116384 -9.27929688 20.56640625 C-8.06366097 17.89948261 -6.845776 15.23360437 -5.62646484 12.56835938 C-3.7224658 8.39110779 -1.85275064 4.20019036 0 0 Z M-7 52 C-7 59.59 -7 67.18 -7 75 C-6.34 75 -5.68 75 -5 75 C-4.67 70.05 -4.34 65.1 -4 60 C-2.35 63.3 -0.7 66.6 1 70 C3.98818911 66.27495154 3.98818911 66.27495154 5.5625 62.8125 C7 60 7 60 9 59 C9 64.28 9 69.56 9 75 C9.33 75 9.66 75 10 75 C10 67.41 10 59.82 10 52 C6.90882072 52.66748235 6.90882072 52.66748235 5.83203125 54.9609375 C5.32736328 56.15589844 5.32736328 56.15589844 4.8125 57.375 C4.46832031 58.16648437 4.12414062 58.95796875 3.76953125 59.7734375 C2.83667254 62.07993973 2.83667254 62.07993973 3 65 C0.27324841 62.59310197 -1.11966596 60.07528977 -2.6875 56.8125 C-3.34298828 55.46091797 -3.34298828 55.46091797 -4.01171875 54.08203125 C-4.33785156 53.39496094 -4.66398437 52.70789062 -5 52 C-5.66 52 -6.32 52 -7 52 Z M15 52 C15 59.59 15 67.18 15 75 C18.63 75 22.26 75 26 75 C26 74.34 26 73.68 26 73 C22.7 73 19.4 73 16 73 C16.33 70.36 16.66 67.72 17 65 C18.98 64.67 20.96 64.34 23 64 C23 63.67 23 63.34 23 63 C20.03 62.505 20.03 62.505 17 62 C17 59.36 17 56.72 17 54 C19.97 54 22.94 54 26 54 C26 53.34 26 52.68 26 52 C22.37 52 18.74 52 15 52 Z M31 53 C29.85111419 56.44665742 29.7960653 59.24351905 29.75 62.875 C29.72421875 64.08929688 29.6984375 65.30359375 29.671875 66.5546875 C30.01968836 70.20672783 30.87521966 72.05885669 33 75 C36.465 74.505 36.465 74.505 40 74 C40.33 72.35 40.66 70.7 41 69 C40.34 69 39.68 69 39 69 C38.67 69.99 38.34 70.98 38 72 C36.68 72 35.36 72 34 72 C32.49843126 68.99686252 32.90718796 66.20932478 32.9375 62.875 C32.94652344 61.59367187 32.95554688 60.31234375 32.96484375 58.9921875 C32.97644531 58.00476562 32.98804688 57.01734375 33 56 C34.65 55.67 36.3 55.34 38 55 C38.33 55.99 38.66 56.98 39 58 C39.66 58 40.32 58 41 58 C40.67 56.35 40.34 54.7 40 53 C35.38492226 51.95785309 35.38492226 51.95785309 31 53 Z M46 52 C46 59.59 46 67.18 46 75 C46.33 75 46.66 75 47 75 C47.33 71.7 47.66 68.4 48 65 C49.98 65 51.96 65 54 65 C54.33 68.3 54.66 71.6 55 75 C55.66 75 56.32 75 57 75 C57 67.41 57 59.82 57 52 C56.34 52 55.68 52 55 52 C54.67 55.3 54.34 58.6 54 62 C52.02 62 50.04 62 48 62 C47.67 58.7 47.34 55.4 47 52 C46.67 52 46.34 52 46 52 Z M77 52 C77 59.59 77 67.18 77 75 C77.33 75 77.66 75 78 75 C78 69.72 78 64.44 78 59 C78.66 59 79.32 59 80 59 C80.19335938 59.65226562 80.38671875 60.30453125 80.5859375 60.9765625 C81.98640448 65.6771398 83.41208726 70.35840891 85 75 C85.99 75 86.98 75 88 75 C88 67.41 88 59.82 88 52 C87.34 52 86.68 52 86 52 C85.67 57.28 85.34 62.56 85 68 C83.02 62.72 81.04 57.44 79 52 C78.34 52 77.68 52 77 52 Z M92 52 C92 59.59 92 67.18 92 75 C92.66 75 93.32 75 94 75 C94 67.41 94 59.82 94 52 C93.34 52 92.68 52 92 52 Z M101 52 C98.21563843 55.94819524 97.59129587 58.69154422 97.625 63.5 C97.61726563 64.6034375 97.60953125 65.706875 97.6015625 66.84375 C98.04175851 70.33079291 98.84609118 72.2393563 101 75 C104 75.83333333 104 75.83333333 107 75 C108.9354148 72.60943058 108.9354148 72.60943058 110 70 C109.01 70 108.02 70 107 70 C106.67 70.66 106.34 71.32 106 72 C104.68 72 103.36 72 102 72 C100.57402389 69.14804778 100.8679748 66.67538825 100.875 63.5 C100.87242187 62.3346875 100.86984375 61.169375 100.8671875 59.96875 C101 57 101 57 102 55 C103.32 55 104.64 55 106 55 C106.33 55.99 106.66 56.98 107 58 C107.99 57.67 108.98 57.34 110 57 C109.51294288 54.93597032 109.51294288 54.93597032 108 53 C104.43793339 52.18129815 104.43793339 52.18129815 101 52 Z M130 52 C128.76078789 53.01636977 128.76078789 53.01636977 128.88647461 55.13305664 C128.89171143 56.04949951 128.89694824 56.96594238 128.90234375 57.91015625 C128.90556641 58.89951172 128.90878906 59.88886719 128.91210938 60.90820312 C128.92048828 61.94912109 128.92886719 62.99003906 128.9375 64.0625 C128.94201172 65.10728516 128.94652344 66.15207031 128.95117188 67.22851562 C128.96300073 69.81903454 128.98093681 72.40952422 129 75 C132.96 75 136.92 75 141 75 C141 74.34 141 73.68 141 73 C137.7 73 134.4 73 131 73 C131 66.07 131 59.14 131 52 C130.67 52 130.34 52 130 52 Z M66 54 C64.35 60.93 62.7 67.86 61 75 C61.66 75 62.32 75 63 75 C63.50310058 73.2092015 64.00238628 71.41733089 64.5 69.625 C64.7784375 68.62726563 65.056875 67.62953125 65.34375 66.6015625 C66.08153015 64.12396724 66.08153015 64.12396724 66 62 C66.66 62 67.32 62 68 62 C68.06058594 62.60328125 68.12117188 63.2065625 68.18359375 63.828125 C68.26738281 64.62734375 68.35117188 65.4265625 68.4375 66.25 C68.55931641 67.43335937 68.55931641 67.43335937 68.68359375 68.640625 C68.97634993 70.82364639 69.42064419 72.8773182 70 75 C70.66 75 71.32 75 72 75 C71.54655971 72.6239729 71.08740741 70.24928419 70.625 67.875 C70.49867188 67.20984375 70.37234375 66.5446875 70.2421875 65.859375 C69.4425726 61.781339 68.40130515 57.91146915 67 54 C66.67 54 66.34 54 66 54 Z M119 54 C117.35 60.93 115.7 67.86 114 75 C114.66 75 115.32 75 116 75 C117.485 69.555 117.485 69.555 119 64 C120.83836919 67.67673838 121.93651813 71.04992447 123 75 C123.66 74.67 124.32 74.34 125 74 C123.35 67.4 121.7 60.8 120 54 C119.67 54 119.34 54 119 54 Z " fill="#090BC7" transform="translate(159,5)"/>
<path d="M0 0 C12 0 12 0 15.6640625 2.859375 C16.68773736 4.12748478 17.67411839 5.42643028 18.625 6.75 C19.15569092 7.42361572 19.68638184 8.09723145 20.2331543 8.79125977 C21.31756173 10.16962818 22.38796578 11.55913255 23.44384766 12.95947266 C25.79457501 16.04189801 28.30693713 18.98091766 30.8125 21.9375 C32.20989611 23.62370611 33.60638165 25.3106703 35 27 C42.20244109 18.37825434 48.59181231 9.2173882 55 0 C59.1053713 0.6972822 60.44871812 2.50387278 62.8581543 5.86499023 C63.31746338 6.52829346 63.77677246 7.19159668 64.25 7.875 C64.72800049 8.54668213 65.20600098 9.21836426 65.69848633 9.91040039 C66.67173618 11.2783472 67.64091182 12.64920198 68.60595703 14.02294922 C70.60072041 16.85194989 72.64394546 19.64354932 74.6875 22.4375 C75.79198432 23.95810266 76.89628728 25.47883719 78 27 C82.7190255 21.85704314 87.33583006 16.65828552 91.75 11.25 C92.50152344 10.34121094 93.25304687 9.43242187 94.02734375 8.49609375 C95.96742181 6.13925595 95.96742181 6.13925595 97.25390625 3.97265625 C98.3125 2.3125 98.3125 2.3125 101 0 C105.05304993 -0.53968707 108.94306279 -0.49156141 113 0 C116.04500487 3.04500487 114.99426075 11.55964702 115.04666138 15.58016968 C115.02021313 19.63128336 114.95699045 23.68010435 114.87890625 27.73046875 C114.85454415 29.21689537 114.8307039 30.70333063 114.80735779 32.18977356 C114.74512149 36.0646056 114.67589042 39.93928085 114.60510254 43.81396484 C114.53386588 47.7828062 114.46938241 51.75175698 114.40429688 55.72070312 C114.27606628 63.48058994 114.14043123 71.24032336 114 79 C111.40367389 79.06940068 108.80920542 79.12037412 106.21240234 79.16064453 C105.47775253 79.18218094 104.74310272 79.20371735 103.9861908 79.22590637 C98.52271828 79.28956336 98.52271828 79.28956336 95.85357666 77.81097412 C94.44286962 76.25460933 93.55698573 74.75629462 92.625 72.875 C91.86112866 71.59790778 91.09544406 70.3218987 90.328125 69.046875 C89.95494141 68.38365234 89.58175781 67.72042969 89.19726562 67.03710938 C87.1581414 63.56760436 84.75188089 60.36788278 82.375 57.125 C81.52699696 55.94128367 80.68048454 54.75649706 79.8359375 53.5703125 C79.23007813 52.72210938 78.62421875 51.87390625 78 51 C72.80014148 55.25262315 68.39017921 59.7473709 64.0625 64.875 C63.47404297 65.56335938 62.88558594 66.25171875 62.27929688 66.9609375 C60.84800733 68.63659356 59.42173605 70.31623861 58 72 C54.57381902 71.43143916 53.12872508 70.43480629 50.90625 67.796875 C50.35066406 67.14589844 49.79507813 66.49492188 49.22265625 65.82421875 C48.65417969 65.13972656 48.08570313 64.45523438 47.5 63.75 C46.93152344 63.08097656 46.36304688 62.41195312 45.77734375 61.72265625 C43.35671561 58.86395619 40.99416724 55.99236947 38.71875 53.015625 C38.1515625 52.35046875 37.584375 51.6853125 37 51 C36.34 51 35.68 51 35 51 C33.71369461 52.431373 33.71369461 52.431373 32.4609375 54.33203125 C31.96746826 55.04367432 31.47399902 55.75531738 30.96557617 56.48852539 C30.44068604 57.25543701 29.9157959 58.02234863 29.375 58.8125 C28.83012939 59.58263428 28.28525879 60.35276855 27.72387695 61.14624023 C25.32051317 64.55263582 22.98135629 67.93118513 20.95703125 71.578125 C19.1875 74.5625 19.1875 74.5625 15 79 C10.05 79 5.1 79 0 79 C0 52.93 0 26.86 0 0 Z M56 21 C54.43753081 22.88563644 52.99022423 24.76640899 51.5625 26.75 C51.16740234 27.28882813 50.77230469 27.82765625 50.36523438 28.3828125 C49.2394032 29.91888832 48.11956487 31.45935102 47 33 C46.00279524 34.33542519 45.00412794 35.66977263 44 37 C45.48483103 40.23693164 47.32707435 42.9325625 49.5 45.75 C50.1084375 46.54921875 50.716875 47.3484375 51.34375 48.171875 C51.8903125 48.77515625 52.436875 49.3784375 53 50 C53.66 50 54.32 50 55 50 C55 50.66 55 51.32 55 52 C58.35184423 51.75722624 59.20803321 50.78030433 61.578125 48.27734375 C62.47840364 47.17185454 63.3687786 46.05823943 64.25 44.9375 C64.70890625 44.36966797 65.1678125 43.80183594 65.640625 43.21679688 C66.76900148 41.8180802 67.8856663 40.40992986 69 39 C67.4785114 34.60918236 65.14060361 30.97124031 62.5 27.1875 C62.09652344 26.59001953 61.69304687 25.99253906 61.27734375 25.37695312 C60.23960218 23.87856389 59.12524203 22.43384386 58 21 C57.34 21 56.68 21 56 21 Z M13 24 C13 35.55 13 47.1 13 59 C15.5778824 56.4221176 17.55427481 54.42287264 19.578125 51.546875 C20.01640625 50.928125 20.4546875 50.309375 20.90625 49.671875 C21.3496875 49.03765625 21.793125 48.4034375 22.25 47.75 C22.70890625 47.1003125 23.1678125 46.450625 23.640625 45.78125 C24.76389558 44.18995001 25.88243056 42.59530905 27 41 C25.43988817 37.5222507 23.36827674 34.72775973 21 31.75 C19.948125 30.41195312 19.948125 30.41195312 18.875 29.046875 C18.25625 28.37140625 17.6375 27.6959375 17 27 C16.34 27 15.68 27 15 27 C14.67 26.01 14.34 25.02 14 24 C13.67 24 13.34 24 13 24 Z M99 24 C98.67 24.99 98.34 25.98 98 27 C97.34 27 96.68 27 96 27 C94.4169795 28.73696562 92.90646276 30.54056497 91.4375 32.375 C90.63183594 33.37273438 89.82617188 34.37046875 88.99609375 35.3984375 C87.01754905 37.80685402 87.01754905 37.80685402 86 40 C87.76173949 42.63121001 89.53590875 45.25379979 91.3125 47.875 C91.81201172 48.62136719 92.31152344 49.36773437 92.82617188 50.13671875 C93.31279297 50.85214844 93.79941406 51.56757812 94.30078125 52.3046875 C94.74591064 52.96452637 95.19104004 53.62436523 95.6496582 54.30419922 C97.07371576 56.26968525 97.07371576 56.26968525 100 58 C100 46.78 100 35.56 100 24 C99.67 24 99.34 24 99 24 Z " fill="#E8080D" transform="translate(7,5)"/>
<path d="M0 0 C0.99 0 1.98 0 3 0 C4.74437316 3.72996467 6.48573052 7.46131957 8.22460938 11.19384766 C8.81335204 12.45657934 9.40283955 13.71896408 9.99316406 14.98095703 C13.2056906 21.8500624 16.37719691 28.73777555 19.4296875 35.6796875 C19.92452637 36.79843262 20.41936523 37.91717773 20.92919922 39.06982422 C22 42 22 42 22 46 C18.37 46 14.74 46 11 46 C7.87283742 39.05074983 4.90801867 32.0436026 2 25 C-0.74428407 29.1164261 -2.14311394 33.65091719 -3.7890625 38.28320312 C-5.79241071 43.79241071 -5.79241071 43.79241071 -8 46 C-9.0209375 46.2475 -9.0209375 46.2475 -10.0625 46.5 C-11.0215625 46.7475 -11.0215625 46.7475 -12 47 C-12.33 47.66 -12.66 48.32 -13 49 C10.43 49 33.86 49 58 49 C57.505 49.99 57.505 49.99 57 51 C56.01 51 55.02 51 54 51 C54 54.96 54 58.92 54 63 C52.02 63 50.04 63 48 63 C47.67 62.67 47.34 62.34 47 62 C46.67 66.29 46.34 70.58 46 75 C46.66 75 47.32 75 48 75 C48 72.03 48 69.06 48 66 C49.98 66 51.96 66 54 66 C54.495 71.94 54.495 71.94 55 78 C49.72 78 44.44 78 39 78 C39.99 76.02 39.99 76.02 41 74 C41.38290462 72.00889599 41.72604615 70.00899487 42 68 C41.01 68 40.02 68 39 68 C38.67 69.65 38.34 71.3 38 73 C35.5625 72.625 35.5625 72.625 33 72 C31.51479275 69.02958551 31.8294178 66.30235553 31.8125 63 C31.79832031 61.741875 31.78414062 60.48375 31.76953125 59.1875 C32 56 32 56 34 54 C36.625 54.375 36.625 54.375 39 55 C39 55.99 39 56.98 39 58 C39.66 58 40.32 58 41 58 C40.69165301 54.98283157 40.69165301 54.98283157 39 52 C36.03 51.34 33.06 50.68 30 50 C29.67 57.59 29.34 65.18 29 73 C24.71 73 20.42 73 16 73 C15.90234375 66.84765625 15.90234375 66.84765625 16 65 C17 64 17 64 20.0625 63.9375 C21.031875 63.958125 22.00125 63.97875 23 64 C23 63.01 23 62.02 23 61 C21.35 61 19.7 61 18 61 C18 59.02 18 57.04 18 55 C20.97 55 23.94 55 27 55 C27 53.68 27 52.36 27 51 C22.71 51 18.42 51 14 51 C14 52.65 14 54.3 14 56 C13.34 56 12.68 56 12 56 C11.67 54.35 11.34 52.7 11 51 C9.68 51 8.36 51 7 51 C6.8453125 52.5159375 6.8453125 52.5159375 6.6875 54.0625 C5.96295233 58.21218208 4.77730734 61.21356263 3 65 C0 64 0 64 -1.31640625 61.53125 C-1.72761719 60.5309375 -2.13882813 59.530625 -2.5625 58.5 C-3.93602872 54.49211799 -3.93602872 54.49211799 -7 52 C-7 59.59 -7 67.18 -7 75 C-6.34 75 -5.68 75 -5 75 C-5 69.72 -5 64.44 -5 59 C-2.04152015 61.95847985 -0.65789147 64.21053378 1 68 C1 68.99 1 69.98 1 71 C3.475 70.01 3.475 70.01 6 69 C6.495 73.455 6.495 73.455 7 78 C-4.22 78 -15.44 78 -27 78 C-25.76328528 68.10628225 -23.77485809 59.19433924 -19.76953125 50.05859375 C-18.82492534 47.89794023 -18.82492534 47.89794023 -19 45 C-18.40313053 40.68006941 -16.79526545 36.97209856 -14.98046875 33.046875 C-14.68062576 32.38721741 -14.38078278 31.72755981 -14.07185364 31.0479126 C-13.11531879 28.94632477 -12.15161233 26.84812081 -11.1875 24.75 C-10.55094045 23.35569319 -9.91486812 21.96116384 -9.27929688 20.56640625 C-8.06366097 17.89948261 -6.845776 15.23360437 -5.62646484 12.56835938 C-3.7224658 8.39110779 -1.85275064 4.20019036 0 0 Z " fill="#080ACE" transform="translate(159,5)"/>
<path d="M0 0 C2.546875 0.30859375 2.546875 0.30859375 3.546875 1.30859375 C4.99713628 10.13182741 4.59743357 19.13515602 4.42578125 28.0390625 C4.40141915 29.52548912 4.3775789 31.01192438 4.35423279 32.49836731 C4.29199649 36.37319935 4.22276542 40.2478746 4.15197754 44.12255859 C4.08074088 48.09139995 4.01625741 52.06035073 3.95117188 56.02929688 C3.82294128 63.78918369 3.68730623 71.54891711 3.546875 79.30859375 C2.556875 79.30859375 1.566875 79.30859375 0.546875 79.30859375 C0.340625 78.62796875 0.134375 77.94734375 -0.078125 77.24609375 C-1.65909868 73.86855907 -3.69303793 71.57605611 -6.2109375 68.859375 C-7.453125 67.30859375 -7.453125 67.30859375 -7.453125 65.30859375 C-8.113125 65.30859375 -8.773125 65.30859375 -9.453125 65.30859375 C-11.11760331 60.24316582 -11.72891515 55.75220332 -11.6484375 50.40625 C-11.6456076 49.68368515 -11.64277771 48.9611203 -11.63986206 48.21665955 C-11.62876886 45.93462759 -11.60368588 43.65300478 -11.578125 41.37109375 C-11.56808111 39.81315676 -11.55895774 38.25521354 -11.55078125 36.69726562 C-11.52886533 32.90088676 -11.49441238 29.10480935 -11.453125 25.30859375 C-11.783125 25.96859375 -12.113125 26.62859375 -12.453125 27.30859375 C-13.113125 27.30859375 -13.773125 27.30859375 -14.453125 27.30859375 C-14.70835938 27.8809375 -14.96359375 28.45328125 -15.2265625 29.04296875 C-16.58399659 31.55033108 -18.17286604 33.44163935 -20.078125 35.55859375 C-20.70976563 36.265 -21.34140625 36.97140625 -21.9921875 37.69921875 C-22.47429687 38.2303125 -22.95640625 38.76140625 -23.453125 39.30859375 C-25.86657989 38.91582593 -27.18358026 38.5663589 -28.97265625 36.85546875 C-29.39933594 36.2625 -29.82601562 35.66953125 -30.265625 35.05859375 C-30.70519531 34.4759375 -31.14476563 33.89328125 -31.59765625 33.29296875 C-32.78492966 30.53892814 -32.40800517 29.12527223 -31.453125 26.30859375 C-29.921875 24.23828125 -29.921875 24.23828125 -27.953125 22.18359375 C-24.76228681 18.75215375 -21.72035895 15.25883153 -18.765625 11.62109375 C-18.00507812 10.70328125 -17.24453125 9.78546875 -16.4609375 8.83984375 C-14.48916115 6.45443901 -14.48916115 6.45443901 -13.1953125 4.27734375 C-9.88945371 -0.91407894 -5.55840169 -0.22369178 0 0 Z " fill="#0201F7" transform="translate(117.453125,4.69140625)"/>
<path d="M0 0 C12 0 12 0 15.69921875 2.89453125 C16.7325587 4.17125366 17.7281196 5.47930804 18.6875 6.8125 C19.22076904 7.49231934 19.75403809 8.17213867 20.3034668 8.87255859 C21.3799448 10.24720533 22.4428342 11.63261206 23.49121094 13.02880859 C24.87643274 14.83856278 26.31448357 16.55982143 27.8203125 18.26953125 C33.87985103 25.21235674 33.87985103 25.21235674 34.38671875 28.53515625 C33.94512061 31.34978679 33.09240605 32.96370108 31.5 35.3125 C31.0359375 36.00988281 30.571875 36.70726562 30.09375 37.42578125 C29.7328125 37.94527344 29.371875 38.46476562 29 39 C24.96945077 38.48256463 23.34736145 36.56870538 20.75 33.5625 C20.04359375 32.75941406 19.3371875 31.95632812 18.609375 31.12890625 C17 29 17 29 17 27 C16.34 27 15.68 27 15 27 C14.67 26.34 14.34 25.68 14 25 C13.98541748 26.02883301 13.97083496 27.05766602 13.95581055 28.11767578 C13.89761343 31.95346947 13.82038297 35.78868922 13.73754883 39.62402344 C13.70439982 41.28050384 13.67633691 42.93709446 13.65356445 44.59375 C13.61983268 46.98224634 13.56751041 49.36974171 13.51171875 51.7578125 C13.50213387 52.85973434 13.50213387 52.85973434 13.49235535 53.98391724 C13.31756723 60.16753047 11.22517382 64.43931974 7.7734375 69.4296875 C7.3815625 69.996875 6.9896875 70.5640625 6.5859375 71.1484375 C6.18632812 71.71820313 5.78671875 72.28796875 5.375 72.875 C4.76398437 73.76445312 4.76398437 73.76445312 4.140625 74.671875 C3.12249726 76.13501221 2.06475112 77.57043375 1 79 C0.67 79 0.34 79 0 79 C0 52.93 0 26.86 0 0 Z " fill="#0704E7" transform="translate(7,5)"/>
<path d="M0 0 C2.82108277 0.57009381 3.86697061 0.87112778 6 2.9375 C8.23244932 6.35593803 9.55065426 9.75221793 10.9921875 13.5546875 C12.52741858 17.27970555 14.2746774 21.1373387 18 23 C18.72693904 24.97888961 19.39816251 26.97954558 20 29 C18.68 29 17.36 29 16 29 C16.495 30.485 16.495 30.485 17 32 C15.35 32 13.7 32 12 32 C12 31.34 12 30.68 12 30 C11.505 29.505 11.01 29.01 10.5 28.5 C10.005 28.005 9.51 27.51 9 27 C9 26.34 9 25.68 9 25 C9.66 25 10.32 25 11 25 C11 24.34 11 23.68 11 23 C9.68 23.33 8.36 23.66 7 24 C6.505 23.01 6.505 23.01 6 22 C3.6233588 21.70396469 3.6233588 21.70396469 1 22 C-0.69206479 23.45790174 -0.69206479 23.45790174 -1.9375 25.54296875 C-2.44023438 26.28740234 -2.94296875 27.03183594 -3.4609375 27.79882812 C-4.22277344 28.9812207 -4.22277344 28.9812207 -5 30.1875 C-10.81604304 38.99275297 -10.81604304 38.99275297 -13.8125 41.86328125 C-16.2158633 43.88478039 -16.2158633 43.88478039 -17 47 C-18 50 -18 50 -20.1875 52.1640625 C-23.61366313 55.61877699 -26.24689412 59.37810517 -29 63.375 C-30.51902675 65.55715518 -32.038076 67.73884243 -33.5715332 69.91088867 C-34.50246964 71.27236929 -35.39204603 72.66336085 -36.23120117 74.08325195 C-37.41796875 76.01171875 -37.41796875 76.01171875 -40 79 C-43.55078125 79.68359375 -43.55078125 79.68359375 -47.3125 79.4375 C-48.56675781 79.37433594 -49.82101563 79.31117187 -51.11328125 79.24609375 C-52.54220703 79.12427734 -52.54220703 79.12427734 -54 79 C-52.49555755 74.99259135 -50.69374141 72.32756292 -48 69 C-47.443125 68.00226563 -46.88625 67.00453125 -46.3125 65.9765625 C-43.51339381 60.99907241 -40.1747889 56.4037229 -36.875 51.75 C-35.62218097 49.97410989 -34.36956774 48.19807458 -33.1171875 46.421875 C-32.56659668 45.64424805 -32.01600586 44.86662109 -31.44873047 44.06542969 C-30.2757476 42.39312853 -29.13306663 40.69959995 -28 39 C-27.34 39 -26.68 39 -26 39 C-25.71125 38.05125 -25.4225 37.1025 -25.125 36.125 C-24 33 -24 33 -22 31 C-21.69835938 30.38511719 -21.39671875 29.77023438 -21.0859375 29.13671875 C-19.85576399 26.71619749 -18.37038357 24.89296776 -16.625 22.8125 C-10.67304583 15.5098256 -5.37502039 7.73130438 0 0 Z " fill="#F50404" transform="translate(62,5)"/>
<path d="M0 0 C1.29997925 0.00303635 1.29997925 0.00303635 2.6262207 0.00613403 C3.51027588 0.00517731 4.39433105 0.00422058 5.30517578 0.00323486 C7.178142 0.00255302 9.05111056 0.0044076 10.92407227 0.00857544 C13.80140458 0.01392364 16.67858078 0.0086306 19.5559082 0.00222778 C21.37101272 0.00288856 23.18611713 0.00416972 25.0012207 0.00613403 C25.86787354 0.0041098 26.73452637 0.00208557 27.62744141 0 C33.69877061 0.02399644 33.69877061 0.02399644 34.8137207 1.13894653 C35.74337178 7.76271046 35.74337178 7.76271046 33.52587891 11.04544067 C29.04635636 15.92717499 24.37835155 20.53005978 19.5012207 25.01394653 C18.08829988 26.32366935 16.67553223 27.63355742 15.26293945 28.94363403 C14.64765381 29.5106604 14.03236816 30.07768677 13.3984375 30.66189575 C12.18069987 31.79690002 10.99081875 32.96184849 9.8137207 34.13894653 C10.89641235 34.17653076 10.89641235 34.17653076 12.00097656 34.21487427 C15.2512557 34.33045955 18.50121759 34.45335427 21.7512207 34.57644653 C22.8875293 34.61576294 24.02383789 34.65507935 25.19458008 34.69558716 C26.27416992 34.73748169 27.35375977 34.77937622 28.46606445 34.82254028 C29.46629639 34.859198 30.46652832 34.89585571 31.49707031 34.93362427 C33.8137207 35.13894653 33.8137207 35.13894653 34.8137207 36.13894653 C35.08686885 41.87505764 35.08686885 41.87505764 34.8137207 44.13894653 C32.21066179 46.74200545 30.39093531 46.38719631 26.84472656 46.4168396 C26.03011963 46.41279114 25.2155127 46.40874268 24.3762207 46.40457153 C23.54034424 46.40648499 22.70446777 46.40839844 21.84326172 46.41036987 C20.07462259 46.41173189 18.30597348 46.4080343 16.53735352 46.39968872 C13.82456077 46.38898929 11.11243027 46.39958329 8.3996582 46.41238403 C6.6835109 46.41106244 4.96736402 46.40850005 3.2512207 46.40457153 C2.43661377 46.40862 1.62200684 46.41266846 0.78271484 46.4168396 C-4.95636002 46.36886581 -4.95636002 46.36886581 -7.1862793 44.13894653 C-7.65278021 39.39618721 -7.85590156 37.21034216 -5.3112793 33.13894653 C-3.1862793 31.13894653 -3.1862793 31.13894653 -1.1862793 31.13894653 C-1.1862793 30.47894653 -1.1862793 29.81894653 -1.1862793 29.13894653 C0.17700195 27.79910278 0.17700195 27.79910278 2.1262207 26.20144653 C7.67518412 21.49927286 12.71747503 16.31950509 17.8137207 11.13894653 C16.78432373 11.10921753 16.78432373 11.10921753 15.73413086 11.07888794 C12.63526292 10.98383708 9.53708777 10.87407806 6.4387207 10.76394653 C4.81836914 10.71754028 4.81836914 10.71754028 3.1652832 10.67019653 C1.6184082 10.61218872 1.6184082 10.61218872 0.0402832 10.55300903 C-0.91281738 10.52158813 -1.86591797 10.49016724 -2.84790039 10.45779419 C-5.1862793 10.13894653 -5.1862793 10.13894653 -7.1862793 8.13894653 C-7.3737793 4.57644653 -7.3737793 4.57644653 -7.1862793 1.13894653 C-5.29004728 -0.75728549 -2.5225757 0.00997028 0 0 Z " fill="#DE1111" transform="translate(190.186279296875,4.861053466796875)"/>
<path d="M0 0 C0.99 0 1.98 0 3 0 C4.74437316 3.72996467 6.48573052 7.46131957 8.22460938 11.19384766 C8.81335204 12.45657934 9.40283955 13.71896408 9.99316406 14.98095703 C13.2056906 21.8500624 16.37719691 28.73777555 19.4296875 35.6796875 C19.92452637 36.79843262 20.41936523 37.91717773 20.92919922 39.06982422 C22 42 22 42 22 46 C18.37 46 14.74 46 11 46 C7.87283742 39.05074983 4.90801867 32.0436026 2 25 C-0.74428407 29.1164261 -2.14311394 33.65091719 -3.7890625 38.28320312 C-5.79241071 43.79241071 -5.79241071 43.79241071 -8 46 C-10.61044571 47.04750369 -13.20039455 47.71432597 -16 48 C-18.0625 46.9375 -18.0625 46.9375 -19 45 C-18.50064545 40.67901513 -16.7870517 36.95433304 -14.98046875 33.046875 C-14.68062576 32.38721741 -14.38078278 31.72755981 -14.07185364 31.0479126 C-13.11531879 28.94632477 -12.15161233 26.84812081 -11.1875 24.75 C-10.55094045 23.35569319 -9.91486812 21.96116384 -9.27929688 20.56640625 C-8.06366097 17.89948261 -6.845776 15.23360437 -5.62646484 12.56835938 C-3.7224658 8.39110779 -1.85275064 4.20019036 0 0 Z " fill="#EB0909" transform="translate(159,5)"/>
<path d="M0 0 C0.8146875 0.00257813 1.629375 0.00515625 2.46875 0.0078125 C3.2834375 0.00523437 4.098125 0.00265625 4.9375 0 C6.96875 0.1328125 6.96875 0.1328125 7.96875 1.1328125 C8.05722743 3.65375326 8.08402301 6.14712143 8.06640625 8.66796875 C8.0649913 9.42121933 8.06357635 10.17446991 8.06211853 10.95054626 C8.05650376 13.3655081 8.04394883 15.78037851 8.03125 18.1953125 C8.0262369 19.82877471 8.02167366 21.46223836 8.01757812 23.09570312 C8.00737875 27.1081368 7.98780645 31.12037186 7.96875 35.1328125 C17.86875 35.1328125 27.76875 35.1328125 37.96875 35.1328125 C39.47537097 38.14605445 39.14645373 40.81567627 38.96875 44.1328125 C36.36202299 46.73953951 34.54947352 46.37057473 30.99975586 46.38505554 C29.77784546 46.37427727 29.77784546 46.37427727 28.53125 46.36328125 C27.69537354 46.36282303 26.85949707 46.36236481 25.99829102 46.3618927 C24.22964052 46.35886942 22.46099272 46.35098085 20.69238281 46.33862305 C17.97972212 46.32038626 15.26740304 46.31811321 12.5546875 46.31835938 C10.8385387 46.31344345 9.12239223 46.3076148 7.40625 46.30078125 C6.59164307 46.29966843 5.77703613 46.2985556 4.93774414 46.29740906 C-0.79911653 46.24887924 -0.79911653 46.24887924 -3.03125 45.1328125 C-3.05652124 38.88485575 -3.07408344 32.63691209 -3.08618164 26.38891602 C-3.09122298 24.26163236 -3.09805591 22.13435219 -3.10668945 20.00708008 C-3.11876379 16.95653424 -3.12448014 13.90603405 -3.12890625 10.85546875 C-3.13406754 9.89818375 -3.13922882 8.94089874 -3.14454651 7.9546051 C-3.14462204 7.07376755 -3.14469757 6.19292999 -3.14477539 5.28540039 C-3.146996 4.50596573 -3.14921661 3.72653107 -3.15150452 2.92347717 C-2.97718292 0.32771995 -2.58722613 0.16916479 0 0 Z " fill="#E90C0D" transform="translate(273.03125,4.8671875)"/>
<path d="M0 0 C0.99 0 1.98 0 3 0 C7.02044812 8.65729227 11.02193 17.32314852 15 26 C15.41427246 26.90331055 15.82854492 27.80662109 16.25537109 28.73730469 C17.26300877 30.94578886 18.25950817 33.15878457 19.25 35.375 C19.53689697 36.00277344 19.82379395 36.63054688 20.11938477 37.27734375 C21.54860418 40.51310735 22 42.36323083 22 46 C18.37 46 14.74 46 11 46 C7.40565066 39.21067348 4.67634304 32.19541408 2 25 C0.39296664 27.41055005 -0.63295545 29.33398322 -1.69140625 31.9765625 C-1.99626953 32.729375 -2.30113281 33.4821875 -2.61523438 34.2578125 C-2.92783203 35.03898437 -3.24042969 35.82015625 -3.5625 36.625 C-4.18652107 38.18060446 -4.81270993 39.73534166 -5.44140625 41.2890625 C-5.71670166 41.97693848 -5.99199707 42.66481445 -6.27563477 43.37353516 C-7 45 -7 45 -8 46 C-9.68608966 46.07205511 -11.37500659 46.08386068 -13.0625 46.0625 C-13.98160156 46.05347656 -14.90070313 46.04445312 -15.84765625 46.03515625 C-16.55792969 46.02355469 -17.26820313 46.01195312 -18 46 C-19.18350891 42.59711562 -18.86312639 40.93175138 -17.36938477 37.69042969 C-16.98891495 36.84986023 -16.60844513 36.00929077 -16.21644592 35.14324951 C-15.79568283 34.24519592 -15.37491974 33.34714233 -14.94140625 32.421875 C-14.30669655 31.03201385 -14.30669655 31.03201385 -13.65916443 29.61407471 C-12.30446633 26.65425739 -10.9337399 23.70218473 -9.5625 20.75 C-8.64151324 18.74528054 -7.72157806 16.74007762 -6.80273438 14.734375 C-4.54733072 9.81724055 -2.27872095 4.9063685 0 0 Z " fill="#F50404" transform="translate(246,5)"/>
<path d="M0 0 C3.79549259 0.54581199 5.30979295 2.05409295 7.75 4.9375 C8.67039062 6.00291016 8.67039062 6.00291016 9.609375 7.08984375 C11 9 11 9 11 11 C11.66 11 12.32 11 13 11 C13 11.66 13 12.32 13 13 C17.08332902 11.44533803 19.08208993 8.74912156 21.75 5.375 C22.54921875 4.37210938 23.3484375 3.36921875 24.171875 2.3359375 C24.77515625 1.56507812 25.3784375 0.79421875 26 0 C29.36900686 0.60160837 29.90787656 0.88996367 32.25 3.6875 C34.21019965 7.39787791 34.91941023 8.90444533 34 13 C32.51686519 14.82397945 30.88700548 16.34723583 29.1484375 17.9296875 C25.73400676 21.21995712 22.87925036 24.94930033 19.91796875 28.64453125 C18 31 18 31 16 33 C12.56615126 32.68925231 11.07600935 31.3722362 8.90625 28.796875 C8.35066406 28.14589844 7.79507813 27.49492188 7.22265625 26.82421875 C6.65417969 26.13972656 6.08570313 25.45523438 5.5 24.75 C4.93152344 24.08097656 4.36304688 23.41195312 3.77734375 22.72265625 C2.17132411 20.82598805 0.58436651 18.91475821 -1 17 C-1.78246094 16.07574219 -2.56492188 15.15148437 -3.37109375 14.19921875 C-5 12 -5 12 -5.5625 9.0625 C-4.78495583 4.82920395 -2.94646474 3.09378798 0 0 Z " fill="#0403F1" transform="translate(49,44)"/>
<path d="M0 0 C9.57 0 19.14 0 29 0 C29 1.98 29 3.96 29 6 C28.34 6.66 27.68 7.32 27 8 C26.45439918 9.8567567 25.98560625 11.73655969 25.5625 13.625 C24.38362014 18.61719531 22.91912702 23.24787596 21 28 C17.7 28 14.4 28 11 28 C11.66 27.67 12.32 27.34 13 27 C12.67 25.68 12.34 24.36 12 23 C8.7 22.34 5.4 21.68 2 21 C1.93941406 19.81921875 1.87882812 18.6384375 1.81640625 17.421875 C1.73197418 15.8645723 1.64732751 14.30728121 1.5625 12.75 C1.52318359 11.97269531 1.48386719 11.19539063 1.44335938 10.39453125 C1.40146484 9.64042969 1.35957031 8.88632812 1.31640625 8.109375 C1.27974854 7.41811523 1.24309082 6.72685547 1.20532227 6.01464844 C1.0121859 3.64379361 1.0121859 3.64379361 0 0 Z " fill="#0101F8" transform="translate(290,55)"/>
<path d="M0 0 C58.08 0 116.16 0 176 0 C175.67 1.65 175.34 3.3 175 5 C174.67 4.01 174.34 3.02 174 2 C140.34 2 106.68 2 72 2 C72 8.27 72 14.54 72 21 C72.66 21 73.32 21 74 21 C74 20.38511719 74 19.77023438 74 19.13671875 C74 15.7578125 74 12.37890625 74 9 C74.66 9 75.32 9 76 9 C76.33 7.68 76.66 6.36 77 5 C77.66 5 78.32 5 79 5 C78.54034292 12.30696249 77.11670277 18.99757448 75 26 C76.74206308 24.25793692 76.94503402 21.77313218 77.5625 19.4375 C77.83191406 18.42558594 78.10132813 17.41367188 78.37890625 16.37109375 C78.58386719 15.58863281 78.78882813 14.80617188 79 14 C79.66 14 80.32 14 81 14 C81.33872513 15.41538717 81.67074624 16.83237963 82 18.25 C82.185625 19.03890625 82.37125 19.8278125 82.5625 20.640625 C83 23 83 23 83 27 C83.66 27 84.32 27 85 27 C84.62746094 25.81921875 84.25492187 24.6384375 83.87109375 23.421875 C83.39269875 21.86474619 82.91486334 20.30744539 82.4375 18.75 C82.0672168 17.58404297 82.0672168 17.58404297 81.68945312 16.39453125 C81.46064453 15.64042969 81.23183594 14.88632813 80.99609375 14.109375 C80.78138428 13.41811523 80.5666748 12.72685547 80.34545898 12.01464844 C79.9508236 9.71321296 80.28915577 8.20383318 81 6 C84.48645046 13.32965398 85.7219098 19.90757513 86 28 C84.865625 28.144375 83.73125 28.28875 82.5625 28.4375 C79.19222799 28.61171478 79.19222799 28.61171478 78 30 C76.33570949 30.09823937 74.66718069 30.12973631 73 30.125 C71.63875 30.12886719 71.63875 30.12886719 70.25 30.1328125 C68 30 68 30 67 29 C66.92773498 27.14712498 66.9161878 25.29166122 66.9375 23.4375 C66.94652344 22.42558594 66.95554687 21.41367188 66.96484375 20.37109375 C66.97644531 19.58863281 66.98804688 18.80617188 67 18 C65.02 18 63.04 18 61 18 C61 20.97 61 23.94 61 27 C60.67 27 60.34 27 60 27 C59.97311849 25.35425434 59.95365877 23.70838587 59.9375 22.0625 C59.92589844 21.14597656 59.91429687 20.22945312 59.90234375 19.28515625 C60 17 60 17 61 16 C64 15.875 64 15.875 67 16 C68 17 68 17 68.09765625 19.28515625 C68.08605469 20.20167969 68.07445312 21.11820313 68.0625 22.0625 C68.05347656 22.98160156 68.04445313 23.90070313 68.03515625 24.84765625 C68.02355469 25.55792969 68.01195312 26.26820312 68 27 C68.66 27 69.32 27 70 27 C70 19.41 70 11.82 70 4 C69.34 4 68.68 4 68 4 C68 7.3 68 10.6 68 14 C67.67 14 67.34 14 67 14 C67 10.37 67 6.74 67 3 C67.99 2.67 68.98 2.34 70 2 C46.9 1.67 23.8 1.34 0 1 C0 0.67 0 0.34 0 0 Z " fill="#1C1FB9" transform="translate(146,53)"/>
<path d="M0 0 C1.4800841 0.11362262 2.95910074 0.24122908 4.4375 0.375 C5.26121094 0.44460937 6.08492188 0.51421875 6.93359375 0.5859375 C7.95646484 0.79089844 7.95646484 0.79089844 9 1 C9.495 1.99 9.495 1.99 10 3 C7.03 3 4.06 3 1 3 C0.94583259 5.72943537 0.90624775 8.45778564 0.875 11.1875 C0.85824219 11.95642578 0.84148437 12.72535156 0.82421875 13.51757812 C0.78733149 17.8149434 1.0041496 21.07901831 3 25 C2.195625 25.144375 1.39125 25.28875 0.5625 25.4375 C-1.92103706 25.74135249 -1.92103706 25.74135249 -3 27 C-5.5327765 27.07320163 -8.03103918 27.09227569 -10.5625 27.0625 C-13.016875 27.041875 -15.47125 27.02125 -18 27 C-11.07 27.33 -4.14 27.66 3 28 C3 28.33 3 28.66 3 29 C-17.79 29 -38.58 29 -60 29 C-58.35 24.05 -56.7 19.1 -55 14 C-54 18 -54 18 -57 28 C-45.78 28 -34.56 28 -23 28 C-23.495 23.545 -23.495 23.545 -24 19 C-25.65 19.66 -27.3 20.32 -29 21 C-27.02 17.04 -25.04 13.08 -23 9 C-22.34 9 -21.68 9 -21 9 C-20.67 6.69 -20.34 4.38 -20 2 C-20.99 2.33 -21.98 2.66 -23 3 C-23 2.34 -23 1.68 -23 1 C-21.68 1 -20.36 1 -19 1 C-18.505 3.475 -18.505 3.475 -18 6 C-17.34 6 -16.68 6 -16 6 C-16 4.35 -16 2.7 -16 1 C-11.71 1 -7.42 1 -3 1 C-3 2.32 -3 3.64 -3 5 C-5.97 5 -8.94 5 -12 5 C-12 6.98 -12 8.96 -12 11 C-10.35 11 -8.7 11 -7 11 C-7 11.66 -7 12.32 -7 13 C-8.99954746 13.04254356 -11.00041636 13.04080783 -13 13 C-14 12 -14 12 -14.09765625 10.15234375 C-14.06510417 8.1015625 -14.03255208 6.05078125 -14 4 C-10.7169902 2.3584951 -7.57454967 3.48111376 -4 4 C-4 3.34 -4 2.68 -4 2 C-7.63 2 -11.26 2 -15 2 C-15 9.59 -15 17.18 -15 25 C-11.37 25 -7.74 25 -4 25 C-4 24.34 -4 23.68 -4 23 C-3.01 23 -2.02 23 -1 23 C-1.00523682 22.44538086 -1.01047363 21.89076172 -1.01586914 21.31933594 C-1.03671031 18.79623557 -1.04968282 16.27315336 -1.0625 13.75 C-1.07087891 12.87730469 -1.07925781 12.00460938 -1.08789062 11.10546875 C-1.09111328 10.26113281 -1.09433594 9.41679688 -1.09765625 8.546875 C-1.10289307 7.77182617 -1.10812988 6.99677734 -1.11352539 6.19824219 C-1.00036998 4.00716402 -0.60552448 2.10362139 0 0 Z " fill="#090DB8" transform="translate(189,55)"/>
<path d="M0 0 C0 0.66 0 1.32 0 2 C-0.66 2 -1.32 2 -2 2 C-1.95875 3.11375 -1.9175 4.2275 -1.875 5.375 C-2 9 -2 9 -4 11 C-4.99 11.33 -5.98 11.66 -7 12 C-6.67 13.32 -6.34 14.64 -6 16 C1.92 16.33 9.84 16.66 18 17 C18 19.31 18 21.62 18 24 C5.46 24 -7.08 24 -20 24 C-20 21.03 -20 18.06 -20 15 C-19.01 14.67 -18.02 14.34 -17 14 C-16.67 13.01 -16.34 12.02 -16 11 C-14.36328125 9.5703125 -14.36328125 9.5703125 -12.3125 8.125 C-9.65148364 6.21403672 -7.09772261 4.27413175 -4.625 2.125 C-2 0 -2 0 0 0 Z " fill="#F70404" transform="translate(205,25)"/>
<path d="M0 0 C5.94 0 11.88 0 18 0 C17.67 8.58 17.34 17.16 17 26 C20.11332248 25.33131686 20.11332248 25.33131686 21.1875 22.9375 C21.455625 22.298125 21.72375 21.65875 22 21 C22.66 21.33 23.32 21.66 24 22 C24.33 22.99 24.66 23.98 25 25 C28.96 25 32.92 25 37 25 C37.495 23.515 37.495 23.515 38 22 C38.66 23.32 39.32 24.64 40 26 C43.63 25.67 47.26 25.34 51 25 C51.495 23.515 51.495 23.515 52 22 C52.66 22 53.32 22 54 22 C54.33 21.34 54.66 20.68 55 20 C54.67 21.98 54.34 23.96 54 26 C55.32 25.67 56.64 25.34 58 25 C58.33 23.35 58.66 21.7 59 20 C59.99 20.33 60.98 20.66 62 21 C62.495 24.465 62.495 24.465 63 28 C44.19 28 25.38 28 6 28 C6.33 27.34 6.66 26.68 7 26 C9.31 26 11.62 26 14 26 C13.54655971 23.6239729 13.08740741 21.24928419 12.625 18.875 C12.49867188 18.20984375 12.37234375 17.5446875 12.2421875 16.859375 C11.44321011 12.7845903 10.53597847 8.86321858 9 5 C6.99863756 3.57944932 6.99863756 3.57944932 5 3 C5 4.65 5 6.3 5 8 C4.01 8.33 3.02 8.66 2 9 C2.33 9.33 2.66 9.66 3 10 C3.23728814 16.52542373 3.23728814 16.52542373 2 19 C1.34 19 0.68 19 0 19 C0 12.73 0 6.46 0 0 Z " fill="#0305E0" transform="translate(218,55)"/>
<path d="M0 0 C2.64 0 5.28 0 8 0 C8.08694042 4.10403363 8.14037149 8.20783129 8.1875 12.3125 C8.21263672 13.47974609 8.23777344 14.64699219 8.26367188 15.84960938 C8.27333984 16.96787109 8.28300781 18.08613281 8.29296875 19.23828125 C8.3086792 20.26993408 8.32438965 21.30158691 8.34057617 22.36450195 C8 25 8 25 6.69140625 26.84179688 C3.88996902 28.76010205 1.12996844 28.27880647 -2.1875 28.1875 C-4.09595703 28.14689453 -4.09595703 28.14689453 -6.04296875 28.10546875 C-7.01878906 28.07066406 -7.99460938 28.03585938 -9 28 C-8.47706548 22.1431334 -7.36818784 17.39946827 -5 12 C-4.34 11.67 -3.68 11.34 -3 11 C-0.75781281 7.57077253 -0.46263302 4.00948613 0 0 Z " fill="#0101F7" transform="translate(141,55)"/>
<path d="M0 0 C1.32 0 2.64 0 4 0 C4 5.61 4 11.22 4 17 C4.66 17 5.32 17 6 17 C5.97679687 16.10796875 5.95359375 15.2159375 5.9296875 14.296875 C5.91164062 13.12640625 5.89359375 11.9559375 5.875 10.75 C5.85179687 9.58984375 5.82859375 8.4296875 5.8046875 7.234375 C5.9896051 4.17213954 6.39176977 2.55797249 8 0 C10.31 0 12.62 0 15 0 C15 0.33 15 0.66 15 1 C14.030625 1.268125 13.06125 1.53625 12.0625 1.8125 C11.051875 2.204375 10.04125 2.59625 9 3 C7.88916499 6.33250502 7.83240415 8.93038958 7.8125 12.4375 C7.79123047 14.13712891 7.79123047 14.13712891 7.76953125 15.87109375 C7.98928865 18.85457979 8.44156614 20.49295423 10 23 C11.98 23 13.96 23 16 23 C16.33 21.68 16.66 20.36 17 19 C16.34 19.99 15.68 20.98 15 22 C12.5625 21.625 12.5625 21.625 10 21 C8.58306243 18.16612485 8.8300987 15.71970627 8.8125 12.5625 C8.79832031 11.40878906 8.78414063 10.25507812 8.76953125 9.06640625 C9 6 9 6 11 3 C12.65 3.33 14.3 3.66 16 4 C16 4.99 16 5.98 16 7 C16.66 6.67 17.32 6.34 18 6 C18.33 5.01 18.66 4.02 19 3 C19.33 4.65 19.66 6.3 20 8 C17.6875 8.1875 17.6875 8.1875 15 8 C14.01 7.01 13.02 6.02 12 5 C12 9.62 12 14.24 12 19 C12.99 19 13.98 19 15 19 C15 18.01 15 17.02 15 16 C17.64 15.34 20.28 14.68 23 14 C23.99 9.38 24.98 4.76 26 0 C28.475 0.495 28.475 0.495 31 1 C31 4.3 31 7.6 31 11 C30.34 9.68 29.68 8.36 29 7 C28.67 6.67 28.34 6.34 28 6 C27.30546362 8.81093478 26.61908651 11.623425 25.9375 14.4375 C25.73833984 15.23994141 25.53917969 16.04238281 25.33398438 16.86914062 C24.84492625 18.90259282 24.41742276 20.95064305 24 23 C24.33 23.33 24.66 23.66 25 24 C25.12117188 23.22914062 25.24234375 22.45828125 25.3671875 21.6640625 C25.53476562 20.66117188 25.70234375 19.65828125 25.875 18.625 C26.03742188 17.62726563 26.19984375 16.62953125 26.3671875 15.6015625 C27 13 27 13 29 11 C29.52955234 12.78910903 30.0483937 14.58139148 30.5625 16.375 C30.85253906 17.37273437 31.14257812 18.37046875 31.44140625 19.3984375 C32 22 32 22 31 24 C30.71125 23.360625 30.4225 22.72125 30.125 22.0625 C29.17176549 19.84793921 29.17176549 19.84793921 27 19 C27 20.65 27 22.3 27 24 C25.35 24.33 23.7 24.66 22 25 C22 23.68 22 22.36 22 21 C21.34 21 20.68 21 20 21 C19.67 22.32 19.34 23.64 19 25 C17.20906809 25.08086147 15.41710372 25.13912702 13.625 25.1875 C12.12839844 25.23970703 12.12839844 25.23970703 10.6015625 25.29296875 C9.74304688 25.19628906 8.88453125 25.09960938 8 25 C7.34 24.01 6.68 23.02 6 22 C5.67 22.66 5.34 23.32 5 24 C4.34 24 3.68 24 3 24 C3 16.41 3 8.82 3 1 C2.34 1 1.68 1 1 1 C1 8.59 1 16.18 1 24 C0.67 24 0.34 24 0 24 C0 16.08 0 8.16 0 0 Z " fill="#0B0FB9" transform="translate(250,56)"/>
<path d="M0 0 C5.61 0 11.22 0 17 0 C17 6.93 17 13.86 17 21 C16.34 21.33 15.68 21.66 15 22 C12.90649311 18.5980513 12.82057837 15.94727588 13 12 C12.34 12 11.68 12 11 12 C10.505 7.05 10.505 7.05 10 2 C8.68 1.67 7.36 1.34 6 1 C5.97873047 2.10408203 5.97873047 2.10408203 5.95703125 3.23046875 C5.56771141 11.19574216 5.56771141 11.19574216 2.75 15.1875 C-0.20339991 17.13405903 -1.54474753 17.4936075 -5 17 C-5 17.99 -5 18.98 -5 20 C-5.99 20 -6.98 20 -8 20 C-8 15.38 -8 10.76 -8 6 C-7.01 6.33 -6.02 6.66 -5 7 C-4.3125 9.0625 -4.3125 9.0625 -4 11 C-2.68 10.67 -1.36 10.34 0 10 C0 6.7 0 3.4 0 0 Z " fill="#0102F6" transform="translate(270,55)"/>
<path d="M0 0 C0.99 0 1.98 0 3 0 C3.25 5.625 3.25 5.625 1 9 C12.19573244 9.02312269 23.39145924 9.04091471 34.58721066 9.05181217 C39.78528115 9.05704116 44.98333536 9.0641391 50.18139648 9.07543945 C55.19342268 9.08626776 60.20543318 9.09227671 65.21747017 9.09487724 C67.13412282 9.09673159 69.05077457 9.1003524 70.96742058 9.10573006 C73.64228072 9.11293975 76.31707514 9.11399097 78.99194336 9.11352539 C80.19279572 9.1189183 80.19279572 9.1189183 81.41790771 9.12442017 C85.00509902 9.45423821 85.00509902 9.45423821 88 8 C90.53049402 7.92686433 93.03304837 7.90752473 95.5625 7.9375 C96.62887695 7.94426758 96.62887695 7.94426758 97.71679688 7.95117188 C99.47790013 7.96299136 101.23896036 7.98092737 103 8 C102.67 7.01 102.34 6.02 102 5 C102.66 5 103.32 5 104 5 C104.33 6.32 104.66 7.64 105 9 C107.64 9.33 110.28 9.66 113 10 C113.185625 8.576875 113.185625 8.576875 113.375 7.125 C114 4 114 4 116 2 C115.51421457 5.12290635 115.0013988 7.99580359 114 11 C98.73390323 11.02352545 83.4678073 11.04107446 68.2016964 11.05181217 C61.11085778 11.0569339 54.02003053 11.06389635 46.92919922 11.07543945 C40.73743322 11.08551403 34.54567547 11.09188327 28.35390151 11.09408849 C25.08578004 11.0953743 21.81768716 11.0988745 18.54957199 11.10573006 C3.00122744 11.13700926 -12.47488378 10.87643288 -28 10 C-27.67 9.34 -27.34 8.68 -27 8 C-25.41058594 8.03480469 -25.41058594 8.03480469 -23.7890625 8.0703125 C-22.4010487 8.08906944 -21.0130273 8.10726972 -19.625 8.125 C-18.92632812 8.14175781 -18.22765625 8.15851563 -17.5078125 8.17578125 C-15.67102514 8.19344267 -13.83398037 8.10303261 -12 8 C-11.34 7.34 -10.68 6.68 -10 6 C-7.3984375 5.8046875 -7.3984375 5.8046875 -4.375 5.875 C-2.87066406 5.90207031 -2.87066406 5.90207031 -1.3359375 5.9296875 C-0.56507813 5.95289062 0.20578125 5.97609375 1 6 C1.33 4.35 1.66 2.7 2 1 C1.34 0.67 0.68 0.34 0 0 Z " fill="#0507BC" transform="translate(198,73)"/>
<path d="M0 0 C0.99 0 1.98 0 3 0 C3.33 0.99 3.66 1.98 4 3 C6.97 3.495 6.97 3.495 10 4 C10.33 8.62 10.66 13.24 11 18 C11.99 18.33 12.98 18.66 14 19 C14 16.03 14 13.06 14 10 C15.98 10 17.96 10 20 10 C20.33 13.96 20.66 17.92 21 22 C15.72 22 10.44 22 5 22 C5.66 20.68 6.32 19.36 7 18 C7.38290462 16.00889599 7.72604615 14.00899487 8 12 C7.01 12 6.02 12 5 12 C5 13.32 5 14.64 5 16 C2.5625 15.625 2.5625 15.625 0 15 C-1.30459914 12.39080172 -1.1326594 10.41057385 -1.125 7.5 C-1.12757813 6.5203125 -1.13015625 5.540625 -1.1328125 4.53125 C-1 2 -1 2 0 0 Z " fill="#0407D6" transform="translate(193,61)"/>
<path d="M0 0 C2.58203125 0.2734375 2.58203125 0.2734375 3.58203125 1.2734375 C5.03229253 10.09667116 4.63258982 19.09999977 4.4609375 28.00390625 C4.4365754 29.49033287 4.41273515 30.97676813 4.38938904 32.46321106 C4.32715274 36.3380431 4.25792167 40.21271835 4.18713379 44.08740234 C4.11589713 48.0562437 4.05141366 52.02519448 3.98632812 55.99414062 C3.85809753 63.75402744 3.72246248 71.51376086 3.58203125 79.2734375 C2.59203125 79.2734375 1.60203125 79.2734375 0.58203125 79.2734375 C0.29328125 78.5309375 0.00453125 77.7884375 -0.29296875 77.0234375 C-1.24099519 74.70603953 -2.26642786 72.49426635 -3.41796875 70.2734375 C-1.43796875 69.7784375 -1.43796875 69.7784375 0.58203125 69.2734375 C0.91203125 47.1634375 1.24203125 25.0534375 1.58203125 2.2734375 C-1.71796875 2.2734375 -5.01796875 2.2734375 -8.41796875 2.2734375 C-9.07796875 4.2534375 -9.73796875 6.2334375 -10.41796875 8.2734375 C-12.06796875 8.6034375 -13.71796875 8.9334375 -15.41796875 9.2734375 C-14.81253327 7.91120767 -14.12682769 6.58482654 -13.41796875 5.2734375 C-12.96421875 4.3659375 -12.51046875 3.4584375 -12.04296875 2.5234375 C-8.22370051 -0.75022099 -4.87947929 -0.15340564 0 0 Z " fill="#1412AF" transform="translate(117.41796875,4.7265625)"/>
<path d="M0 0 C0.33 0 0.66 0 1 0 C0.67 3.3 0.34 6.6 0 10 C-0.66 10 -1.32 10 -2 10 C-2 10.99 -2 11.98 -2 13 C-2.66 13 -3.32 13 -4 13 C-4 14.98 -4 16.96 -4 19 C-2.35 19 -0.7 19 1 19 C1.33 17.68 1.66 16.36 2 15 C2.66 15 3.32 15 4 15 C4 13.02 4 11.04 4 9 C5.65 8.34 7.3 7.68 9 7 C7.5250853 10.81415874 6.04436147 14.62603538 4.5625 18.4375 C4.14162109 19.52611328 3.72074219 20.61472656 3.28710938 21.73632812 C2.68286133 23.28803711 2.68286133 23.28803711 2.06640625 24.87109375 C1.69459229 25.82943115 1.32277832 26.78776855 0.93969727 27.77514648 C0 30 0 30 -1 31 C-2.68608966 31.07205511 -4.37500659 31.08386068 -6.0625 31.0625 C-6.98160156 31.05347656 -7.90070313 31.04445313 -8.84765625 31.03515625 C-9.55792969 31.02355469 -10.26820313 31.01195313 -11 31 C-12.15774161 28.1733062 -12.0053342 27.01583258 -11.01196289 24.06738281 C-10.2500061 22.4020752 -10.2500061 22.4020752 -9.47265625 20.703125 C-9.20488876 20.10949158 -8.93712128 19.51585815 -8.66123962 18.90423584 C-7.80578066 17.01436281 -6.93445593 15.13230993 -6.0625 13.25 C-5.47875562 11.96793097 -4.89606073 10.68538354 -4.31445312 9.40234375 C-2.88657103 6.26336327 -1.44809961 3.12969223 0 0 Z " fill="#F20506" transform="translate(239,20)"/>
<path d="M0 0 C0.99 0.33 1.98 0.66 3 1 C2.67 8.92 2.34 16.84 2 25 C2.99 25 3.98 25 5 25 C5 19.72 5 14.44 5 9 C7.95847985 11.95847985 9.34210853 14.21053378 11 18 C11 18.99 11 19.98 11 21 C12.65 20.34 14.3 19.68 16 19 C16.33 21.97 16.66 24.94 17 28 C10.4 28 3.8 28 -3 28 C-2.34 27.67 -1.68 27.34 -1 27 C-0.67 18.09 -0.34 9.18 0 0 Z " fill="#0103EB" transform="translate(149,55)"/>
<path d="M0 0 C0.99 0 1.98 0 3 0 C2.773125 0.928125 2.54625 1.85625 2.3125 2.8125 C1.63680017 5.96826848 1.63680017 5.96826848 3.4375 7.875 C3.953125 8.24625 4.46875 8.6175 5 9 C6.32 8.01 7.64 7.02 9 6 C6.91184971 17.05491329 6.91184971 17.05491329 4 21 C1.08074312 22.37132352 -1.86798022 23.25146697 -5 24 C-6.5625 22.8125 -6.5625 22.8125 -8 21 C-7.8055183 16.30707207 -5.3449173 11.91403458 -3.4375 7.6875 C-2.9434668 6.57665039 -2.9434668 6.57665039 -2.43945312 5.44335938 C-1.63082877 3.62688438 -0.81602884 1.81316069 0 0 Z " fill="#ED0809" transform="translate(148,29)"/>
<path d="M0 0 C3.3 0 6.6 0 10 0 C10.33 5.94 10.66 11.88 11 18 C6.71 18 2.42 18 -2 18 C-2.09765625 11.84765625 -2.09765625 11.84765625 -2 10 C-1 9 -1 9 2.0625 8.9375 C3.5165625 8.9684375 3.5165625 8.9684375 5 9 C5 8.01 5 7.02 5 6 C3.35 6 1.7 6 0 6 C0 4.02 0 2.04 0 0 Z " fill="#0303EE" transform="translate(177,60)"/>
<path d="M0 0 C5.94 0 11.88 0 18 0 C17.67 0.66 17.34 1.32 17 2 C16.84932786 3.4465242 16.75138964 4.8987934 16.68359375 6.3515625 C16.64169922 7.20234375 16.59980469 8.053125 16.55664062 8.9296875 C16.51732422 9.81914063 16.47800781 10.70859375 16.4375 11.625 C16.39431641 12.5221875 16.35113281 13.419375 16.30664062 14.34375 C16.20043139 16.56234283 16.09838806 18.7810488 16 21 C15.01 20.67 14.02 20.34 13 20 C12.33984375 18.14453125 12.33984375 18.14453125 11.9375 15.8125 C11.77894531 15.00296875 11.62039062 14.1934375 11.45703125 13.359375 C11.30621094 12.58078125 11.15539062 11.8021875 11 11 C10.02613508 6.54654084 10.02613508 6.54654084 6.875 3.625 C6.25625 3.41875 5.6375 3.2125 5 3 C5 4.65 5 6.3 5 8 C4.01 8.33 3.02 8.66 2 9 C2.33 9.33 2.66 9.66 3 10 C3.23728814 16.52542373 3.23728814 16.52542373 2 19 C1.34 19 0.68 19 0 19 C0 12.73 0 6.46 0 0 Z " fill="#0302F3" transform="translate(218,55)"/>
<path d="M0 0 C2.475 0.495 2.475 0.495 5 1 C5.33 3.31 5.66 5.62 6 8 C6.99 8 7.98 8 9 8 C9 5.36 9 2.72 9 0 C10.32 0 11.64 0 13 0 C13 8.25 13 16.5 13 25 C11.35 25 9.7 25 8 25 C6.1875 23 6.1875 23 5 21 C4.34 22.32 3.68 23.64 3 25 C2.01 25 1.02 25 0 25 C0 16.75 0 8.5 0 0 Z M1 1 C1 8.59 1 16.18 1 24 C1.33 24 1.66 24 2 24 C2 18.72 2 13.44 2 8 C2.66 8 3.32 8 4 8 C4.19335938 8.65226562 4.38671875 9.30453125 4.5859375 9.9765625 C5.98640448 14.6771398 7.41208726 19.35840891 9 24 C9.99 24 10.98 24 12 24 C12 16.41 12 8.82 12 1 C11.34 1 10.68 1 10 1 C9.67 6.28 9.34 11.56 9 17 C7.02 11.72 5.04 6.44 3 1 C2.34 1 1.68 1 1 1 Z " fill="#0D12B2" transform="translate(235,56)"/>
<path d="M0 0 C1.4800841 0.11362262 2.95910074 0.24122908 4.4375 0.375 C5.26121094 0.44460937 6.08492187 0.51421875 6.93359375 0.5859375 C7.61550781 0.72257812 8.29742187 0.85921875 9 1 C9.33 1.66 9.66 2.32 10 3 C7.03 3 4.06 3 1 3 C0.94583259 5.72943537 0.90624775 8.45778564 0.875 11.1875 C0.85824219 11.95642578 0.84148437 12.72535156 0.82421875 13.51757812 C0.78733149 17.8149434 1.0041496 21.07901831 3 25 C2.195625 25.144375 1.39125 25.28875 0.5625 25.4375 C-1.92103706 25.74135249 -1.92103706 25.74135249 -3 27 C-4.99799572 27.09873816 -6.99957158 27.12971799 -9 27.125 C-10.093125 27.12757812 -11.18625 27.13015625 -12.3125 27.1328125 C-15 27 -15 27 -16 26 C-16.08737645 24.14630389 -16.10698153 22.28932459 -16.09765625 20.43359375 C-16.09443359 19.30888672 -16.09121094 18.18417969 -16.08789062 17.02539062 C-16.07951172 15.84138672 -16.07113281 14.65738281 -16.0625 13.4375 C-16.05798828 12.24962891 -16.05347656 11.06175781 -16.04882812 9.83789062 C-16.03699686 6.89190588 -16.01906076 3.94594684 -16 1 C-11.71 1 -7.42 1 -3 1 C-3 2.32 -3 3.64 -3 5 C-5.97 5 -8.94 5 -12 5 C-12 6.98 -12 8.96 -12 11 C-10.35 11 -8.7 11 -7 11 C-7 11.66 -7 12.32 -7 13 C-8.99954746 13.04254356 -11.00041636 13.04080783 -13 13 C-14 12 -14 12 -14.09765625 10.15234375 C-14.06510417 8.1015625 -14.03255208 6.05078125 -14 4 C-10.7169902 2.3584951 -7.57454967 3.48111376 -4 4 C-4 3.34 -4 2.68 -4 2 C-7.63 2 -11.26 2 -15 2 C-15 9.59 -15 17.18 -15 25 C-11.37 25 -7.74 25 -4 25 C-4 24.34 -4 23.68 -4 23 C-3.01 23 -2.02 23 -1 23 C-1.00523682 22.44538086 -1.01047363 21.89076172 -1.01586914 21.31933594 C-1.03671031 18.79623557 -1.04968282 16.27315336 -1.0625 13.75 C-1.07087891 12.87730469 -1.07925781 12.00460938 -1.08789062 11.10546875 C-1.09111328 10.26113281 -1.09433594 9.41679688 -1.09765625 8.546875 C-1.10289307 7.77182617 -1.10812988 6.99677734 -1.11352539 6.19824219 C-1.00036998 4.00716402 -0.60552448 2.10362139 0 0 Z " fill="#0B10BC" transform="translate(189,55)"/>
<path d="M0 0 C3.60374463 -0.14500644 7.20674242 -0.23396763 10.8125 -0.3125 C11.83666016 -0.35439453 12.86082031 -0.39628906 13.91601562 -0.43945312 C16.69738059 -0.48504927 19.26061075 -0.48928005 22 0 C24.19921875 2.51953125 24.19921875 2.51953125 25 5 C24 6 24 6 21.68334961 6.11352539 C20.68311768 6.10828857 19.68288574 6.10305176 18.65234375 6.09765625 C17.57275391 6.09443359 16.49316406 6.09121094 15.38085938 6.08789062 C14.24455078 6.07951172 13.10824219 6.07113281 11.9375 6.0625 C10.79732422 6.05798828 9.65714844 6.05347656 8.48242188 6.04882812 C5.65489649 6.03699747 2.8274736 6.0205141 0 6 C0 4.02 0 2.04 0 0 Z " fill="#FA0203" transform="translate(186,7)"/>
<path d="M0 0 C1.32 0 2.64 0 4 0 C4.33 3.3 4.66 6.6 5 10 C7.475 10.495 7.475 10.495 10 11 C10 11.33 10 11.66 10 12 C8.00045254 12.04254356 5.99958364 12.04080783 4 12 C3.67 11.67 3.34 11.34 3 11 C2.67 15.29 2.34 19.58 2 24 C1.34 23.67 0.68 23.34 0 23 C0 18.38 0 13.76 0 9 C-1.98 9 -3.96 9 -6 9 C-6.33 7.68 -6.66 6.36 -7 5 C-7.99 5 -8.98 5 -10 5 C-10.02693575 7.12493141 -10.04636628 9.24995912 -10.0625 11.375 C-10.07410156 12.55835937 -10.08570313 13.74171875 -10.09765625 14.9609375 C-10.21466593 17.91921521 -10.21466593 17.91921521 -9 20 C-8.01 20.66 -7.02 21.32 -6 22 C-8.4375 21.625 -8.4375 21.625 -11 21 C-12.48520725 18.02958551 -12.1705822 15.30235553 -12.1875 12 C-12.20167969 10.741875 -12.21585938 9.48375 -12.23046875 8.1875 C-12 5 -12 5 -10 3 C-7.375 3.375 -7.375 3.375 -5 4 C-5 4.99 -5 5.98 -5 7 C-4.34 7 -3.68 7 -3 7 C-3.33 5.35 -3.66 3.7 -4 2 C-3.01 2.33 -2.02 2.66 -1 3 C-0.67 2.01 -0.34 1.02 0 0 Z " fill="#0F15AC" transform="translate(203,56)"/>
<path d="M0 0 C1.29997925 0.00303635 1.29997925 0.00303635 2.6262207 0.00613403 C3.51027588 0.00517731 4.39433105 0.00422058 5.30517578 0.00323486 C7.178142 0.00255302 9.05111056 0.0044076 10.92407227 0.00857544 C13.80140458 0.01392364 16.67858078 0.0086306 19.5559082 0.00222778 C21.37101272 0.00288856 23.18611713 0.00416972 25.0012207 0.00613403 C25.86787354 0.0041098 26.73452637 0.00208557 27.62744141 0 C33.69877061 0.02399644 33.69877061 0.02399644 34.8137207 1.13894653 C35.39584045 5.28654975 35.69969146 7.76617866 33.3918457 11.34207153 C30.46729656 14.71655131 27.44109324 17.53076938 23.8137207 20.13894653 C24.6262207 17.70144653 24.6262207 17.70144653 25.8137207 15.13894653 C26.8037207 14.80894653 27.7937207 14.47894653 28.8137207 14.13894653 C28.8137207 13.14894653 28.8137207 12.15894653 28.8137207 11.13894653 C29.8037207 10.80894653 30.7937207 10.47894653 31.8137207 10.13894653 C32.1437207 7.16894653 32.4737207 4.19894653 32.8137207 1.13894653 C20.2737207 1.13894653 7.7337207 1.13894653 -5.1862793 1.13894653 C-4.8562793 3.44894653 -4.5262793 5.75894653 -4.1862793 8.13894653 C3.0737207 8.46894653 10.3337207 8.79894653 17.8137207 9.13894653 C17.8137207 9.46894653 17.8137207 9.79894653 17.8137207 10.13894653 C14.02211773 10.19681321 10.23062759 10.23249707 6.4387207 10.26394653 C4.81836914 10.28908325 4.81836914 10.28908325 3.1652832 10.31472778 C2.1340332 10.3211731 1.1027832 10.32761841 0.0402832 10.33425903 C-1.38936768 10.34996948 -1.38936768 10.34996948 -2.84790039 10.36599731 C-5.1862793 10.13894653 -5.1862793 10.13894653 -7.1862793 8.13894653 C-7.3737793 4.57644653 -7.3737793 4.57644653 -7.1862793 1.13894653 C-5.29004728 -0.75728549 -2.5225757 0.00997028 0 0 Z " fill="#AD2826" transform="translate(190.186279296875,4.861053466796875)"/>
<path d="M0 0 C1.47906892 -0.02689216 2.95827483 -0.04634621 4.4375 -0.0625 C5.26121094 -0.07410156 6.08492188 -0.08570313 6.93359375 -0.09765625 C9 0 9 0 10 1 C10.08847743 3.52094076 10.11527301 6.01430893 10.09765625 8.53515625 C10.0962413 9.28840683 10.09482635 10.04165741 10.09336853 10.81773376 C10.08775376 13.2326956 10.07519883 15.64756601 10.0625 18.0625 C10.0574869 19.69596221 10.05292366 21.32942586 10.04882812 22.96289062 C10.03862875 26.9753243 10.01905645 30.98755936 10 35 C19.9 35 29.8 35 40 35 C39.67 35.99 39.34 36.98 39 38 C34.88806264 37.88201748 30.77636712 37.75778941 26.66479492 37.62768555 C25.26510801 37.58428566 23.86536641 37.54261436 22.46557617 37.50268555 C20.45738505 37.44510555 18.44938851 37.38086 16.44140625 37.31640625 C15.23170166 37.27974854 14.02199707 37.24309082 12.77563477 37.20532227 C10 37 10 37 9 36 C8.84003834 33.40846893 8.74061303 30.8404798 8.68359375 28.24609375 C8.66281265 27.47064713 8.64203156 26.6952005 8.62062073 25.89625549 C8.55504198 23.41009692 8.49620201 20.92382955 8.4375 18.4375 C8.39432267 16.75584796 8.35070864 15.07420706 8.30664062 13.39257812 C8.19935221 9.26183129 8.09810868 5.13097464 8 1 C5.36 1 2.72 1 0 1 C0 0.67 0 0.34 0 0 Z " fill="#C82222" transform="translate(271,5)"/>
<path d="M0 0 C0.66 0 1.32 0 2 0 C2 12.21 2 24.42 2 37 C2.66 37 3.32 37 4 37 C5.06775224 38.96466413 6.06553465 40.96855359 7 43 C6.67 43.66 6.34 44.32 6 45 C4.5 43.625 4.5 43.625 3 42 C3 41.34 3 40.68 3 40 C2.34 40 1.68 40 1 40 C-0.70174396 34.89186412 -1.22990634 30.49327782 -0.9765625 25.09765625 C-0.93902359 24.01380898 -0.93902359 24.01380898 -0.90072632 22.9080658 C-0.81929136 20.62567738 -0.7224141 18.3442565 -0.625 16.0625 C-0.56668185 14.50459538 -0.50938041 12.94665235 -0.453125 11.38867188 C-0.31382856 7.5919028 -0.16069072 3.79592133 0 0 Z " fill="#261EB6" transform="translate(107,30)"/>
<path d="M0 0 C0.99 0 1.98 0 3 0 C4.53356101 3.28588457 6.04964438 6.57953739 7.5625 9.875 C8.00013672 10.81214844 8.43777344 11.74929687 8.88867188 12.71484375 C9.29794922 13.61074219 9.70722656 14.50664062 10.12890625 15.4296875 C10.51119385 16.25710449 10.89348145 17.08452148 11.28735352 17.93701172 C11.52252686 18.61779785 11.7577002 19.29858398 12 20 C11.67 20.66 11.34 21.32 11 22 C10.04078278 20.25048432 9.08266183 18.50036756 8.125 16.75 C7.32449219 15.28820312 7.32449219 15.28820312 6.5078125 13.796875 C5.29580534 11.54869592 4.12452433 9.2927195 3 7 C2.01 7.33 1.02 7.66 0 8 C-0.33 9.65 -0.66 11.3 -1 13 C-1.66 13 -2.32 13 -3 13 C-3 13.66 -3 14.32 -3 15 C-3.99 15 -4.98 15 -6 15 C-4.36041242 9.76727367 -2.61047965 4.84803364 0 0 Z " fill="#C61919" transform="translate(246,5)"/>
<path d="M0 0 C0 3.10551666 -0.5393715 4.35261084 -2 7 C-2.66 7 -3.32 7 -4 7 C-3.67 7.99 -3.34 8.98 -3 10 C-4.3125 12 -4.3125 12 -6 14 C-6.99 15.485 -6.99 15.485 -8 17 C-9.32 17 -10.64 17 -12 17 C-12.33 17.99 -12.66 18.98 -13 20 C-12.34 20 -11.68 20 -11 20 C-11 22.31 -11 24.62 -11 27 C-13.5625 24.8125 -13.5625 24.8125 -16 22 C-15.78784187 17.78421272 -14.21823118 15.68990822 -11.375 12.6875 C-10.66085938 11.91921875 -9.94671875 11.1509375 -9.2109375 10.359375 C-8.48132813 9.58078125 -7.75171875 8.8021875 -7 8 C-5.66034375 6.48473338 -4.32648445 4.96431067 -3 3.4375 C-2.4225 2.77621094 -1.845 2.11492188 -1.25 1.43359375 C-0.8375 0.96050781 -0.425 0.48742188 0 0 Z " fill="#0D0ACD" transform="translate(101,14)"/>
<path d="M0 0 C3.07618481 3.63463066 4.81059997 7.67411767 6.6875 12 C7.00783203 12.7115625 7.32816406 13.423125 7.65820312 14.15625 C7.96048828 14.8471875 8.26277344 15.538125 8.57421875 16.25 C8.84838623 16.87390625 9.12255371 17.4978125 9.4050293 18.140625 C10 20 10 20 10 24 C6.37 24 2.74 24 -1 24 C-1.66 22.35 -2.32 20.7 -3 19 C1.95 19.99 1.95 19.99 7 21 C6.01 18.03 5.02 15.06 4 12 C3.34 12 2.68 12 2 12 C0.86235649 7.73383684 0 4.43513689 0 0 Z " fill="#D01714" transform="translate(258,27)"/>
<path d="M0 0 C1.3921875 0.2784375 1.3921875 0.2784375 2.8125 0.5625 C6.01343771 1.24123881 6.01343771 1.24123881 9 0 C9.33 2.97 9.66 5.94 10 9 C6.37 9 2.74 9 -1 9 C-0.67 6.03 -0.34 3.06 0 0 Z " fill="#0302F3" transform="translate(156,74)"/>
<path d="M0 0 C0.33 0 0.66 0 1 0 C1 6.93 1 13.86 1 21 C0.34 21.33 -0.32 21.66 -1 22 C-3.09350689 18.5980513 -3.17942163 15.94727588 -3 12 C-3.66 12 -4.32 12 -5 12 C-5 10.35 -5 8.7 -5 7 C-4.01 7 -3.02 7 -2 7 C-1.855625 6.030625 -1.71125 5.06125 -1.5625 4.0625 C-1 1 -1 1 0 0 Z " fill="#0304EA" transform="translate(286,55)"/>
<path d="M0 0 C4.29 0 8.58 0 13 0 C13 1.32 13 2.64 13 4 C10.03 4 7.06 4 4 4 C4 5.98 4 7.96 4 10 C5.65 10 7.3 10 9 10 C9 10.66 9 11.32 9 12 C7.00045254 12.04254356 4.99958364 12.04080783 3 12 C2 11 2 11 1.90234375 9.15234375 C1.93489583 7.1015625 1.96744792 5.05078125 2 3 C5.2830098 1.3584951 8.42545033 2.48111376 12 3 C12 2.34 12 1.68 12 1 C8.37 1 4.74 1 1 1 C1 8.59 1 16.18 1 24 C0.67 24 0.34 24 0 24 C0 16.08 0 8.16 0 0 Z " fill="#161EA8" transform="translate(173,56)"/>
<path d="M0 0 C1.485 0.99 1.485 0.99 3 2 C3.99 1.67 4.98 1.34 6 1 C8 2 8 2 9.125 5.0625 C9.41375 6.031875 9.7025 7.00125 10 8 C8.68 8 7.36 8 6 8 C6.33 8.99 6.66 9.98 7 11 C5.35 11 3.7 11 2 11 C2 10.34 2 9.68 2 9 C1.505 8.505 1.01 8.01 0.5 7.5 C0.005 7.005 -0.49 6.51 -1 6 C-1 5.34 -1 4.68 -1 4 C-0.34 4 0.32 4 1 4 C0.67 2.68 0.34 1.36 0 0 Z " fill="#FA0304" transform="translate(72,26)"/>
<path d="M0 0 C0.33 0 0.66 0 1 0 C1.25 6.625 1.25 6.625 -1 10 C1.97 10 4.94 10 8 10 C8.33 9.34 8.66 8.68 9 8 C8.78515625 9.890625 8.78515625 9.890625 8 12 C5.93359375 13.046875 5.93359375 13.046875 3.4375 13.75 C2.19806641 14.11351562 2.19806641 14.11351562 0.93359375 14.484375 C-0.02353516 14.73960938 -0.02353516 14.73960938 -1 15 C-2.5078125 13.640625 -2.5078125 13.640625 -4 12 C-3.76096832 7.69742971 -1.74989549 3.88020305 0 0 Z " fill="#CC171A" transform="translate(144,38)"/>
<path d="M0 0 C6.86689804 5.10615496 13.51087494 12.11235026 17 20 C16.05125 19.835 15.1025 19.67 14.125 19.5 C11.19831099 18.9473365 11.19831099 18.9473365 9 19 C9 16.69 9 14.38 9 12 C8.443125 11.79375 7.88625 11.5875 7.3125 11.375 C4.06346451 9.44314106 2.1961454 7.05020195 0 4 C0 2.68 0 1.36 0 0 Z " fill="#0B0CC4" transform="translate(21,9)"/>
<path d="M0 0 C0.66 0 1.32 0 2 0 C2.33 0.66 2.66 1.32 3 2 C6.02934491 2.65772428 6.02934491 2.65772428 9 3 C8.125 7.875 8.125 7.875 7 9 C5.33382885 9.04063832 3.66611905 9.042721 2 9 C2 9.99 2 10.98 2 12 C1.34 12 0.68 12 0 12 C0 8.04 0 4.08 0 0 Z " fill="#0102F6" transform="translate(194,62)"/>
<path d="M0 0 C10.89 0 21.78 0 33 0 C30.75 11.25 30.75 11.25 28.875 16.125 C28.52179688 17.05570313 28.16859375 17.98640625 27.8046875 18.9453125 C27.53914063 19.62335938 27.27359375 20.30140625 27 21 C25.92264994 17.76794982 26.07359577 16.66422565 26.8125 13.4375 C26.98394531 12.65246094 27.15539062 11.86742188 27.33203125 11.05859375 C28 9 28 9 30 7 C30.33 5.02 30.66 3.04 31 1 C15.655 1.495 15.655 1.495 0 2 C0 1.34 0 0.68 0 0 Z " fill="#0605CF" transform="translate(288,54)"/>
<path d="M0 0 C1.32 0 2.64 0 4 0 C4 7.92 4 15.84 4 24 C3.67 24 3.34 24 3 24 C3 16.41 3 8.82 3 1 C2.34 1 1.68 1 1 1 C1 6.61 1 12.22 1 18 C0.34 17.67 -0.32 17.34 -1 17 C-1.6328125 14.93359375 -1.6328125 14.93359375 -2.125 12.4375 C-2.29257813 11.61121094 -2.46015625 10.78492187 -2.6328125 9.93359375 C-2.75398437 9.29550781 -2.87515625 8.65742187 -3 8 C-2.01 8 -1.02 8 0 8 C0 5.36 0 2.72 0 0 Z " fill="#161D99" transform="translate(244,56)"/>
<path d="M0 0 C1.98 0 3.96 0 6 0 C5.67 3.96 5.34 7.92 5 12 C3.35 12 1.7 12 0 12 C0 8.04 0 4.08 0 0 Z " fill="#0204E6" transform="translate(208,55)"/>
<path d="M0 0 C0.99 0 1.98 0 3 0 C3.86366822 1.78710586 4.71568594 3.5798465 5.5625 5.375 C6.27599609 6.87160156 6.27599609 6.87160156 7.00390625 8.3984375 C7.33261719 9.25695313 7.66132813 10.11546875 8 11 C7.67 11.66 7.34 12.32 7 13 C6.5875 12.525625 6.175 12.05125 5.75 11.5625 C3.817815 9.83733482 2.51807725 9.43415125 0 9 C0 8.01 0 7.02 0 6 C-1.485 8.475 -1.485 8.475 -3 11 C-3.33 10.34 -3.66 9.68 -4 9 C-3.22265625 6.8359375 -3.22265625 6.8359375 -2.0625 4.375 C-1.68222656 3.55773437 -1.30195313 2.74046875 -0.91015625 1.8984375 C-0.60980469 1.27195312 -0.30945313 0.64546875 0 0 Z " fill="#C81515" transform="translate(159,5)"/>
<path d="M0 0 C3.77081722 -0.02899599 7.54160583 -0.04679729 11.3125 -0.0625 C12.38435547 -0.07087891 13.45621094 -0.07925781 14.56054688 -0.08789062 C16.10258789 -0.09272461 16.10258789 -0.09272461 17.67578125 -0.09765625 C18.62364502 -0.10289307 19.57150879 -0.10812988 20.5480957 -0.11352539 C23 0 23 0 26 1 C25.52753358 5.25219775 23.22727623 7.37314725 20 10 C18.68 9.67 17.36 9.34 16 9 C17.98 6.69 19.96 4.38 22 2 C14.74 1.67 7.48 1.34 0 1 C0 0.67 0 0.34 0 0 Z " fill="#D70D0A" transform="translate(186,13)"/>
<path d="M0 0 C2.52480693 2.52480693 2.55738633 4.13823034 3.125 7.625 C3.29257812 8.62789062 3.46015625 9.63078125 3.6328125 10.6640625 C3.75398438 11.43492188 3.87515625 12.20578125 4 13 C2 12 2 12 1 9 C0.34 8.67 -0.32 8.34 -1 8 C-1 9.65 -1 11.3 -1 13 C-2.65 13.33 -4.3 13.66 -6 14 C-5.88590407 12.54077307 -5.75834456 11.08259402 -5.625 9.625 C-5.55539062 8.81289062 -5.48578125 8.00078125 -5.4140625 7.1640625 C-5 5 -5 5 -3 3 C-3.12568359 3.95712891 -3.12568359 3.95712891 -3.25390625 4.93359375 C-3.40666016 6.17302734 -3.40666016 6.17302734 -3.5625 7.4375 C-3.66691406 8.26121094 -3.77132813 9.08492187 -3.87890625 9.93359375 C-3.91886719 10.61550781 -3.95882813 11.29742187 -4 12 C-3.67 12.33 -3.34 12.66 -3 13 C-2.86722656 12.22914062 -2.73445313 11.45828125 -2.59765625 10.6640625 C-2.33275391 9.15972656 -2.33275391 9.15972656 -2.0625 7.625 C-1.88847656 6.62726563 -1.71445312 5.62953125 -1.53515625 4.6015625 C-1 2 -1 2 0 0 Z " fill="#0E14A4" transform="translate(278,67)"/>
<path d="M0 0 C0 3.86695678 -1.41909971 6.5088452 -3 10 C-3.66 10 -4.32 10 -5 10 C-5 11.32 -5 12.64 -5 14 C-5.99 14.33 -6.98 14.66 -8 15 C-9.01866229 16.65532623 -10.01810813 18.32260138 -11 20 C-11.99 20.66 -12.98 21.32 -14 22 C-12.25 16.25 -12.25 16.25 -10 14 C-9.71382812 13.40703125 -9.42765625 12.8140625 -9.1328125 12.203125 C-7.69891005 9.41443195 -5.85564474 7.1778871 -3.875 4.75 C-3.15054688 3.85796875 -2.42609375 2.9659375 -1.6796875 2.046875 C-0.84824219 1.03367187 -0.84824219 1.03367187 0 0 Z " fill="#C7121A" transform="translate(50,22)"/>
<path d="M0 0 C0.99 0 1.98 0 3 0 C3.66 3.63 4.32 7.26 5 11 C-0.28 11 -5.56 11 -11 11 C-10.34 9.68 -9.68 8.36 -9 7 C-8.34 7 -7.68 7 -7 7 C-7 7.99 -7 8.98 -7 10 C-4.69 10 -2.38 10 0 10 C0 6.7 0 3.4 0 0 Z " fill="#0102F0" transform="translate(209,72)"/>
<path d="M0 0 C3.3 0 6.6 0 10 0 C10 0.99 10 1.98 10 3 C9.01 3.66 8.02 4.32 7 5 C6.27617533 7.05925139 6.27617533 7.05925139 6 9 C4.68 8.67 3.36 8.34 2 8 C1.34 5.36 0.68 2.72 0 0 Z " fill="#0203F4" transform="translate(156,55)"/>
<path d="M0 0 C4.59037956 1.14759489 5.33669182 2.29039218 8 6 C7.67 6.66 7.34 7.32 7 8 C6.7525 7.360625 6.505 6.72125 6.25 6.0625 C5.18437567 3.81258459 5.18437567 3.81258459 2.875 3.25 C1.946875 3.12625 1.946875 3.12625 1 3 C0.9175 3.763125 0.835 4.52625 0.75 5.3125 C0 8 0 8 -1.875 9.875 C-2.57625 10.24625 -3.2775 10.6175 -4 11 C-4.99 10.67 -5.98 10.34 -7 10 C-3.535 5.05 -3.535 5.05 0 0 Z " fill="#C81213" transform="translate(62,5)"/>
<path d="M0 0 C2.94678433 2.94678433 4.32041919 5.24093818 6 9 C6 9.66 6 10.32 6 11 C4.68 10.67 3.36 10.34 2 10 C2 12.31 2 14.62 2 17 C1.34 17.33 0.68 17.66 0 18 C-0.66 17.34 -1.32 16.68 -2 16 C-1.34 16 -0.68 16 0 16 C0 10.72 0 5.44 0 0 Z " fill="#1114B7" transform="translate(154,64)"/>
<path d="M0 0 C1.32 0.33 2.64 0.66 4 1 C4 1.66 4 2.32 4 3 C5.32 2.67 6.64 2.34 8 2 C8 2.66 8 3.32 8 4 C7.34 4 6.68 4 6 4 C6.26676204 5.98491642 6.26676204 5.98491642 7 8 C7.99 8.33 8.98 8.66 10 9 C10.12375 9.7425 10.2475 10.485 10.375 11.25 C10.95486701 13.80141485 11.73708739 15.7267573 13 18 C12.34 18 11.68 18 11 18 C9.76318359 16.56298828 9.76318359 16.56298828 8.3984375 14.5703125 C7.90859375 13.85746094 7.41875 13.14460938 6.9140625 12.41015625 C6.40617187 11.65605469 5.89828125 10.90195312 5.375 10.125 C4.859375 9.37863281 4.34375 8.63226563 3.8125 7.86328125 C0 2.265563 0 2.265563 0 0 Z " fill="#CB1418" transform="translate(65,26)"/>
<path d="M0 0 C0.66 0 1.32 0 2 0 C1.33501617 4.38889325 -0.18757677 7.9811485 -2 12 C-2.99 11.67 -3.98 11.34 -5 11 C-5.94921875 8.93359375 -5.94921875 8.93359375 -6.6875 6.4375 C-6.93886719 5.61121094 -7.19023437 4.78492188 -7.44921875 3.93359375 C-7.63097656 3.29550781 -7.81273437 2.65742187 -8 2 C-7.34 2 -6.68 2 -6 2 C-6 2.99 -6 3.98 -6 5 C-4.68 5.33 -3.36 5.66 -2 6 C-1.855625 5.195625 -1.71125 4.39125 -1.5625 3.5625 C-1 1 -1 1 0 0 Z " fill="#1112B3" transform="translate(164,58)"/>
<path d="M0 0 C0.66 0.33 1.32 0.66 2 1 C-0.64 7.6 -3.28 14.2 -6 21 C-6.33 21 -6.66 21 -7 21 C-6.85769192 19.58297487 -6.71099254 18.1663904 -6.5625 16.75 C-6.48128906 15.96109375 -6.40007812 15.1721875 -6.31640625 14.359375 C-6.02365007 12.17635361 -5.57935581 10.1226818 -5 8 C-4.34 8 -3.68 8 -3 8 C-3.061875 7.05125 -3.12375 6.1025 -3.1875 5.125 C-3.125625 4.09375 -3.06375 3.0625 -3 2 C-2.01 1.34 -1.02 0.68 0 0 Z " fill="#CF1A19" transform="translate(246,27)"/>
<path d="M0 0 C0.66 0.33 1.32 0.66 2 1 C0.68 3.64 -0.64 6.28 -2 9 C-2.66 9 -3.32 9 -4 9 C-4.061875 9.556875 -4.12375 10.11375 -4.1875 10.6875 C-5.52117079 14.48333226 -8.42340827 17.21170413 -12 19 C-10.42686828 14.27156386 -7.79358765 10.6566157 -4.875 6.6875 C-4.17310547 5.71973633 -4.17310547 5.71973633 -3.45703125 4.73242188 C-2.3094071 3.15151106 -1.15534523 1.57527699 0 0 Z " fill="#BF1519" transform="translate(34,44)"/>
<path d="M0 0 C0.66 0 1.32 0 2 0 C3.35386936 1.65002828 4.68678142 3.3174387 6 5 C6.66 5.33 7.32 5.66 8 6 C8 6.66 8 7.32 8 8 C12.65052872 8.26932521 12.65052872 8.26932521 17 7 C15.84826645 9.46800047 14.95216435 11.04783565 13 13 C11.171875 12.96875 11.171875 12.96875 9 12 C6.640625 9.53125 6.640625 9.53125 4.25 6.5 C3.45078125 5.4996875 2.6515625 4.499375 1.828125 3.46875 C0 1 0 1 0 0 Z " fill="#0E12B2" transform="translate(52,64)"/>
<path d="M0 0 C3.85550018 3.63635985 6.86741138 7.41691848 9.8125 11.8125 C10.21919922 12.40998047 10.62589844 13.00746094 11.04492188 13.62304688 C12.03479703 15.07874564 13.01809735 16.53891174 14 18 C13.67 18.66 13.34 19.32 13 20 C12.01 19.34 11.02 18.68 10 18 C10 17.01 10 16.02 10 15 C9.01 14.67 8.02 14.34 7 14 C3.0832188 9.88563637 1.22729936 5.46706081 0 0 Z " fill="#C41615" transform="translate(70,13)"/>
<path d="M0 0 C2.57227225 1.28613612 2.6410204 2.13490222 3.5625 4.8125 C5.36213313 10.44771484 5.71150608 16.12069291 6 22 C4.68 22 3.36 22 2 22 C2 20.35 2 18.7 2 17 C2.33 18.32 2.66 19.64 3 21 C3.66 21 4.32 21 5 21 C4.6390625 19.81921875 4.278125 18.6384375 3.90625 17.421875 C3.43721233 15.86466995 2.96847819 14.30737346 2.5 12.75 C2.26152344 11.97269531 2.02304688 11.19539063 1.77734375 10.39453125 C1.55175781 9.64042969 1.32617188 8.88632813 1.09375 8.109375 C0.77954102 7.07248535 0.77954102 7.07248535 0.45898438 6.01464844 C0 4 0 4 0 0 Z " fill="#0E14B3" transform="translate(226,59)"/>
<path d="M0 0 C-1.32 1.65 -2.64 3.3 -4 5 C3.59 5.33 11.18 5.66 19 6 C19 6.33 19 6.66 19 7 C11.08 7 3.16 7 -5 7 C-5.66 4.69 -6.32 2.38 -7 0 C-2.25 -1.125 -2.25 -1.125 0 0 Z " fill="#E8100E" transform="translate(204,35)"/>
<path d="M0 0 C1.125 1.75 1.125 1.75 2 4 C1.125 6.0625 1.125 6.0625 0 8 C0 8.99 0 9.98 0 11 C-0.66 11.66 -1.32 12.32 -2 13 C-5.17153748 7.75476493 -5.17153748 7.75476493 -4.375 4.25 C-3 2 -3 2 0 0 Z " fill="#F90201" transform="translate(154,27)"/>
<path d="M0 0 C0.66 0 1.32 0 2 0 C2.83712886 6.69703084 2.83712886 6.69703084 0.58203125 10.20703125 C-2.34848145 13.5749339 -5.37316629 16.39221027 -9 19 C-8.1875 16.5625 -8.1875 16.5625 -7 14 C-6.01 13.67 -5.02 13.34 -4 13 C-4 12.01 -4 11.02 -4 10 C-3.01 9.67 -2.02 9.34 -1 9 C-0.67 6.03 -0.34 3.06 0 0 Z " fill="#BA1D1D" transform="translate(223,6)"/>
<path d="M0 0 C0.66 0.33 1.32 0.66 2 1 C1.67 3.97 1.34 6.94 1 10 C0.34 10 -0.32 10 -1 10 C-1.103125 10.639375 -1.20625 11.27875 -1.3125 11.9375 C-1.539375 12.618125 -1.76625 13.29875 -2 14 C-2.99 14.33 -3.98 14.66 -5 15 C-4.37321829 11.33827525 -3.35548154 8.1181005 -1.9375 4.6875 C-1.39416016 3.36298828 -1.39416016 3.36298828 -0.83984375 2.01171875 C-0.56269531 1.34785156 -0.28554687 0.68398438 0 0 Z " fill="#0F13C1" transform="translate(140,53)"/>
<path d="M0 0 C1.65 0.33 3.3 0.66 5 1 C5 1.99 5 2.98 5 4 C5.66 3.67 6.32 3.34 7 3 C7.33 2.01 7.66 1.02 8 0 C8.33 1.65 8.66 3.3 9 5 C7.35 5 5.7 5 4 5 C3.67 4.34 3.34 3.68 3 3 C2.01 2.67 1.02 2.34 0 2 C-0.33 6.62 -0.66 11.24 -1 16 C-1.33 16 -1.66 16 -2 16 C-2.05402274 13.89611431 -2.09280256 11.79183286 -2.125 9.6875 C-2.14820313 8.51574219 -2.17140625 7.34398438 -2.1953125 6.13671875 C-2 3 -2 3 0 0 Z " fill="#111AA1" transform="translate(261,59)"/>
<path d="M0 0 C2.12508244 3.18762365 2.5020163 5.26512223 3 9 C1.20906809 9.08086147 -0.58289628 9.13912702 -2.375 9.1875 C-3.87160156 9.23970703 -3.87160156 9.23970703 -5.3984375 9.29296875 C-6.25695312 9.19628906 -7.11546875 9.09960938 -8 9 C-8.66 8.01 -9.32 7.02 -10 6 C-9.67 5.01 -9.34 4.02 -9 3 C-8.01 4.485 -8.01 4.485 -7 6 C-5.03638136 6.57748803 -5.03638136 6.57748803 -2.875 6.6875 C-0.956875 6.8421875 -0.956875 6.8421875 1 7 C0.67 4.69 0.34 2.38 0 0 Z " fill="#A8242F" transform="translate(178,42)"/>
<path d="M0 0 C2.475 0.495 2.475 0.495 5 1 C5 1.99 5 2.98 5 4 C-2.26 4 -9.52 4 -17 4 C-16.67 3.34 -16.34 2.68 -16 2 C-11.05 2 -6.1 2 -1 2 C-0.67 1.34 -0.34 0.68 0 0 Z " fill="#0303E3" transform="translate(187,79)"/>
<path d="M0 0 C1.6415049 3.2830098 0.51888624 6.42545033 0 10 C0.639375 10.226875 1.27875 10.45375 1.9375 10.6875 C4 12 4 12 4.75 14.625 C4.8325 15.40875 4.915 16.1925 5 17 C3.85073734 16.04578192 2.70569459 15.08647955 1.5625 14.125 C0.92441406 13.59132813 0.28632812 13.05765625 -0.37109375 12.5078125 C-2.70433329 10.34802721 -2.97741558 9.26536699 -3.25 6.0625 C-3 3 -3 3 -1.5 1.125 C-1.005 0.75375 -0.51 0.3825 0 0 Z " fill="#3204AB" transform="translate(47,47)"/>
<path d="M0 0 C0 0.33 0 0.66 0 1 C-3.63 1 -7.26 1 -11 1 C-11.33 2.98 -11.66 4.96 -12 7 C-13.98 7.66 -15.96 8.32 -18 9 C-17.39456452 7.63777017 -16.70885894 6.31138904 -16 5 C-15.54625 4.0925 -15.0925 3.185 -14.625 2.25 C-10.34980048 -1.41445673 -5.40180557 -0.38220322 0 0 Z " fill="#1617B6" transform="translate(120,5)"/>
<path d="M0 0 C1.4540625 0.0309375 1.4540625 0.0309375 2.9375 0.0625 C2.9375 0.7225 2.9375 1.3825 2.9375 2.0625 C1.6175 2.3925 0.2975 2.7225 -1.0625 3.0625 C-1.3925 4.7125 -1.7225 6.3625 -2.0625 8.0625 C0.5775 8.0625 3.2175 8.0625 5.9375 8.0625 C5.9375 8.3925 5.9375 8.7225 5.9375 9.0625 C2.6375 9.0625 -0.6625 9.0625 -4.0625 9.0625 C-4.16015625 2.91015625 -4.16015625 2.91015625 -4.0625 1.0625 C-3.0625 0.0625 -3.0625 0.0625 0 0 Z " fill="#0F17A5" transform="translate(179.0625,68.9375)"/>
<path d="M0 0 C3.84419647 0.38606247 5.35947723 2.16628972 7.75 5.0625 C8.36359375 5.79597656 8.9771875 6.52945313 9.609375 7.28515625 C10.06828125 7.85105469 10.5271875 8.41695312 11 9 C10.67 9.66 10.34 10.32 10 11 C8.2925002 9.71937515 6.62626404 8.38232443 5 7 C5 6.34 5 5.68 5 5 C3.35 5 1.7 5 0 5 C-0.5625 3.0625 -0.5625 3.0625 -1 1 C-0.67 0.67 -0.34 0.34 0 0 Z " fill="#1615AB" transform="translate(49,44)"/>
<path d="M0 0 C1.32 0 2.64 0 4 0 C3.566875 0.804375 3.566875 0.804375 3.125 1.625 C1.89204555 4.03226683 1.89204555 4.03226683 1.25 6.9375 C-0.40984287 11.00411504 -2.49863775 12.4120366 -6 15 C-4.7677465 10.92408457 -3.19619973 7.6285039 -1 4 C-0.30420546 1.80869466 -0.30420546 1.80869466 0 0 Z " fill="#BA1131" transform="translate(44,45)"/>
<path d="M0 0 C1.4800841 0.11362262 2.95910074 0.24122908 4.4375 0.375 C5.26121094 0.44460937 6.08492187 0.51421875 6.93359375 0.5859375 C7.95646484 0.79089844 7.95646484 0.79089844 9 1 C9.33 1.66 9.66 2.32 10 3 C7.03 3 4.06 3 1 3 C0.67 8.28 0.34 13.56 0 19 C-0.33 19 -0.66 19 -1 19 C-1.02705308 16.58325776 -1.04686438 14.1668206 -1.0625 11.75 C-1.07087891 11.06808594 -1.07925781 10.38617188 -1.08789062 9.68359375 C-1.10428392 6.30657446 -1.05628768 3.22708361 0 0 Z " fill="#101B9E" transform="translate(189,55)"/>
<path d="M0 0 C2.20613297 2.00557543 2.94243254 2.74670317 3.625 5.75 C2.69787766 10.57103619 -0.37798394 12.87693513 -4 16 C-4.33 14.68 -4.66 13.36 -5 12 C-4.175 11.690625 -3.35 11.38125 -2.5 11.0625 C0.20593884 9.29781962 0.20593884 9.29781962 0.33203125 6.796875 C0.31408275 4.51382601 0.2143984 2.27262304 0 0 Z " fill="#1C0DB7" transform="translate(80,48)"/>
<path d="M0 0 C0.99 0 1.98 0 3 0 C3.21931821 3.21666704 3.26828383 5.43362303 1.875 8.375 C0 10 0 10 -3.1875 10.25 C-4.115625 10.1675 -5.04375 10.085 -6 10 C-6 9.01 -6 8.02 -6 7 C-2.535 6.505 -2.535 6.505 1 6 C1.33 4.35 1.66 2.7 2 1 C1.34 0.67 0.68 0.34 0 0 Z " fill="#0C11C3" transform="translate(198,73)"/>
<path d="M0 0 C0 3 0 3 -1 6 C-0.34 6 0.32 6 1 6 C1 8.31 1 10.62 1 13 C-1.5625 10.8125 -1.5625 10.8125 -4 8 C-4 4.86248027 -3.47802742 3.5545118 -1.4375 1.1875 C-0.963125 0.795625 -0.48875 0.40375 0 0 Z " fill="#2A07AF" transform="translate(89,28)"/>
<path d="M0 0 C0.33 0 0.66 0 1 0 C0.67 3.3 0.34 6.6 0 10 C-0.66 10 -1.32 10 -2 10 C-2 10.99 -2 11.98 -2 13 C-2.66 13 -3.32 13 -4 13 C-4 13.99 -4 14.98 -4 16 C-4.66 16 -5.32 16 -6 16 C-4.25192871 10.53262809 -2.34205919 5.24175152 0 0 Z " fill="#C61A19" transform="translate(239,20)"/>
<path d="M0 0 C0 3 0 3 -2 7 C1.3 7 4.6 7 8 7 C8.33 6.01 8.66 5.02 9 4 C9.66 4.33 10.32 4.66 11 5 C10.01 6.485 10.01 6.485 9 8 C5.7421875 8.29296875 5.7421875 8.29296875 1.875 8.1875 C-0.04699219 8.14689453 -0.04699219 8.14689453 -2.0078125 8.10546875 C-2.99523437 8.07066406 -3.98265625 8.03585938 -5 8 C-3.7367158 4.64405806 -2.74084921 2.36709704 0 0 Z " fill="#B21226" transform="translate(13,76)"/>
<path d="M0 0 C0.33 0 0.66 0 1 0 C1.01458252 0.59014893 1.02916504 1.18029785 1.04418945 1.78833008 C1.11868844 4.46371229 1.21533995 7.13784892 1.3125 9.8125 C1.33505859 10.74126953 1.35761719 11.67003906 1.38085938 12.62695312 C1.41630859 13.51962891 1.45175781 14.41230469 1.48828125 15.33203125 C1.51446533 16.15421143 1.54064941 16.9763916 1.56762695 17.82348633 C2.08463956 20.42606532 2.98202695 21.33910717 5 23 C3.02 23 1.04 23 -1 23 C-0.67 15.41 -0.34 7.82 0 0 Z " fill="#0306D8" transform="translate(150,60)"/>
<path d="M0 0 C0.66 0 1.32 0 2 0 C2 5.28 2 10.56 2 16 C1.67 16 1.34 16 1 16 C1 12.37 1 8.74 1 5 C0.01 5.495 0.01 5.495 -1 6 C-1.33 6.99 -1.66 7.98 -2 9 C-2.66 9 -3.32 9 -4 9 C-2.80100302 5.9168649 -1.52299523 2.93720508 0 0 Z " fill="#0B1591" transform="translate(166,64)"/>
<path d="M0 0 C1.65 0 3.3 0 5 0 C5 2.97 5 5.94 5 9 C4.01 9 3.02 9 2 9 C1.34 6.03 0.68 3.06 0 0 Z " fill="#0305E1" transform="translate(239,55)"/>
<path d="M0 0 C2 2 2 2 2 6 C-1.63 6 -5.26 6 -9 6 C-9.66 4.35 -10.32 2.7 -11 1 C-10.01 1.495 -10.01 1.495 -9 2 C-9 2.66 -9 3.32 -9 4 C-6.03 4 -3.06 4 0 4 C0 2.68 0 1.36 0 0 Z " fill="#A92C31" transform="translate(266,45)"/>
<path d="M0 0 C0.66 0.66 1.32 1.32 2 2 C1.01 2.8971875 1.01 2.8971875 0 3.8125 C-2.3373846 5.87501834 -2.3373846 5.87501834 -2 9 C-2.66 9 -3.32 9 -4 9 C-4 9.66 -4 10.32 -4 11 C-4.99 11 -5.98 11 -7 11 C-6.60246179 9.53633658 -6.18118616 8.0791065 -5.75 6.625 C-5.51796875 5.81289062 -5.2859375 5.00078125 -5.046875 4.1640625 C-3.7785108 1.54214546 -2.67576692 1.00617682 0 0 Z " fill="#D51111" transform="translate(247,9)"/>
<path d="M0 0 C0 3.26229641 -0.21770324 4.32655486 -2 7 C-5.18018249 9.35056966 -8.40961978 11.34290144 -12 13 C-12 12.34 -12 11.68 -12 11 C-10.390625 9.4140625 -10.390625 9.4140625 -8.25 7.625 C-5.3756268 5.18382134 -2.61456008 2.72350008 0 0 Z " fill="#C31616" transform="translate(201,23)"/>
<path d="M0 0 C1.65 0.99 3.3 1.98 5 3 C3.68 3.33 2.36 3.66 1 4 C0.67 2.68 0.34 1.36 0 0 Z M20 0 C20.33 0.66 20.66 1.32 21 2 C16.05 2 11.1 2 6 2 C6 1.67 6 1.34 6 1 C10.62 0.67 15.24 0.34 20 0 Z " fill="#0D10C6" transform="translate(280,79)"/>
<path d="M0 0 C1.36207958 2.72415916 0.86166193 4.12779357 0 7 C-0.99 7.66 -1.98 8.32 -3 9 C-3.33 9.99 -3.66 10.98 -4 12 C-4.99 12.33 -5.98 12.66 -7 13 C-5.35821735 8.22390502 -2.73453298 4.20617096 0 0 Z " fill="#B80D3D" transform="translate(21,63)"/>
<path d="M0 0 C0.66 0.33 1.32 0.66 2 1 C1.01 2.98 0.02 4.96 -1 7 C-2.8125 6.8125 -2.8125 6.8125 -5 6 C-6.75 3.4375 -6.75 3.4375 -8 1 C-5.69 1.66 -3.38 2.32 -1 3 C-0.67 2.01 -0.34 1.02 0 0 Z " fill="#1E0CB4" transform="translate(37,37)"/>
<path d="M0 0 C1.32 0.33 2.64 0.66 4 1 C3.2575 1.70125 2.515 2.4025 1.75 3.125 C-0.97817223 5.97718006 -2.91302954 8.6763063 -5 12 C-5.93065133 9.39417629 -6.14917407 8.35801776 -5.0625 5.75 C-4.5365625 4.88375 -4.5365625 4.88375 -4 4 C-3.01 4 -2.02 4 -1 4 C-0.67 2.68 -0.34 1.36 0 0 Z " fill="#C81B1C" transform="translate(61,25)"/>
<path d="M0 0 C0.165 0.639375 0.33 1.27875 0.5 1.9375 C1.781786 4.16119241 1.781786 4.16119241 3.9140625 4.48828125 C5.93575155 4.7275978 7.96841939 4.86893028 10 5 C4.92913386 7.71653543 4.92913386 7.71653543 2 8 C0.1875 6.875 0.1875 6.875 -1 5 C-0.6875 2.3125 -0.6875 2.3125 0 0 Z " fill="#A5466B" transform="translate(141,45)"/>
<path d="M0 0 C1.6852084 4.07679159 0.16939007 6.83075593 -1.4375 10.75 C-1.91058594 11.92046875 -2.38367188 13.0909375 -2.87109375 14.296875 C-3.24363281 15.18890625 -3.61617188 16.0809375 -4 17 C-5.43963569 12.68109292 -4.30444307 9.28067236 -3 5 C-1.375 1.9375 -1.375 1.9375 0 0 Z " fill="#1012AF" transform="translate(319,58)"/>
<path d="M0 0 C2 1 2 1 3.125 4.0625 C3.41375 5.031875 3.7025 6.00125 4 7 C2.02 7 0.04 7 -2 7 C-1.34 4.69 -0.68 2.38 0 0 Z " fill="#0302ED" transform="translate(240,76)"/>
<path d="M0 0 C1.65 0.33 3.3 0.66 5 1 C5 3.64 5 6.28 5 9 C4.67 9 4.34 9 4 9 C4 7.02 4 5.04 4 3 C3.01 3 2.02 3 1 3 C0.67 3.66 0.34 4.32 0 5 C-0.66 5 -1.32 5 -2 5 C-1.34 3.35 -0.68 1.7 0 0 Z " fill="#0B0CDC" transform="translate(105,27)"/>
<path d="M0 0 C-2.97 2.64 -5.94 5.28 -9 8 C-9.33 6.68 -9.66 5.36 -10 4 C-9.01 4 -8.02 4 -7 4 C-7 3.01 -7 2.02 -7 1 C-3.375 -1.125 -3.375 -1.125 0 0 Z " fill="#CC1B1A" transform="translate(214,26)"/>
<path d="M0 0 C3.96 0.33 7.92 0.66 12 1 C11.67 1.66 11.34 2.32 11 3 C7.7 3 4.4 3 1 3 C0.67 2.01 0.34 1.02 0 0 Z " fill="#AB2D32" transform="translate(227,48)"/>
<path d="M0 0 C0.33 0 0.66 0 1 0 C1.3227506 4.62609198 0.84450614 7.28026121 -2 11 C-2.66 11 -3.32 11 -4 11 C-3.52269162 9.5410574 -3.04308958 8.08286504 -2.5625 6.625 C-2.29566406 5.81289063 -2.02882812 5.00078125 -1.75390625 4.1640625 C-1 2 -1 2 0 0 Z " fill="#C51A18" transform="translate(232,36)"/>
<path d="M0 0 C0.33 2.64 0.66 5.28 1 8 C0.34 8 -0.32 8 -1 8 C-5 3.52941176 -5 3.52941176 -5 1 C-1.125 0 -1.125 0 0 0 Z " fill="#2E00B5" transform="translate(119,74)"/>
<path d="M0 0 C0.99 0.33 1.98 0.66 3 1 C1.7260411 3.03833424 0.38938077 5.03852126 -1 7 C-1.66 7 -2.32 7 -3 7 C-2.25 2.25 -2.25 2.25 0 0 Z " fill="#0801EA" transform="translate(12,70)"/>
<path d="M0 0 C0.66 0 1.32 0 2 0 C2.33 2.97 2.66 5.94 3 9 C1.68 8.34 0.36 7.68 -1 7 C-0.67 4.69 -0.34 2.38 0 0 Z " fill="#131B8D" transform="translate(225,67)"/>
<path d="M0 0 C0.66 0 1.32 0 2 0 C2.33 0.99 2.66 1.98 3 3 C2.67 3.66 2.34 4.32 2 5 C1.77377919 6.70363822 1.59111527 8.41328701 1.4375 10.125 C1.35371094 11.03507812 1.26992187 11.94515625 1.18359375 12.8828125 C1.12300781 13.58148438 1.06242188 14.28015625 1 15 C0.67 15 0.34 15 0 15 C0 10.05 0 5.1 0 0 Z " fill="#111C79" transform="translate(237,64)"/>
<path d="M0 0 C1.65 0 3.3 0 5 0 C5.33 1.32 5.66 2.64 6 4 C5.01 4.495 5.01 4.495 4 5 C1.875 4.0625 1.875 4.0625 0 3 C0 2.01 0 1.02 0 0 Z " fill="#0509E6" transform="translate(223,55)"/>
<path d="M0 0 C5.875 4.625 5.875 4.625 7 8 C5.68 7.67 4.36 7.34 3 7 C3 6.34 3 5.68 3 5 C2.01 4.67 1.02 4.34 0 4 C0 2.68 0 1.36 0 0 Z " fill="#C50F24" transform="translate(88,40)"/>
<path d="M0 0 C1.39195915 4.17587745 -0.17676781 6.13474776 -2 10 C-2.33 10 -2.66 10 -3 10 C-3.36923077 3.47692308 -3.36923077 3.47692308 -1.5 1.0625 C-1.005 0.711875 -0.51 0.36125 0 0 Z " fill="#CA1B1A" transform="translate(156,35)"/>
<path d="M0 0 C0.33 0 0.66 0 1 0 C0.63076923 7.38461538 0.63076923 7.38461538 -2.5625 10.5 C-3.7690625 11.2425 -3.7690625 11.2425 -5 12 C-3.25 6.25 -3.25 6.25 -1 4 C-0.3574765 1.93125966 -0.3574765 1.93125966 0 0 Z " fill="#870764" transform="translate(41,32)"/>
<path d="M0 0 C3 1 3 1 4.75 3.9375 C5.1625 4.948125 5.575 5.95875 6 7 C5.67 7.66 5.34 8.32 5 9 C3.5 7.625 3.5 7.625 2 6 C2 5.34 2 4.68 2 4 C1.34 4 0.68 4 0 4 C0 2.68 0 1.36 0 0 Z " fill="#5D0389" transform="translate(108,66)"/>
<path d="M0 0 C1.98 0 3.96 0 6 0 C5.01 0.495 5.01 0.495 4 1 C3.27306096 2.97888961 2.60183749 4.97954558 2 7 C0.5393715 4.35261084 0 3.10551666 0 0 Z " fill="#0404E5" transform="translate(254,55)"/>
<path d="M0 0 C0.66 0 1.32 0 2 0 C2 0.66 2 1.32 2 2 C3.65 1.34 5.3 0.68 7 0 C7 1.32 7 2.64 7 4 C5.02 4 3.04 4 1 4 C0.67 2.68 0.34 1.36 0 0 Z " fill="#1010C5" transform="translate(60,55)"/>
<path d="M0 0 C0 3 0 3 -1.25 4.75 C-3 6 -3 6 -5.1875 5.6875 C-5.785625 5.460625 -6.38375 5.23375 -7 5 C-7 4.34 -7 3.68 -7 3 C-5.5459375 2.5359375 -5.5459375 2.5359375 -4.0625 2.0625 C-1.15934208 1.30476658 -1.15934208 1.30476658 0 0 Z " fill="#3511A1" transform="translate(97,38)"/>
<path d="M0 0 C0.99 0 1.98 0 3 0 C1.75023244 3.65316671 1.32901247 4.78065836 -2 7 C-2.33 6.34 -2.66 5.68 -3 5 C-2.67 4.34 -2.34 3.68 -2 3 C-1.34 3 -0.68 3 0 3 C0 2.01 0 1.02 0 0 Z " fill="#C91A17" transform="translate(35,60)"/>
<path d="M0 0 C2.9375 1.1875 2.9375 1.1875 6 3 C6.875 5.6875 6.875 5.6875 7 8 C5.8274869 7.04882866 4.66212985 6.08882991 3.5 5.125 C2.8503125 4.59132813 2.200625 4.05765625 1.53125 3.5078125 C1.0259375 3.01023438 0.520625 2.51265625 0 2 C0 1.34 0 0.68 0 0 Z " fill="#1616B5" transform="translate(45,56)"/>
<path d="M0 0 C0.99 0 1.98 0 3 0 C3.66 1.65 4.32 3.3 5 5 C3.35 5 1.7 5 0 5 C-0.5625 3.0625 -0.5625 3.0625 -1 1 C-0.67 0.67 -0.34 0.34 0 0 Z " fill="#1905BE" transform="translate(49,44)"/>
<path d="M0 0 C0.66 0.33 1.32 0.66 2 1 C-1.625 6.875 -1.625 6.875 -5 8 C-4.67 6.68 -4.34 5.36 -4 4 C-3.34 4 -2.68 4 -2 4 C-1.34 2.68 -0.68 1.36 0 0 Z " fill="#B91E2F" transform="translate(53,37)"/>
<path d="M0 0 C-3.75 4.875 -3.75 4.875 -6 6 C-6.33 4.02 -6.66 2.04 -7 0 C-2.25 -1.125 -2.25 -1.125 0 0 Z " fill="#CF1516" transform="translate(204,35)"/>
<path d="M0 0 C3 1 3 1 4 3 C4.039992 4.99960012 4.04346799 7.00047242 4 9 C1.3144406 6.3144406 0.93950026 3.62378672 0 0 Z " fill="#C41B1A" transform="translate(161,28)"/>
<path d="M0 0 C0.66 0 1.32 0 2 0 C0.60667426 3.36720387 -0.9789286 4.9859524 -4 7 C-4 5.68 -4 4.36 -4 3 C-3.01 3 -2.02 3 -1 3 C-0.67 2.01 -0.34 1.02 0 0 Z " fill="#100EB5" transform="translate(73,64)"/>
<path d="M0 0 C1.4800841 0.11362262 2.95910074 0.24122908 4.4375 0.375 C5.26121094 0.44460937 6.08492187 0.51421875 6.93359375 0.5859375 C7.95646484 0.79089844 7.95646484 0.79089844 9 1 C9.33 1.66 9.66 2.32 10 3 C6.7 3 3.4 3 0 3 C0 2.01 0 1.02 0 0 Z " fill="#0F0FBB" transform="translate(189,55)"/>
<path d="M0 0 C2.475 0.99 2.475 0.99 5 2 C4.67 4.31 4.34 6.62 4 9 C1.3144406 6.3144406 0.93950026 3.62378672 0 0 Z " fill="#CC1920" transform="translate(248,28)"/>
<path d="M0 0 C0.99 0 1.98 0 3 0 C3.33 1.32 3.66 2.64 4 4 C2.68 3.67 1.36 3.34 0 3 C0 3.99 0 4.98 0 6 C-0.66 6 -1.32 6 -2 6 C-1.34 4.02 -0.68 2.04 0 0 Z " fill="#AA221F" transform="translate(246,5)"/>
</svg>
