<?xml version="1.0" encoding="UTF-8"?>
<svg version="1.1" xmlns="http://www.w3.org/2000/svg" width="959" height="302">
<path d="M0 0 C316.47 0 632.94 0 959 0 C959 99.66 959 199.32 959 302 C642.53 302 326.06 302 0 302 C0 202.34 0 102.68 0 0 Z " fill="#FCFDFD" transform="translate(0,0)"/>
<path d="M0 0 C19.8 0 39.6 0 60 0 C60 29.7 60 59.4 60 90 C70.23 90 80.46 90 91 90 C100.72222222 102.98611111 100.72222222 102.98611111 103.86621094 111.22924805 C104.91117225 114.06807833 104.91117225 114.06807833 106.76660156 116.54614258 C108 119 108 119 107.37402344 121.42871094 C106.9205957 122.27723633 106.46716797 123.12576172 106 124 C105.54399414 124.96969727 105.08798828 125.93939453 104.61816406 126.93847656 C103.18977581 129.79264176 101.72047167 132.61939658 100.20947266 135.43066406 C99.57145922 136.64045443 98.95303232 137.86078459 98.35498047 139.09082031 C96.33685757 143.22448509 94.32957085 146.80114013 91 150 C87.24559816 150.84719156 83.93897724 150.89035341 80.09912109 150.81494141 C77.06411365 150.71769106 77.06411365 150.71769106 75.27197266 152.25146484 C73.97724832 154.18569025 73.97724832 154.18569025 72.6875 157.5625 C71.13671875 161.19140625 71.13671875 161.19140625 69 164 C66.03 164 63.06 164 60 164 C60 189.08 60 214.16 60 240 C53.07 240 46.14 240 39 240 C39 244.62 39 249.24 39 254 C18.54 254 -1.92 254 -23 254 C-23 174.14 -23 94.28 -23 12 C-15.41 12 -7.82 12 0 12 C0 8.04 0 4.08 0 0 Z " fill="#1A3142" transform="translate(30,26)"/>
<path d="M0 0 C20.46 0 40.92 0 62 0 C62 79.86 62 159.72 62 242 C57.05 242 52.1 242 47 242 C47 245.63 47 249.26 47 253 C27.2 253 7.4 253 -13 253 C-13 223.3 -13 193.6 -13 163 C-34.45 163 -55.9 163 -78 163 C-73.9917694 154.9835388 -69.93184678 147.24545828 -65.375 139.5625 C-64.14623623 137.47578964 -62.91839041 135.38853851 -61.69140625 133.30078125 C-61.07797363 132.25744629 -60.46454102 131.21411133 -59.83251953 130.13916016 C-56.43850783 124.32511773 -53.12363209 118.46554447 -49.81982422 112.59985352 C-49.35979004 111.78830811 -48.89975586 110.9767627 -48.42578125 110.140625 C-48.02786377 109.43454102 -47.62994629 108.72845703 -47.2199707 108.00097656 C-45.90860055 105.85008808 -44.6872146 103.8774078 -43 102 C-39.3125 101.75 -39.3125 101.75 -36 102 C-35.7525 101.13375 -35.505 100.2675 -35.25 99.375 C-34 96 -34 96 -30 90 C-24.39 90 -18.78 90 -13 90 C-13 64.26 -13 38.52 -13 12 C-8.71 12 -4.42 12 0 12 C0 8.04 0 4.08 0 0 Z " fill="#1B3140" transform="translate(222,25)"/>
<path d="M0 0 C6.93 0 13.86 0 21 0 C21 74.58 21 149.16 21 226 C33.21 226 45.42 226 58 226 C58 229.96 58 233.92 58 238 C38.86 238 19.72 238 0 238 C0 159.46 0 80.92 0 0 Z " fill="#FDEC01" transform="translate(9,40)"/>
<path d="M0 0 C19.14 0 38.28 0 58 0 C58 78.54 58 157.08 58 238 C53.71 238 49.42 238 45 238 C45 162.76 45 87.52 45 10 C30.15 10 15.3 10 0 10 C0 6.7 0 3.4 0 0 Z " fill="#F7E90F" transform="translate(224,27)"/>
<path d="M0 0 C5.85261578 3.99668424 11.30529321 8.9181458 13 16 C13.74449446 23.13931008 14.38173261 30.90694374 10.44921875 37.2265625 C3.96352368 45.16323517 -2.40298967 48.9570407 -12.50390625 50.34375 C-20.18730333 50.82471382 -26.0307185 48.05854769 -32.04296875 43.42578125 C-38.03364828 37.94603388 -41.12710634 31.68602905 -41.5625 23.5625 C-41.23873907 15.84619793 -37.89465378 9.76133398 -32.75 4.125 C-23.42300803 -4.39620432 -11.30160321 -5.37230423 0 0 Z " fill="#1E3344" transform="translate(922,129)"/>
<path d="M0 0 C5.86408143 4.00451401 11.25651183 8.92213081 13 16 C13.91961787 24.17975892 13.91674775 32.10860154 9 39 C2.86369828 46.0986138 -3.3367735 49.08523568 -12.50390625 50.34375 C-20.18730333 50.82471382 -26.0307185 48.05854769 -32.04296875 43.42578125 C-37.23532946 38.6762658 -40.39666288 33.30421948 -41.37890625 26.296875 C-41.71004266 18.64869212 -40.01266086 12.82193093 -35.26953125 6.8046875 C-25.6330179 -3.62044271 -12.96720963 -6.16406308 0 0 Z " fill="#1E3344" transform="translate(749,28)"/>
<path d="M0 0 C31.70629371 0 31.70629371 0 39.7578125 7.67578125 C45.5317273 13.96572225 46.5281699 20.28015602 46.375 28.67578125 C45.59498959 35.59024851 42.59524595 40.8869298 37.4375 45.5 C26.82407856 53.93190987 12.91869309 51 0 51 C0 34.17 0 17.34 0 0 Z " fill="#1E3344" transform="translate(397,229)"/>
<path d="M0 0 C4.95 0 9.9 0 15 0 C17.97 9.9 20.94 19.8 24 30 C26.21841883 21.62480022 26.21841883 21.62480022 28.42724609 13.24707031 C28.70648926 12.20131836 28.98573242 11.15556641 29.2734375 10.078125 C29.55622559 9.00981445 29.83901367 7.94150391 30.13037109 6.84082031 C31 4 31 4 33 0 C37.62 0 42.24 0 47 0 C47.6770611 4.01585092 48.35300374 8.03186915 49.02636719 12.04833984 C49.25459831 13.4078174 49.48341669 14.76719652 49.71289062 16.12646484 C50.91690803 23.26079607 52.08881209 30.39962611 53.1640625 37.5546875 C53.32600098 38.62960449 53.48793945 39.70452148 53.65478516 40.81201172 C54.02499015 44.23077888 54.05796354 47.56389979 54 51 C49.71 51 45.42 51 41 51 C40.87882812 49.82824219 40.75765625 48.65648437 40.6328125 47.44921875 C39.72793321 38.89747226 38.74548113 30.43030248 37 22 C36.75765625 22.84820312 36.5153125 23.69640625 36.265625 24.5703125 C35.56205774 27.03279791 34.8575682 29.49501993 34.15234375 31.95703125 C33.38547014 34.63946001 32.62835753 37.32437235 31.87890625 40.01171875 C31.35103516 41.89310547 31.35103516 41.89310547 30.8125 43.8125 C30.48894531 44.97394531 30.16539062 46.13539063 29.83203125 47.33203125 C29 50 29 50 28 51 C25.03 51 22.06 51 19 51 C14.545 36.645 14.545 36.645 10 22 C9.05488586 30.04702998 9.05488586 30.04702998 8.11547852 38.09472656 C7.99615967 39.09987305 7.87684082 40.10501953 7.75390625 41.140625 C7.63345947 42.16704102 7.5130127 43.19345703 7.38891602 44.25097656 C7 47 7 47 6 51 C1.71 51 -2.58 51 -7 51 C-5.68736004 39.27443042 -4.12436482 27.60540942 -2.375 15.9375 C-2.14299467 14.37698797 -1.91122299 12.81644118 -1.6796875 11.25585938 C-1.12288859 7.50343243 -0.5613708 3.75175678 0 0 Z " fill="#203545" transform="translate(315,127)"/>
<path d="M0 0 C4.95 0 9.9 0 15 0 C15.48210937 1.74667969 15.96421875 3.49335938 16.4609375 5.29296875 C17.0988103 7.59118693 17.7368393 9.88936175 18.375 12.1875 C18.69210937 13.33798828 19.00921875 14.48847656 19.3359375 15.67382812 C19.8 17.34155273 19.8 17.34155273 20.2734375 19.04296875 C20.55622559 20.06414795 20.83901367 21.08532715 21.13037109 22.13745117 C21.94931563 24.83316276 22.91118847 27.40312193 24 30 C24.16604736 29.37544922 24.33209473 28.75089844 24.50317383 28.10742188 C25.26880761 25.23715829 26.04060923 22.36858696 26.8125 19.5 C27.07353516 18.51773438 27.33457031 17.53546875 27.60351562 16.5234375 C29.12779628 10.87795359 30.84472636 5.43672629 33 0 C37.62 0 42.24 0 47 0 C47.6770611 4.01585092 48.35300374 8.03186915 49.02636719 12.04833984 C49.25459831 13.4078174 49.48341669 14.76719652 49.71289062 16.12646484 C50.91690803 23.26079607 52.08881209 30.39962611 53.1640625 37.5546875 C53.32600098 38.62960449 53.48793945 39.70452148 53.65478516 40.81201172 C54.02499015 44.23077888 54.05796354 47.56389979 54 51 C49.71 51 45.42 51 41 51 C39.68 41.43 38.36 31.86 37 22 C34.78021702 30.4198934 34.78021702 30.4198934 32.57275391 38.84301758 C32.29351074 39.89126709 32.01426758 40.9395166 31.7265625 42.01953125 C31.44377441 43.09307861 31.16098633 44.16662598 30.86962891 45.27270508 C30 48 30 48 28 51 C25.03 51 22.06 51 19 51 C16.36 42.09 13.72 33.18 11 24 C9.22973797 25.77026203 9.38739218 28.38096191 9.02734375 30.78515625 C8.85009766 31.95498047 8.67285156 33.12480469 8.49023438 34.33007812 C8.30783203 35.56177734 8.12542969 36.79347656 7.9375 38.0625 C7.75123047 39.29806641 7.56496094 40.53363281 7.37304688 41.80664062 C6.91168717 44.87054226 6.4553775 47.93520354 6 51 C1.71 51 -2.58 51 -7 51 C-5.87519389 40.10714085 -4.30263609 29.33948599 -2.40917969 18.55273438 C-1.33828621 12.37497896 -0.55332259 6.24627052 0 0 Z " fill="#1F3445" transform="translate(412,26)"/>
<path d="M0 0 C4.95 0 9.9 0 15 0 C15.48210938 1.74667969 15.96421875 3.49335938 16.4609375 5.29296875 C17.0988103 7.59118693 17.7368393 9.88936175 18.375 12.1875 C18.69210937 13.33798828 19.00921875 14.48847656 19.3359375 15.67382812 C19.8 17.34155273 19.8 17.34155273 20.2734375 19.04296875 C20.55622559 20.06414795 20.83901367 21.08532715 21.13037109 22.13745117 C21.94931563 24.83316276 22.91118847 27.40312193 24 30 C24.24234375 29.07960937 24.4846875 28.15921875 24.734375 27.2109375 C26.51021571 20.50372376 28.31134949 13.80492051 30.1875 7.125 C30.51105469 5.97257813 30.83460938 4.82015625 31.16796875 3.6328125 C32 1 32 1 33 0 C35.35313555 -0.07271741 37.70833668 -0.08370868 40.0625 -0.0625 C41.35285156 -0.05347656 42.64320313 -0.04445313 43.97265625 -0.03515625 C44.97167969 -0.02355469 45.97070312 -0.01195313 47 0 C47.67768056 4.0157414 48.35300425 8.03187215 49.02636719 12.04833984 C49.25459831 13.4078174 49.48341669 14.76719652 49.71289062 16.12646484 C50.91690803 23.26079607 52.08881209 30.39962611 53.1640625 37.5546875 C53.32600098 38.62960449 53.48793945 39.70452148 53.65478516 40.81201172 C54.02499015 44.23077888 54.05796354 47.56389979 54 51 C49.71 51 45.42 51 41 51 C40.87882813 49.82824219 40.75765625 48.65648437 40.6328125 47.44921875 C40.46375498 45.86195643 40.2944719 44.27471813 40.125 42.6875 C40.04636719 41.92115234 39.96773437 41.15480469 39.88671875 40.36523438 C39.21974546 34.18290504 38.17607 28.10474126 37 22 C36.69763428 23.10456543 36.69763428 23.10456543 36.38916016 24.23144531 C35.47207014 27.57216036 34.54860861 30.91108156 33.625 34.25 C33.14933594 35.98830078 33.14933594 35.98830078 32.6640625 37.76171875 C32.3546875 38.87675781 32.0453125 39.99179688 31.7265625 41.140625 C31.44377441 42.16704102 31.16098633 43.19345703 30.86962891 44.25097656 C30 47 30 47 28 51 C25.03 51 22.06 51 19 51 C14.545 36.645 14.545 36.645 10 22 C9.05488586 30.04702998 9.05488586 30.04702998 8.11547852 38.09472656 C7.99615967 39.09987305 7.87684082 40.10501953 7.75390625 41.140625 C7.63345947 42.16704102 7.5130127 43.19345703 7.38891602 44.25097656 C7 47 7 47 6 51 C1.71 51 -2.58 51 -7 51 C-5.68736004 39.27443042 -4.12436482 27.60540942 -2.375 15.9375 C-2.14299467 14.37698797 -1.91122299 12.81644118 -1.6796875 11.25585938 C-1.12288859 7.50343243 -0.5613708 3.75175678 0 0 Z " fill="#1F3445" transform="translate(657,127)"/>
<path d="M0 0 C14 0 14 0 17.203125 2.31640625 C17.87859375 3.38761719 18.5540625 4.45882812 19.25 5.5625 C19.63220703 6.13516602 20.01441406 6.70783203 20.40820312 7.29785156 C21.21963787 8.52423953 22.00967231 9.7650174 22.77929688 11.01806641 C24.4961529 13.80555385 26.32567849 16.51324215 28.15136719 19.23022461 C29.03814822 20.55830923 29.91417548 21.89364894 30.77832031 23.23657227 C32.85096706 26.67342876 32.85096706 26.67342876 36 29 C36 19.43 36 9.86 36 0 C40.62 0 45.24 0 50 0 C50 16.83 50 33.66 50 51 C36 51 36 51 32.76171875 48.39453125 C31.66992188 46.6809082 31.66992188 46.6809082 30.6875 44.8125 C29.90011421 43.53101974 29.1123443 42.24977543 28.32421875 40.96875 C27.94442871 40.31132812 27.56463867 39.65390625 27.17333984 38.9765625 C25.28827746 35.80106 23.13578331 32.82230756 21 29.8125 C18.97998348 26.88708322 16.97200038 23.95800057 15 21 C14.67 30.9 14.34 40.8 14 51 C9.38 51 4.76 51 0 51 C0 34.17 0 17.34 0 0 Z " fill="#1E3344" transform="translate(568,127)"/>
<path d="M0 0 C14 0 14 0 17.23828125 2.38671875 C17.92277344 3.47597656 18.60726563 4.56523437 19.3125 5.6875 C19.69728516 6.26677246 20.08207031 6.84604492 20.47851562 7.44287109 C21.2807788 8.65640867 22.0634885 9.88308751 22.82666016 11.12158203 C24.38863191 13.62216685 26.0894548 16.01239599 27.79370117 18.41723633 C30.25639646 21.90368716 32.63239564 25.44859346 35 29 C35.33 19.43 35.66 9.86 36 0 C40.62 0 45.24 0 50 0 C50 16.83 50 33.66 50 51 C36 51 36 51 32.0703125 47.484375 C31.0393529 45.93793561 30.05764187 44.35764786 29.125 42.75 C28.63515625 41.99203125 28.1453125 41.2340625 27.640625 40.453125 C26.05721888 37.99187197 24.52977326 35.49494192 23 33 C20.36 29.04 17.72 25.08 15 21 C14.67 30.9 14.34 40.8 14 51 C9.38 51 4.76 51 0 51 C0 34.17 0 17.34 0 0 Z " fill="#1E3344" transform="translate(337,229)"/>
<path d="M0 0 C14 0 14 0 17.16796875 2.28125 C17.83441406 3.3434375 18.50085938 4.405625 19.1875 5.5 C19.56567871 6.06936279 19.94385742 6.63872559 20.33349609 7.2253418 C21.14952823 8.45966915 21.94555934 9.7074068 22.72314453 10.96630859 C24.54210772 13.86343352 26.51218077 16.64802369 28.47827148 19.4465332 C30.68091247 22.61121723 32.83566628 25.80899516 35 29 C35.33 19.43 35.66 9.86 36 0 C40.62 0 45.24 0 50 0 C50 16.83 50 33.66 50 51 C36 51 36 51 32.0703125 47.484375 C31.0393529 45.93793561 30.05764187 44.35764786 29.125 42.75 C28.63515625 41.99203125 28.1453125 41.2340625 27.640625 40.453125 C26.05721888 37.99187197 24.52977326 35.49494192 23 33 C20.36 29.04 17.72 25.08 15 21 C14.67 30.9 14.34 40.8 14 51 C9.38 51 4.76 51 0 51 C0 34.17 0 17.34 0 0 Z " fill="#1B3041" transform="translate(428,127)"/>
<path d="M0 0 C14 0 14 0 17.203125 2.31640625 C17.87859375 3.38761719 18.5540625 4.45882813 19.25 5.5625 C19.63148193 6.13589111 20.01296387 6.70928223 20.40600586 7.30004883 C21.21622976 8.52750589 22.00553692 9.76898958 22.77490234 11.02246094 C24.06225949 13.10049858 25.41907123 15.11641648 26.80078125 17.1328125 C33.387545 26.77509 33.387545 26.77509 35 30 C35.33 20.1 35.66 10.2 36 0 C40.62 0 45.24 0 50 0 C50 16.83 50 33.66 50 51 C36 51 36 51 32.0703125 47.484375 C31.0393529 45.93793561 30.05764187 44.35764786 29.125 42.75 C28.63515625 41.99203125 28.1453125 41.2340625 27.640625 40.453125 C26.05721888 37.99187197 24.52977326 35.49494192 23 33 C20.36 29.04 17.72 25.08 15 21 C14.67 30.9 14.34 40.8 14 51 C9.38 51 4.76 51 0 51 C0 34.17 0 17.34 0 0 Z " fill="#1E3344" transform="translate(499,26)"/>
<path d="M0 0 C14 0 14 0 17.203125 2.31640625 C17.87859375 3.38761719 18.5540625 4.45882812 19.25 5.5625 C19.63220703 6.13661621 20.01441406 6.71073242 20.40820312 7.30224609 C21.21925725 8.53036667 22.00931235 9.77257767 22.77929688 11.02685547 C24.055612 13.08989123 25.39838238 15.09385665 26.765625 17.09765625 C29.22148776 20.70400158 31.61796749 24.34449626 34 28 C34.66 28.99 35.32 29.98 36 31 C36 20.77 36 10.54 36 0 C40.62 0 45.24 0 50 0 C50 16.83 50 33.66 50 51 C36 51 36 51 32.0703125 47.484375 C31.0393529 45.93793561 30.05764187 44.35764786 29.125 42.75 C28.63515625 41.99203125 28.1453125 41.2340625 27.640625 40.453125 C26.05721888 37.99187197 24.52977326 35.49494192 23 33 C20.36 29.04 17.72 25.08 15 21 C14.67 30.9 14.34 40.8 14 51 C9.38 51 4.76 51 0 51 C0 34.17 0 17.34 0 0 Z " fill="#1D3243" transform="translate(785,127)"/>
<path d="M0 0 C27.51351351 0 27.51351351 0 32.875 4.3125 C36.86716004 9.36140828 37.61327112 13.71397098 37 20 C35.90837801 24.00261395 34.24434804 26.40452157 31 29 C29.34397756 29.38272519 27.67692035 29.72282308 26 30 C26.39380859 30.56509277 26.78761719 31.13018555 27.19335938 31.71240234 C28.9670654 34.26328547 30.73360376 36.81905034 32.5 39.375 C33.12003906 40.26445313 33.74007812 41.15390625 34.37890625 42.0703125 C34.96542969 42.92109375 35.55195312 43.771875 36.15625 44.6484375 C36.70087891 45.43395996 37.24550781 46.21948242 37.80664062 47.02880859 C39 49 39 49 39 51 C33.98247157 51.96336546 28.87430078 52.88057782 24 51 C19.34462402 46.72714617 16.64298483 40.64866851 14 35 C13.67 34.34 13.34 33.68 13 33 C12.67 38.94 12.34 44.88 12 51 C8.04 51 4.08 51 0 51 C0 34.17 0 17.34 0 0 Z " fill="#1C3243" transform="translate(666,26)"/>
<path d="M0 0 C27.51351351 0 27.51351351 0 32.875 4.3125 C36.41149534 8.78512646 37.41022854 12.23777666 37.2578125 18.0078125 C36.75770109 21.87230977 34.93804917 24.76348064 32.625 27.8125 C30.51257041 29.35619854 28.54962897 29.54737857 26 30 C26.58285767 30.84763916 26.58285767 30.84763916 27.17749023 31.71240234 C28.93213232 34.26570729 30.68483845 36.8203352 32.4375 39.375 C33.04916016 40.26445312 33.66082031 41.15390625 34.29101562 42.0703125 C34.87431641 42.92109375 35.45761719 43.771875 36.05859375 44.6484375 C36.59798584 45.43395996 37.13737793 46.21948242 37.69311523 47.02880859 C39 49 39 49 40 51 C29.06346661 52.55288156 29.06346661 52.55288156 24 51 C20.10540169 47.13318057 18.22954593 43.01794902 16 38 C15.01 36.35 14.02 34.7 13 33 C12.67 38.94 12.34 44.88 12 51 C8.04 51 4.08 51 0 51 C0 34.17 0 17.34 0 0 Z " fill="#1C3142" transform="translate(588,229)"/>
<path d="M0 0 C5.94 0 11.88 0 18 0 C26.5 25.5 26.5 25.5 35 51 C30.38 51 25.76 51 21 51 C19 45 19 45 19 42 C9.1 42.495 9.1 42.495 -1 43 C-1.99 45.64 -2.98 48.28 -4 51 C-8.29 51 -12.58 51 -17 51 C-16.36164189 47.16985136 -15.84726913 44.16840522 -14.63305664 40.61865234 C-14.35929703 39.81116547 -14.08553741 39.00367859 -13.80348206 38.17172241 C-13.50868454 37.31841339 -13.21388702 36.46510437 -12.91015625 35.5859375 C-12.60556992 34.69387604 -12.30098358 33.80181458 -11.98716736 32.88272095 C-11.34468237 31.00437803 -10.69990684 29.12681721 -10.05297852 27.25 C-9.06406514 24.37954303 -8.08324257 21.50641621 -7.10351562 18.6328125 C-6.47703912 16.80452411 -5.85010168 14.97639359 -5.22265625 13.1484375 C-4.92988297 12.29108002 -4.63710968 11.43372253 -4.33546448 10.55038452 C-4.0585527 9.74920197 -3.78164093 8.94801941 -3.49633789 8.12255859 C-3.25508682 7.42117767 -3.01383575 6.71979675 -2.76527405 5.99716187 C-1.97761212 3.94157357 -0.98446478 1.96892957 0 0 Z " fill="#1F3444" transform="translate(670,229)"/>
<path d="M0 0 C5.94 0 11.88 0 18 0 C26.5 25.5 26.5 25.5 35 51 C30.38 51 25.76 51 21 51 C19 45 19 45 19 42 C12.07 42 5.14 42 -2 42 C-2.33 44.31 -2.66 46.62 -3 49 C-3.33 49.66 -3.66 50.32 -4 51 C-8.29 51 -12.58 51 -17 51 C-15.87483926 44.24903554 -15.87483926 44.24903554 -14.74072266 40.94165039 C-14.3649559 39.83503807 -14.3649559 39.83503807 -13.9815979 38.70606995 C-13.57691788 37.53865517 -13.57691788 37.53865517 -13.1640625 36.34765625 C-12.88404388 35.52929794 -12.60402527 34.71093964 -12.31552124 33.86778259 C-11.72431355 32.14326073 -11.13081346 30.41952325 -10.53515625 28.6965332 C-9.62976373 26.07628645 -8.73228095 23.45343238 -7.8359375 20.83007812 C-7.25827999 19.14827686 -6.68016979 17.46663099 -6.1015625 15.78515625 C-5.83582428 15.00890396 -5.57008606 14.23265167 -5.29629517 13.43287659 C-5.03947968 12.69198288 -4.78266418 11.95108917 -4.51806641 11.18774414 C-4.29680084 10.54631973 -4.07553528 9.90489532 -3.8475647 9.24403381 C-2.66827731 6.12172259 -1.31474342 3.06773465 0 0 Z " fill="#1F3444" transform="translate(389,127)"/>
<path d="M0 0 C4.62 0 9.24 0 14 0 C14.01981934 1.04454346 14.03963867 2.08908691 14.06005859 3.1652832 C14.13612114 7.0400405 14.22483728 10.91442257 14.31738281 14.78881836 C14.35566993 16.46582634 14.39052331 18.14291638 14.421875 19.82006836 C14.46753179 22.23060432 14.5255241 24.64057557 14.5859375 27.05078125 C14.59748871 27.80087967 14.60903992 28.55097809 14.62094116 29.32380676 C14.72695459 33.06127713 14.87619082 34.81428623 17 38 C20.60923962 39.20307987 23.21386577 39.40565724 27 39 C30.3135196 35.01600705 30.4674207 31.05106432 30.51171875 26.07421875 C30.52966995 25.32662796 30.54762115 24.57903717 30.56611633 23.80879211 C30.62003849 21.43508442 30.65405554 19.06157568 30.6875 16.6875 C30.72068921 15.07223805 30.75518035 13.45700229 30.79101562 11.84179688 C30.87575399 7.89467524 30.94265049 3.94761073 31 0 C35.62 0 40.24 0 45 0 C45.12425623 5.40763101 45.21464659 10.81441829 45.2746582 16.22314453 C45.29969289 18.06020599 45.33373145 19.89716893 45.37719727 21.73388672 C45.43834037 24.38533927 45.46631957 27.03546734 45.48828125 29.6875 C45.51408768 30.49928711 45.5398941 31.31107422 45.56648254 32.14746094 C45.56986311 39.13144019 43.00870085 43.88755085 38.1875 48.875 C29.82622404 53.17508478 19.90173426 52.98766274 10.96875 50.67578125 C6.50607898 49.14395171 4.07551636 46.5985422 1.87890625 42.5390625 C-1.43879628 34.85909531 -0.41460552 26.12817744 -0.25 17.9375 C-0.22990621 16.19598406 -0.21166053 14.45444576 -0.1953125 12.71289062 C-0.15153994 8.47470223 -0.08267248 4.23760079 0 0 Z " fill="#1F3445" transform="translate(352,26)"/>
<path d="M0 0 C4.62 0 9.24 0 14 0 C14.01981934 1.04454346 14.03963867 2.08908691 14.06005859 3.1652832 C14.13612114 7.0400405 14.22483728 10.91442257 14.31738281 14.78881836 C14.35566993 16.46582634 14.39052331 18.14291638 14.421875 19.82006836 C14.46753179 22.23060432 14.5255241 24.64057557 14.5859375 27.05078125 C14.59748871 27.80087967 14.60903992 28.55097809 14.62094116 29.32380676 C14.72695459 33.06127713 14.87619082 34.81428623 17 38 C20.55353929 39.1845131 23.27013478 39.26641894 27 39 C28.84877169 38.06445391 28.84877169 38.06445391 30 36 C30.33109523 33.20859238 30.48857678 30.62783312 30.51171875 27.83203125 C30.52966995 27.03721848 30.54762115 26.2424057 30.56611633 25.42350769 C30.6202697 22.88655899 30.65413028 20.34979893 30.6875 17.8125 C30.72066874 16.09177059 30.75515799 14.3710661 30.79101562 12.65039062 C30.87599873 8.43372978 30.94278542 4.21712536 31 0 C35.62 0 40.24 0 45 0 C45.0745935 5.12285234 45.12881017 10.24538304 45.16479492 15.36865234 C45.17980854 17.10861728 45.20022577 18.84854484 45.22631836 20.58837891 C45.26303107 23.1006802 45.27980069 25.6124778 45.29296875 28.125 C45.30845261 28.89303955 45.32393646 29.6610791 45.33988953 30.45239258 C45.34196411 37.22898939 44.07711947 42.77796522 39.3125 47.875 C31.38659928 52.95954009 22.22684799 52.93173916 13.1875 51.25 C7.94734986 49.91916822 5.04153622 47.74829294 2.25 43.0625 C0.04394033 37.65765382 -0.13801395 32.64000659 -0.09765625 26.85546875 C-0.09553383 25.7007885 -0.09553383 25.7007885 -0.09336853 24.52278137 C-0.08779606 22.07764712 -0.07524871 19.63260632 -0.0625 17.1875 C-0.05748144 15.52408987 -0.05291915 13.8606783 -0.04882812 12.19726562 C-0.03783566 8.13147472 -0.0205901 4.06575317 0 0 Z " fill="#1F3444" transform="translate(451,229)"/>
<path d="M0 0 C10.23 0 20.46 0 31 0 C31 3.63 31 7.26 31 11 C25.39 11 19.78 11 14 11 C14 13.64 14 16.28 14 19 C19.28 19 24.56 19 30 19 C30 22.63 30 26.26 30 30 C24.72 30 19.44 30 14 30 C14 33.3 14 36.6 14 40 C19.61 40 25.22 40 31 40 C31 43.63 31 47.26 31 51 C20.77 51 10.54 51 0 51 C0 34.17 0 17.34 0 0 Z " fill="#1C3142" transform="translate(744,127)"/>
<path d="M0 0 C10.23 0 20.46 0 31 0 C31 3.63 31 7.26 31 11 C25.39 11 19.78 11 14 11 C14 13.64 14 16.28 14 19 C19.28 19 24.56 19 30 19 C30 22.63 30 26.26 30 30 C24.72 30 19.44 30 14 30 C14 33.3 14 36.6 14 40 C19.61 40 25.22 40 31 40 C31 43.63 31 47.26 31 51 C20.77 51 10.54 51 0 51 C0 34.17 0 17.34 0 0 Z " fill="#1C3142" transform="translate(527,127)"/>
<path d="M0 0 C4.77268942 -0.52957239 9.24606963 -0.77463598 14 0 C17.0430991 2.51726947 18.40012304 5.43971044 20 9 C20.77930525 10.36131804 21.56958546 11.71646475 22.375 13.0625 C22.91125 14.031875 23.4475 15.00125 24 16 C28.29965825 11.20422734 31.00069343 5.65778285 34 0 C38.95 0 43.9 0 49 0 C43.68796665 9.76136054 38.34397936 19.50113492 32.84765625 29.16015625 C30.54955934 33.20212034 28.32099376 37.26513958 26.18235779 41.39257812 C24.66059919 44.3036089 23.07279116 47.17880706 21.5 50.0625 C20.95674072 51.1570752 20.41348145 52.25165039 19.85375977 53.37939453 C18.11023307 56.49231562 16.74891832 58.71593848 14 61 C9.1997418 61.89874115 4.82010078 61.66221726 0 61 C1.23101649 57.79802895 2.57714812 54.78355804 4.2421875 51.78515625 C4.66886719 51.01623047 5.09554687 50.24730469 5.53515625 49.45507812 C6.19837891 48.27075195 6.19837891 48.27075195 6.875 47.0625 C7.30941406 46.27681641 7.74382812 45.49113281 8.19140625 44.68164062 C10.11452071 41.23100733 12.02392903 37.91730124 14.3828125 34.74609375 C16.24337816 32.19471089 16.24337816 32.19471089 15.79638672 29.68041992 C14.87329604 26.57354911 13.54017213 24.14823031 11.875 21.3671875 C11.25109375 20.31402344 10.6271875 19.26085937 9.984375 18.17578125 C9.32953125 17.08652344 8.6746875 15.99726563 8 14.875 C6.70592296 12.70716621 5.4141447 10.53795802 4.125 8.3671875 C3.55007812 7.40925293 2.97515625 6.45131836 2.3828125 5.46435547 C1 3 1 3 0 0 Z " fill="#1F3444" transform="translate(127,118)"/>
<path d="M0 0 C-0.99 3.3 -1.98 6.6 -3 10 C-3.639375 9.690625 -4.27875 9.38125 -4.9375 9.0625 C-8.88258171 7.69379818 -12.82381739 7.11217019 -17 7 C-18.29633621 8.06645115 -18.29633621 8.06645115 -18.0625 10.5625 C-18.041875 11.366875 -18.02125 12.17125 -18 13 C-17.05640625 13.23783203 -17.05640625 13.23783203 -16.09375 13.48046875 C-9.07545813 15.39358747 -2.99154076 17.7280023 2 23.1875 C3.79130227 28.22553763 4.09649547 33.25876132 2.0859375 38.28515625 C-0.88800226 43.41760067 -4.51328706 46.83776235 -10.25 48.75 C-18.12142884 49.46558444 -24.26840162 49.64837856 -31 45 C-32.7265625 43.4765625 -32.7265625 43.4765625 -34 42 C-33.86443822 38.06870833 -31.19277917 35.11233172 -29 32 C-26.74842333 33.08409247 -24.73871477 34.18360583 -22.6875 35.625 C-19.25435268 37.38149398 -16.8068112 37.35913313 -13 37 C-10.79142762 35.17213728 -10.79142762 35.17213728 -10.5625 32.5625 C-10.73896708 29.8629749 -10.73896708 29.8629749 -12.9375 28.375 C-15.45520723 27.24460084 -17.80995422 26.42391595 -20.4375 25.625 C-24.95257337 24.19283983 -27.6523198 22.3476802 -31 19 C-32.35488172 14.93535485 -32.53762555 11.25014789 -32 7 C-30.1875 3.625 -30.1875 3.625 -28 1 C-27.566875 0.4225 -27.13375 -0.155 -26.6875 -0.75 C-18.59895118 -6.74151764 -7.9671427 -4.72126975 0 0 Z " fill="#1F3344" transform="translate(342,29)"/>
<path d="M0 0 C2.19140625 1.1015625 2.19140625 1.1015625 5.44140625 3.1015625 C4.45140625 6.0715625 3.46140625 9.0415625 2.44140625 12.1015625 C1.80203125 11.9571875 1.16265625 11.8128125 0.50390625 11.6640625 C-3.4808509 10.93216833 -7.5071313 10.28571988 -11.55859375 10.1015625 C-12.85492996 11.16801365 -12.85492996 11.16801365 -12.62109375 13.6640625 C-12.60046875 14.4684375 -12.57984375 15.2728125 -12.55859375 16.1015625 C-11.615 16.33939453 -11.615 16.33939453 -10.65234375 16.58203125 C-3.63405188 18.49514997 2.44986549 20.8295648 7.44140625 26.2890625 C9.23270852 31.32710013 9.53790172 36.36032382 7.52734375 41.38671875 C4.55340399 46.51916317 0.92811919 49.93932485 -4.80859375 51.8515625 C-12.68002259 52.56714694 -18.82699537 52.74994106 -25.55859375 48.1015625 C-26.58383974 47.12746257 -27.59165006 46.13356051 -28.55859375 45.1015625 C-27.4027409 41.18944517 -26.20324413 38.2270584 -23.55859375 35.1015625 C-21.30701708 36.18565497 -19.29730852 37.28516833 -17.24609375 38.7265625 C-13.81294643 40.48305648 -11.36540495 40.46069563 -7.55859375 40.1015625 C-5.35002137 38.27369978 -5.35002137 38.27369978 -5.12109375 35.6640625 C-5.29756083 32.9645374 -5.29756083 32.9645374 -7.49609375 31.4765625 C-10.01380098 30.34616334 -12.36854797 29.52547845 -14.99609375 28.7265625 C-19.51116712 27.29440233 -22.21091355 25.4492427 -25.55859375 22.1015625 C-26.91347547 18.03691735 -27.0962193 14.35171039 -26.55859375 10.1015625 C-24.74609375 6.7265625 -24.74609375 6.7265625 -22.55859375 4.1015625 C-22.08421875 3.5240625 -21.60984375 2.9465625 -21.12109375 2.3515625 C-15.43288931 -2.19900105 -6.64875484 -2.33467727 0 0 Z " fill="#1F3444" transform="translate(531.55859375,228.8984375)"/>
<path d="M0 0 C2.19140625 1.1015625 2.19140625 1.1015625 5.44140625 3.1015625 C4.45140625 6.4015625 3.46140625 9.7015625 2.44140625 13.1015625 C1.80203125 12.7921875 1.16265625 12.4828125 0.50390625 12.1640625 C-3.44117546 10.79536068 -7.38241114 10.21373269 -11.55859375 10.1015625 C-12.85492996 11.16801365 -12.85492996 11.16801365 -12.62109375 13.6640625 C-12.60046875 14.4684375 -12.57984375 15.2728125 -12.55859375 16.1015625 C-11.615 16.33939453 -11.615 16.33939453 -10.65234375 16.58203125 C-3.63405188 18.49514997 2.44986549 20.8295648 7.44140625 26.2890625 C9.23270852 31.32710013 9.53790172 36.36032382 7.52734375 41.38671875 C4.55340399 46.51916317 0.92811919 49.93932485 -4.80859375 51.8515625 C-12.68002259 52.56714694 -18.82699537 52.74994106 -25.55859375 48.1015625 C-26.58383974 47.12746257 -27.59165006 46.13356051 -28.55859375 45.1015625 C-27.4027409 41.18944517 -26.20324413 38.2270584 -23.55859375 35.1015625 C-21.30701708 36.18565497 -19.29730852 37.28516833 -17.24609375 38.7265625 C-13.81294643 40.48305648 -11.36540495 40.46069563 -7.55859375 40.1015625 C-5.35002137 38.27369978 -5.35002137 38.27369978 -5.12109375 35.6640625 C-5.29756083 32.9645374 -5.29756083 32.9645374 -7.49609375 31.4765625 C-10.01380098 30.34616334 -12.36854797 29.52547845 -14.99609375 28.7265625 C-19.51116712 27.29440233 -22.21091355 25.4492427 -25.55859375 22.1015625 C-26.91347547 18.03691735 -27.0962193 14.35171039 -26.55859375 10.1015625 C-24.74609375 6.7265625 -24.74609375 6.7265625 -22.55859375 4.1015625 C-22.08421875 3.5240625 -21.60984375 2.9465625 -21.12109375 2.3515625 C-15.43288931 -2.19900105 -6.64875484 -2.33467727 0 0 Z " fill="#1E3344" transform="translate(609.55859375,25.8984375)"/>
<path d="M0 0 C-0.99 3.3 -1.98 6.6 -3 10 C-3.639375 9.690625 -4.27875 9.38125 -4.9375 9.0625 C-8.88258171 7.69379818 -12.82381739 7.11217019 -17 7 C-18.29633621 8.06645115 -18.29633621 8.06645115 -18.0625 10.5625 C-18.041875 11.366875 -18.02125 12.17125 -18 13 C-17.05640625 13.23783203 -17.05640625 13.23783203 -16.09375 13.48046875 C-9.07545813 15.39358747 -2.99154076 17.7280023 2 23.1875 C3.79130227 28.22553763 4.09649547 33.25876132 2.0859375 38.28515625 C-0.88800226 43.41760067 -4.51328706 46.83776235 -10.25 48.75 C-11.1575 48.8325 -12.065 48.915 -13 49 C-13.7321875 49.07476562 -14.464375 49.14953125 -15.21875 49.2265625 C-21.80342075 49.6127006 -26.8359132 48.22920902 -32 44 C-33.3984375 42.09375 -33.3984375 42.09375 -34 40 C-33.1015625 37.859375 -33.1015625 37.859375 -31.625 35.75 C-31.14289062 35.04359375 -30.66078125 34.3371875 -30.1640625 33.609375 C-29.77992188 33.07828125 -29.39578125 32.5471875 -29 32 C-26.74370103 33.09252371 -24.74608279 34.17842831 -22.6875 35.625 C-19.25435268 37.38149398 -16.8068112 37.35913313 -13 37 C-10.79142762 35.17213728 -10.79142762 35.17213728 -10.5625 32.5625 C-10.73896708 29.8629749 -10.73896708 29.8629749 -12.9375 28.375 C-15.45520723 27.24460084 -17.80995422 26.42391595 -20.4375 25.625 C-24.95257337 24.19283983 -27.6523198 22.3476802 -31 19 C-32.35488172 14.93535485 -32.53762555 11.25014789 -32 7 C-30.1875 3.625 -30.1875 3.625 -28 1 C-27.566875 0.4225 -27.13375 -0.155 -26.6875 -0.75 C-18.59895118 -6.74151764 -7.9671427 -4.72126975 0 0 Z " fill="#1D3243" transform="translate(802,29)"/>
<path d="M0 0 C5.28 0 10.56 0 16 0 C17.155 2.26875 18.31 4.5375 19.5 6.875 C19.86544922 7.58769043 20.23089844 8.30038086 20.60742188 9.03466797 C23 13.77777778 23 13.77777778 23 16 C23.66 16 24.32 16 25 16 C25.3403125 14.824375 25.3403125 14.824375 25.6875 13.625 C27.41324576 8.85865456 29.68429514 4.50953051 32 0 C37.28 0 42.56 0 48 0 C45.53353546 5.36187944 42.62931309 10.2975645 39.4375 15.25 C39.04957275 15.85215332 38.66164551 16.45430664 38.26196289 17.07470703 C35.22447355 21.74306749 35.22447355 21.74306749 33.39941406 23.83203125 C31.59615806 26.62563092 31.57269616 28.5503106 31.48828125 31.859375 C31.45283203 32.97441406 31.41738281 34.08945312 31.38085938 35.23828125 C31.35830078 36.39714844 31.33574219 37.55601563 31.3125 38.75 C31.27833984 39.92433594 31.24417969 41.09867188 31.20898438 42.30859375 C31.1265551 45.20539401 31.06159987 48.10268196 31 51 C26.38 51 21.76 51 17 51 C17.04382813 49.36933594 17.08765625 47.73867187 17.1328125 46.05859375 C17.22296447 32.21337303 16.19538323 23.2764933 7.24951172 12.59033203 C4.25309642 8.77660611 2.22956152 4.28310503 0 0 Z " fill="#213545" transform="translate(826,26)"/>
<path d="M0 0 C5.03975355 4.49491533 7.56589429 8.35064978 8.35546875 14.98828125 C8.69281976 22.74735445 7.59385771 28.64899172 3 35 C-0.75626706 39.03295637 -5.0525502 42.86602501 -10.75 43.125 C-11.4925 43.08375 -12.235 43.0425 -13 43 C-13.98120464 39.94736336 -13.98120464 38.05263664 -13 35 C-12.34 35 -11.68 35 -11 35 C-11 34.34 -11 33.68 -11 33 C-12.32 33.66 -13.64 34.32 -15 35 C-15 34.34 -15 33.68 -15 33 C-17.97 33 -20.94 33 -24 33 C-24 23.43 -24 13.86 -24 4 C-13.94117647 4 -13.94117647 4 -9 8 C-8.01 8.66 -7.02 9.32 -6 10 C-6 9.34 -6 8.68 -6 8 C-5.34 8 -4.68 8 -4 8 C-3.34 6.02 -2.68 4.04 -2 2 C-1.34 2 -0.68 2 0 2 C0 1.34 0 0.68 0 0 Z " fill="#1F3445" transform="translate(435,236)"/>
<path d="M0 0 C12.21 0 24.42 0 37 0 C37 3.96 37 7.92 37 12 C33.04 12 29.08 12 25 12 C25 24.87 25 37.74 25 51 C20.71 51 16.42 51 12 51 C12 38.13 12 25.26 12 12 C8.04 12 4.08 12 0 12 C0 8.04 0 4.08 0 0 Z " fill="#1C3142" transform="translate(544,229)"/>
<path d="M0 0 C12.21 0 24.42 0 37 0 C37 3.96 37 7.92 37 12 C33.04 12 29.08 12 25 12 C25 24.87 25 37.74 25 51 C20.71 51 16.42 51 12 51 C12 38.13 12 25.26 12 12 C8.04 12 4.08 12 0 12 C0 8.04 0 4.08 0 0 Z " fill="#1C3142" transform="translate(841,127)"/>
<path d="M0 0 C12.21 0 24.42 0 37 0 C37 3.96 37 7.92 37 12 C33.04 12 29.08 12 25 12 C25 24.87 25 37.74 25 51 C20.71 51 16.42 51 12 51 C12 38.13 12 25.26 12 12 C8.04 12 4.08 12 0 12 C0 8.04 0 4.08 0 0 Z " fill="#1C3142" transform="translate(484,127)"/>
<path d="M0 0 C12.21 0 24.42 0 37 0 C37 3.96 37 7.92 37 12 C33.04 12 29.08 12 25 12 C25 24.87 25 37.74 25 51 C20.71 51 16.42 51 12 51 C12 38.13 12 25.26 12 12 C8.04 12 4.08 12 0 12 C0 8.04 0 4.08 0 0 Z " fill="#1C3142" transform="translate(622,26)"/>
<path d="M0 0 C4.62 0 9.24 0 14 0 C14 12.87 14 25.74 14 39 C19.61 39 25.22 39 31 39 C31 42.96 31 46.92 31 51 C20.77 51 10.54 51 0 51 C0 34.17 0 17.34 0 0 Z " fill="#203545" transform="translate(709,229)"/>
<path d="M0 0 C6.93 0 13.86 0 21 0 C21 74.58 21 149.16 21 226 C33.21 226 45.42 226 58 226 C58 229.96 58 233.92 58 238 C38.86 238 19.72 238 0 238 C0 159.46 0 80.92 0 0 Z M2 1 C2 78.88 2 156.76 2 237 C19.82 237 37.64 237 56 237 C56 234.03 56 231.06 56 228 C54.97527588 227.97494385 53.95055176 227.9498877 52.89477539 227.92407227 C49.10590324 227.83015516 45.31722119 227.72989683 41.52856445 227.62768555 C39.88635697 227.58427703 38.24410261 227.54260642 36.60180664 227.50268555 C34.24611255 227.4451256 31.89065572 227.38139108 29.53515625 227.31640625 C28.79660904 227.29969376 28.05806183 227.28298126 27.2971344 227.26576233 C22.11387171 227.11387171 22.11387171 227.11387171 21 226 C20.88962846 223.10513911 20.84502768 220.23362561 20.84178162 217.33787537 C20.83437465 215.95839481 20.83437465 215.95839481 20.82681805 214.55104595 C20.81136208 211.44475848 20.80306064 208.33849178 20.79467773 205.23217773 C20.78510556 203.01530776 20.77509589 200.79843965 20.76467896 198.58157349 C20.73755216 192.54258088 20.71658483 186.50358041 20.69667697 180.46456027 C20.67486519 174.16109693 20.64745307 167.85765809 20.62062073 161.55421448 C20.57631631 150.96755031 20.53549214 140.38087711 20.49731445 129.79418945 C20.45797485 118.88792948 20.41655233 107.98168071 20.37231445 97.07543945 C20.36959018 96.40362817 20.36686591 95.73181689 20.36405908 95.03964769 C20.35037986 91.66950215 20.33665953 88.29935678 20.32291877 84.9292115 C20.20899868 56.9528304 20.10238102 28.9764255 20 1 C14.06 1 8.12 1 2 1 Z " fill="#D1CB39" transform="translate(9,40)"/>
<path d="M0 0 C4.62 0 9.24 0 14 0 C14 16.83 14 33.66 14 51 C9.38 51 4.76 51 0 51 C0 34.17 0 17.34 0 0 Z " fill="#213647" transform="translate(633,229)"/>
<path d="M0 0 C4.62 0 9.24 0 14 0 C14 16.83 14 33.66 14 51 C9.38 51 4.76 51 0 51 C0 34.17 0 17.34 0 0 Z " fill="#213647" transform="translate(312,229)"/>
<path d="M0 0 C4.62 0 9.24 0 14 0 C14 16.83 14 33.66 14 51 C9.38 51 4.76 51 0 51 C0 34.17 0 17.34 0 0 Z " fill="#213647" transform="translate(720,127)"/>
<path d="M0 0 C4.62 0 9.24 0 14 0 C14 16.83 14 33.66 14 51 C9.38 51 4.76 51 0 51 C0 34.17 0 17.34 0 0 Z " fill="#213646" transform="translate(629,127)"/>
<path d="M0 0 C4.62 0 9.24 0 14 0 C14 16.83 14 33.66 14 51 C9.38 51 4.76 51 0 51 C0 34.17 0 17.34 0 0 Z " fill="#213647" transform="translate(474,26)"/>
<path d="M0 0 C4.62 0 9.24 0 14 0 C14 16.83 14 33.66 14 51 C9.38 51 4.76 51 0 51 C0 34.17 0 17.34 0 0 Z " fill="#213647" transform="translate(560,26)"/>
<path d="M0 0 C7.59 0.33 15.18 0.66 23 1 C23 1.33 23 1.66 23 2 C16.07 2 9.14 2 2 2 C2 80.54 2 159.08 2 240 C21.14 240 40.28 240 60 240 C60 236.04 60 232.08 60 228 C60.66 228 61.32 228 62 228 C62 232.62 62 237.24 62 242 C41.54 242 21.08 242 0 242 C0 162.14 0 82.28 0 0 Z " fill="#273022" transform="translate(7,38)"/>
<path d="M0 0 C4.03843343 2.60254599 6.29289779 5.25369336 7.8125 9.8125 C8.20930449 15.07015945 7.70748146 18.37352842 4.8125 22.8125 C1.53487542 26.4022793 -0.86137391 28.13938105 -5.6875 28.375 C-10.12851499 28.10584758 -12.80986637 26.78803438 -16.1875 23.8125 C-19.56009161 19.99022951 -19.70003633 16.22610807 -19.5390625 11.31640625 C-18.84393446 6.36554988 -16.73698268 3.11071522 -12.875 -0.125 C-8.23902949 -1.95782555 -4.63809927 -1.72791934 0 0 Z " fill="#F7F9F9" transform="translate(914.1875,139.1875)"/>
<path d="M0 0 C4.03843343 2.60254599 6.29289779 5.25369336 7.8125 9.8125 C8.20930449 15.07015945 7.70748146 18.37352842 4.8125 22.8125 C1.53487542 26.4022793 -0.86137391 28.13938105 -5.6875 28.375 C-10.12851499 28.10584758 -12.80986637 26.78803438 -16.1875 23.8125 C-19.56009161 19.99022951 -19.70003633 16.22610807 -19.5390625 11.31640625 C-18.84393446 6.36554988 -16.73698268 3.11071522 -12.875 -0.125 C-8.23902949 -1.95782555 -4.63809927 -1.72791934 0 0 Z " fill="#F7F9F9" transform="translate(741.1875,38.1875)"/>
<path d="M0 0 C10.17647059 0 10.17647059 0 15 4 C18.0805726 7.0805726 18.15082622 10.20534616 18.1875 14.4375 C18.12800784 18.06652203 17.90645534 20.82257443 16 24 C10.06687273 29.33981454 8.89021897 29 0 29 C0 19.43 0 9.86 0 0 Z " fill="#F8FAFB" transform="translate(411,240)"/>
<path d="M0 0 C0.66 0 1.32 0 2 0 C2.33 0.66 2.66 1.32 3 2 C3.99 2.33 4.98 2.66 6 3 C5.67 4.32 5.34 5.64 5 7 C6.32 6.67 7.64 6.34 9 6 C14.17767264 12.37373076 18.69963374 19.0070032 23 26 C12.06346661 27.55288156 12.06346661 27.55288156 7 26 C3.10540169 22.13318057 1.22954593 18.01794902 -1 13 C-1.56332031 12.07703125 -2.12664063 11.1540625 -2.70703125 10.203125 C-4 8 -4 8 -3.875 5.9375 C-2.84113121 3.64821911 -1.67342877 1.87424023 0 0 Z " fill="#1F3445" transform="translate(605,254)"/>
<path d="M0 0 C5.28 0 10.56 0 16 0 C16 3.3 16 6.6 16 10 C9.07 10 2.14 10 -5 10 C-3.35 6.7 -1.7 3.4 0 0 Z " fill="#EFE41F" transform="translate(193,117)"/>
<path d="M0 0 C0.33 0 0.66 0 1 0 C1 11.22 1 22.44 1 34 C0.67 33.34 0.34 32.68 0 32 C-3.62885324 31.84850702 -3.62885324 31.84850702 -7 33 C-7.66 32.67 -8.32 32.34 -9 32 C-9.33 33.32 -9.66 34.64 -10 36 C-13.18005028 32.11327187 -16.10554447 28.10047867 -19 24 C-15.81237635 21.87491756 -13.73487777 21.4979837 -10 21 C-10 21.66 -10 22.32 -10 23 C-9.2575 22.87625 -8.515 22.7525 -7.75 22.625 C-6.8425 22.74875 -5.935 22.8725 -5 23 C-3.02 25.97 -3.02 25.97 -1 29 C-0.67 19.43 -0.34 9.86 0 0 Z " fill="#354958" transform="translate(464,127)"/>
<path d="M0 0 C2.66256029 2.66256029 3.05147436 5.07010408 4.0625 8.6875 C4.40410156 9.88761719 4.74570312 11.08773437 5.09765625 12.32421875 C5.97679126 15.90545704 6.54512357 19.34692022 7 23 C2.71 23 -1.58 23 -6 23 C-4.38911645 15.21406284 -2.23456312 7.62571782 0 0 Z " fill="#EEF3F4" transform="translate(678,238)"/>
<path d="M0 0 C2.66256029 2.66256029 3.05147436 5.07010408 4.0625 8.6875 C4.40410156 9.88761719 4.74570312 11.08773437 5.09765625 12.32421875 C5.97679126 15.90545704 6.54512357 19.34692022 7 23 C2.71 23 -1.58 23 -6 23 C-4.38911645 15.21406284 -2.23456312 7.62571782 0 0 Z " fill="#EFF3F5" transform="translate(397,136)"/>
<path d="M0 0 C2.26171875 0.02734375 2.26171875 0.02734375 5 1 C6.81992665 3.17870393 8.30854505 5.18770258 9.8125 7.5625 C10.21919922 8.17802734 10.62589844 8.79355469 11.04492188 9.42773438 C12.0433873 10.94305249 13.02353265 12.47041388 14 14 C11.11288129 14.82020418 8.49986689 15.16181621 5.5 15.1875 C4.7471875 15.20167969 3.994375 15.21585938 3.21875 15.23046875 C0.75135827 14.97417278 -0.86356256 14.22845153 -3 13 C-3.05422947 11.5629191 -3.09289723 10.12524538 -3.125 8.6875 C-3.14820313 7.88699219 -3.17140625 7.08648437 -3.1953125 6.26171875 C-2.95960019 3.53217016 -1.95098132 1.95098132 0 0 Z " fill="#233644" transform="translate(444,135)"/>
<path d="M0 0 C12.21 0 24.42 0 37 0 C37 3.96 37 7.92 37 12 C18.19 12 -0.62 12 -20 12 C-20 11.67 -20 11.34 -20 11 C-1.85 11 16.3 11 35 11 C35 8.03 35 5.06 35 2 C23.78 2 12.56 2 1 2 C0.67 1.34 0.34 0.68 0 0 Z " fill="#D6CF33" transform="translate(30,266)"/>
<path d="M0 0 C1.34313399 0.64669414 2.67391178 1.31903578 4 2 C4.9075 2.45375 5.815 2.9075 6.75 3.375 C7.4925 3.91125 8.235 4.4475 9 5 C9 9 9 9 7.5 10.75 C7.005 11.1625 6.51 11.575 6 12 C6.99 13.65 7.98 15.3 9 17 C2.94462479 16.69723124 -0.51483458 13.72245962 -5 10 C-3.84414715 6.08788267 -2.64465038 3.1254959 0 0 Z " fill="#223746" transform="translate(586,61)"/>
<path d="M0 0 C4.62 0 9.24 0 14 0 C12.24858504 4.3785374 10.37016034 7.97072742 8 12 C5.36 12 2.72 12 0 12 C0 8.04 0 4.08 0 0 Z " fill="#D9CD28" transform="translate(90,176)"/>
<path d="M0 0 C7.32215357 -0.36010591 7.32215357 -0.36010591 10 1.0625 C11.58433618 4.13215135 11.36248449 6.61681143 11 10 C10 11.9375 10 11.9375 8 13 C5.28117977 13.23595284 2.74042978 13.13477523 0 13 C0 8.71 0 4.42 0 0 Z " fill="#EEF2F3" transform="translate(600,240)"/>
<path d="M0 0 C7.32215357 -0.36010591 7.32215357 -0.36010591 10 1.0625 C11.58433618 4.13215135 11.36248449 6.61681143 11 10 C10 11.9375 10 11.9375 8 13 C5.28117977 13.23595284 2.74042978 13.13477523 0 13 C0 8.71 0 4.42 0 0 Z " fill="#EEF3F4" transform="translate(678,37)"/>
<path d="M0 0 C4.12751449 0.60698743 7.3321148 2.03810791 11 4 C10.01 7.3 9.02 10.6 8 14 C4.89656201 12.79310745 1.98806107 11.49403054 -1 10 C-0.67 6.7 -0.34 3.4 0 0 Z " fill="#283B4A" transform="translate(331,25)"/>
<path d="M0 0 C2.6875 0.0625 2.6875 0.0625 6 1 C7.99364654 3.14304124 9.51532107 5.48392907 11 8 C10.67 8.66 10.34 9.32 10 10 C6.86559131 11.0448029 5.97903963 11.15317663 3 10 C2.34 9.01 1.68 8.02 1 7 C0.38125 7.350625 -0.2375 7.70125 -0.875 8.0625 C-1.57625 8.371875 -2.2775 8.68125 -3 9 C-3.66 8.67 -4.32 8.34 -5 8 C-4.67 6.68 -4.34 5.36 -4 4 C-4 4.66 -4 5.32 -4 6 C-3.34 6 -2.68 6 -2 6 C-2 4.68 -2 3.36 -2 2 C-1.34 2 -0.68 2 0 2 C0 1.34 0 0.68 0 0 Z " fill="#263A4B" transform="translate(803,139)"/>
<path d="M0 0 C3.27642756 0.25866533 4.60820723 0.55416685 6.8125 3.0625 C7.204375 3.701875 7.59625 4.34125 8 5 C7.67 5.66 7.34 6.32 7 7 C6.195625 7.103125 5.39125 7.20625 4.5625 7.3125 C3.716875 7.539375 2.87125 7.76625 2 8 C0.62533375 10.47636012 0.62533375 10.47636012 0 13 C-0.99 13 -1.98 13 -3 13 C-3.05422947 11.5629191 -3.09289723 10.12524538 -3.125 8.6875 C-3.14820313 7.88699219 -3.17140625 7.08648437 -3.1953125 6.26171875 C-2.95960019 3.53217016 -1.95098132 1.95098132 0 0 Z " fill="#263B4C" transform="translate(444,135)"/>
<path d="M0 0 C4.12751449 0.60698743 7.3321148 2.03810791 11 4 C10.01 7.3 9.02 10.6 8 14 C5.525 13.01 5.525 13.01 3 12 C3.66 10.35 4.32 8.7 5 7 C4.175 6.030625 3.35 5.06125 2.5 4.0625 C0 1 0 1 0 0 Z " fill="#2D3E4B" transform="translate(791,25)"/>
<path d="M0 0 C0.66 0 1.32 0 2 0 C1.38489368 4.30574422 0.40932954 5.98445076 -2 10 C4.27 10.33 10.54 10.66 17 11 C17 11.33 17 11.66 17 12 C10.07 12 3.14 12 -4 12 C-2.81690141 3.71830986 -2.81690141 3.71830986 0 0 Z " fill="#575A25" transform="translate(191,116)"/>
<path d="M0 0 C0.66 0.33 1.32 0.66 2 1 C2 3.31 2 5.62 2 8 C0.34385343 8.38218767 -1.32457024 8.71395102 -3 9 C-4 8 -4 8 -4.3125 5.625 C-4 3 -4 3 -2 1.1875 C-1.34 0.795625 -0.68 0.40375 0 0 Z " fill="#1A3041" transform="translate(448,141)"/>
<path d="M0 0 C2.25245881 2.68841859 3.88213958 4.64641875 5 8 C4.29875 7.855625 3.5975 7.71125 2.875 7.5625 C-0.07556141 6.98521625 -3.03270151 6.48304859 -6 6 C-5.67 5.01 -5.34 4.02 -5 3 C-4.01 2.67 -3.02 2.34 -2 2 C-1.34 2.33 -0.68 2.66 0 3 C0 2.01 0 1.02 0 0 Z " fill="#253847" transform="translate(700,69)"/>
<path d="M0 0 C1.98 0 3.96 0 6 0 C6 1.32 6 2.64 6 4 C5.34 4 4.68 4 4 4 C4 4.66 4 5.32 4 6 C2.68 6 1.36 6 0 6 C0 4.02 0 2.04 0 0 Z " fill="#FCEC01" transform="translate(93,179)"/>
<path d="M0 0 C0.66 0 1.32 0 2 0 C1.43197762 3.97615668 0.79258601 7.03816635 -2 10 C-5.36977285 10.4348094 -8.62122848 10.28526214 -12 10 C-12 9.67 -12 9.34 -12 9 C-9.36 9 -6.72 9 -4 9 C-3.71125 8.2575 -3.4225 7.515 -3.125 6.75 C-2.17697356 4.43260203 -1.15154089 2.22082885 0 0 Z " fill="#303A22" transform="translate(102,179)"/>
<path d="M0 0 C2.875 0.25 2.875 0.25 6 1 C8.48868169 4.05429117 8.17309921 7.19181728 8 11 C5.0843836 7.45960866 2.49872182 3.8373228 0 0 Z " fill="#2B3B49" transform="translate(446,152)"/>
<path d="M0 0 C1.32 0 2.64 0 4 0 C4 3.96 4 7.92 4 12 C3.01 12 2.02 12 1 12 C1.33 8.7 1.66 5.4 2 2 C1.34 2 0.68 2 0 2 C0 1.34 0 0.68 0 0 Z " fill="#2C3946" transform="translate(874,127)"/>
<path d="M0 0 C0.99 0.33 1.98 0.66 3 1 C2.2884375 1.61875 2.2884375 1.61875 1.5625 2.25 C-0.20794514 4.23289856 -0.45674597 5.4389453 -1 8 C-1.63654342 9.3479743 -2.29605388 10.68596724 -3 12 C-4.1484375 10.265625 -4.1484375 10.265625 -5 8 C-4.1015625 5.859375 -4.1015625 5.859375 -2.625 3.75 C-2.14289062 3.04359375 -1.66078125 2.3371875 -1.1640625 1.609375 C-0.77992188 1.07828125 -0.39578125 0.5471875 0 0 Z " fill="#263745" transform="translate(773,61)"/>
<path d="M0 0 C0.66 0.66 1.32 1.32 2 2 C1.67 2.66 1.34 3.32 1 4 C2.65 3.67 4.3 3.34 6 3 C6.33 3.66 6.66 4.32 7 5 C6.67 5.99 6.34 6.98 6 8 C3.0280615 6.87548273 0.66559313 5.77706209 -2 4 C-1.34 4 -0.68 4 0 4 C0 2.68 0 1.36 0 0 Z " fill="#384854" transform="translate(606,31)"/>
<path d="M0 0 C2.1640625 0.77734375 2.1640625 0.77734375 4.625 1.9375 C5.44226563 2.31777344 6.25953125 2.69804687 7.1015625 3.08984375 C7.72804688 3.39019531 8.35453125 3.69054687 9 4 C9 4.66 9 5.32 9 6 C4.12637153 5.54663921 1.60957611 4.2910841 -2 1 C-1.34 0.67 -0.68 0.34 0 0 Z " fill="#374652" transform="translate(508,275)"/>
<path d="M0 0 C1.70884005 1.62339805 3.37446717 3.29319053 5 5 C5 5.66 5 6.32 5 7 C3.35 7 1.7 7 0 7 C-1.04449911 3.86650268 -0.93423645 3.01031744 0 0 Z " fill="#2B3C49" transform="translate(612,48)"/>
<path d="M0 0 C0.66 0 1.32 0 2 0 C0.8141763 3.37503669 -0.27573689 5.64722731 -3 8 C-3.99 7.67 -4.98 7.34 -6 7 C-5.04882866 5.8274869 -4.08882991 4.66212985 -3.125 3.5 C-2.59132813 2.8503125 -2.05765625 2.200625 -1.5078125 1.53125 C-0.76144531 0.77328125 -0.76144531 0.77328125 0 0 Z " fill="#293A48" transform="translate(512,230)"/>
<path d="M0 0 C0 3 0 3 -2.3125 5.6875 C-5 8 -5 8 -8 8 C-3.45945946 0 -3.45945946 0 0 0 Z " fill="#293A47" transform="translate(779,27)"/>
<path d="M0 0 C0.556875 0.474375 1.11375 0.94875 1.6875 1.4375 C4.18346074 3.12395996 6.0446237 3.58953107 9 4 C9 4.33 9 4.66 9 5 C5.37 5 1.74 5 -2 5 C-2 3.68 -2 2.36 -2 1 C-1.34 0.67 -0.68 0.34 0 0 Z " fill="#1E2E3B" transform="translate(614,275)"/>
<path d="M0 0 C0.66 0 1.32 0 2 0 C0.79157144 4.43090471 -0.51668565 6.98112756 -4 10 C-4 8.68 -4 7.36 -4 6 C-3.34 6 -2.68 6 -2 6 C-1.855625 5.195625 -1.71125 4.39125 -1.5625 3.5625 C-1 1 -1 1 0 0 Z " fill="#EAE12A" transform="translate(101,177)"/>
<path d="M0 0 C0.66 0 1.32 0 2 0 C2 0.66 2 1.32 2 2 C2.99 2.33 3.98 2.66 5 3 C5 4.65 5 6.3 5 8 C4.01 8.495 4.01 8.495 3 9 C2.67 7.68 2.34 6.36 2 5 C1.01 5.495 1.01 5.495 0 6 C0 4.02 0 2.04 0 0 Z " fill="#475866" transform="translate(421,45)"/>
<path d="M0 0 C3.3 0 6.6 0 10 0 C6.66189518 1.66905241 3.53842155 2.8741386 0 4 C0 2.68 0 1.36 0 0 Z " fill="#1F2D37" transform="translate(633,229)"/>
<path d="M0 0 C1.32 0.66 2.64 1.32 4 2 C2.75 3.5625 2.75 3.5625 1 5 C-1.1875 4.6875 -1.1875 4.6875 -3 4 C-2.01 2.68 -1.02 1.36 0 0 Z " fill="#283946" transform="translate(313,61)"/>
<path d="M0 0 C2 2 2 2 2.1953125 4.3828125 C2.17210937 5.28773437 2.14890625 6.19265625 2.125 7.125 C2.10695313 8.03507812 2.08890625 8.94515625 2.0703125 9.8828125 C2.03550781 10.93082031 2.03550781 10.93082031 2 12 C1.01 10.68 0.02 9.36 -1 8 C-0.34 6.68 0.32 5.36 1 4 C0.34 3.67 -0.32 3.34 -1 3 C-0.67 2.01 -0.34 1.02 0 0 Z " fill="#505D68" transform="translate(803,53)"/>
<path d="M0 0 C2.1519437 3.22791555 2.20086443 4.28400809 2 8 C1.01 8 0.02 8 -1 8 C-1.625 5.125 -1.625 5.125 -2 2 C-1.34 1.34 -0.68 0.68 0 0 Z " fill="#1C2E3C" transform="translate(459,38)"/>
<path d="M0 0 C1.32 0.33 2.64 0.66 4 1 C2.35 2.98 0.7 4.96 -1 7 C-2 4 -2 4 -1.0625 1.8125 C-0.5365625 0.9153125 -0.5365625 0.9153125 0 0 Z " fill="#2A3A47" transform="translate(612,68)"/>
<path d="M0 0 C0.99 0.495 0.99 0.495 2 1 C1.01 1.495 1.01 1.495 0 2 C0 1.34 0 0.68 0 0 Z M-2 1 C-0.97895449 1.97850195 0.0206121 2.97980427 1 4 C1 4.33 1 4.66 1 5 C-1.31 4.67 -3.62 4.34 -6 4 C-4.68 3.01 -3.36 2.02 -2 1 Z " fill="#2C3D4B" transform="translate(785,50)"/>
<path d="M0 0 C0.99 1.32 1.98 2.64 3 4 C2.34 5.32 1.68 6.64 1 8 C0.34 8 -0.32 8 -1 8 C-1.04241723 5.66705225 -1.04092937 3.33297433 -1 1 C-0.67 0.67 -0.34 0.34 0 0 Z " fill="#2A3A48" transform="translate(591,140)"/>
</svg>
