<?xml version="1.0" encoding="UTF-8" standalone="no"?>
<!-- Created with Inkscape (http://www.inkscape.org/) -->

<svg
   version="1.1"
   id="svg1"
   width="4998"
   height="1410"
   viewBox="0 0 4998 1410"
   sodipodi:docname="HYH Logo.svg"
   inkscape:version="1.3.2 (091e20e, 2023-11-25, custom)"
   xmlns:inkscape="http://www.inkscape.org/namespaces/inkscape"
   xmlns:sodipodi="http://sodipodi.sourceforge.net/DTD/sodipodi-0.dtd"
   xmlns="http://www.w3.org/2000/svg"
   xmlns:svg="http://www.w3.org/2000/svg">
  <defs
     id="defs1">
    <inkscape:perspective
       sodipodi:type="inkscape:persp3d"
       inkscape:vp_x="0 : 705 : 1"
       inkscape:vp_y="0 : 1000 : 0"
       inkscape:vp_z="4998 : 705 : 1"
       inkscape:persp3d-origin="2499 : 470 : 1"
       id="perspective4" />
  </defs>
  <sodipodi:namedview
     id="namedview1"
     pagecolor="#ffffff"
     bordercolor="#999999"
     borderopacity="1"
     inkscape:showpageshadow="2"
     inkscape:pageopacity="0"
     inkscape:pagecheckerboard="0"
     inkscape:deskcolor="#d1d1d1"
     showgrid="false"
     inkscape:zoom="0.14928528"
     inkscape:cx="1004.7876"
     inkscape:cy="653.11195"
     inkscape:window-width="1920"
     inkscape:window-height="1009"
     inkscape:window-x="-8"
     inkscape:window-y="-8"
     inkscape:window-maximized="1"
     inkscape:current-layer="g1" />
  <g
     inkscape:groupmode="layer"
     inkscape:label="Image"
     id="g1">
    <rect
       style="fill:#fff301;stroke:none;stroke-width:0.180998;stroke-linecap:round;paint-order:stroke markers fill"
       id="rect3"
       width="57.102001"
       height="66.910873"
       x="461.36652"
       y="828.20343" />
    <rect
       style="fill:#fff301;stroke:none;stroke-width:0.236466;stroke-linecap:round;paint-order:stroke markers fill"
       id="rect3-6"
       width="97.463539"
       height="66.910873"
       x="1011.9011"
       y="511.61652" />
    <ellipse
       style="fill:#fff301;stroke:none;stroke-width:0.63496063;stroke-linecap:round;paint-order:stroke markers fill;stroke-dasharray:none"
       id="path9"
       cx="501.11209"
       cy="837.633"
       rx="40.294212"
       ry="46.060143" />
    <ellipse
       style="fill:#fff301;stroke:none;stroke-width:0.634961;stroke-linecap:round;stroke-dasharray:none;paint-order:stroke markers fill"
       id="path9-2"
       cx="1025.2206"
       cy="568.47333"
       rx="40.294212"
       ry="46.060143" />
    <rect
       style="fill:#fff301;stroke:#000000;stroke-width:0.904788;stroke-linecap:round;paint-order:stroke markers fill"
       id="rect2"
       width="315.67322"
       height="1274.3907"
       x="30.797997"
       y="99.271614" />
    <rect
       style="fill:#fff301;stroke:#000000;stroke-width:0.5;stroke-linecap:round;paint-order:stroke markers fill"
       id="rect1"
       width="315.64682"
       height="1274.0341"
       x="1177.3263"
       y="30.712471" />
    <path
       style="fill:#1a3243;stroke:none"
       d="m 1173.002,24.95764 c -4.9448,2.92785 -3.1482,12.14428 -3.1482,16.97229 0,11.81616 1.1154,24.27795 -0.4244,36 -0.4717,3.59045 0.1,8.73266 -2.3179,11.68286 -2.9756,3.6311 -10.0238,3.29602 -14.2577,3.3164 -12.3326,0.0594 -24.6671,7.4e-4 -37,7.4e-4 -5.4025,0 -13.7283,-1.64161 -16.8202,4.05859 -3.1796,5.8617 -0.1798,19.1604 -0.1798,25.94141 v 67 219 63 c 0,9.11835 1.8435,21.3125 -1.8927,29.89124 -2.9194,6.70355 -16.1897,4.10876 -22.1073,4.10876 -15.3907,0 -30.6349,-1 -46,-1 -6.2869,0 -13.7253,-1.164 -18.7902,3.39429 -16.5889,14.92993 -20.4143,42.76953 -35.5354,59.5509 -10.0362,11.13825 -28.5055,-1.60181 -37.9143,9.24384 -18.8254,21.70001 -31.5865,52.81219 -45.62113,77.81097 -25.99909,46.31024 -53.15455,91.93597 -79.56018,138 -13.98182,24.39099 -27.88056,48.86157 -42.27009,73 -3.34887,5.61774 -14.755,20.12543 -12.60028,26.85187 1.69465,5.2901 14.04041,3.14813 18.29163,3.14813 19.71106,0 39.34021,1 59,1 66.03255,0 131.94145,-1 197.99995,-1 h 48 c 5.2864,0 13.6971,-1.56073 17.3966,3.22839 4.9154,6.36316 2.6034,21.16708 2.6034,28.77158 0,24.292 0.8107,48.741 0.035,73 -0.9487,29.6899 0.9645,59.3474 0.9645,89 0,58.0403 -1,115.9407 -1,174 v 83 c 0,7.0284 -3.052,23.5115 3.2284,28.2577 3.8071,2.8772 10.297,1.7423 14.7716,1.7423 h 34 135 92 c 10.4275,0 28.4098,3.4325 37.7754,-1.6528 4.91,-2.6659 4.2228,-9.6216 4.2246,-14.3472 v -31 c 0,-4.2517 -0.5597,-9.3437 3.2284,-12.2616 4.1406,-3.1893 10.8557,-2.7364 15.7716,-2.7384 12.6368,0 26.4561,-0.2147 39,1.2855 5.6064,0.6706 17.2042,4.6491 20.9723,-1.5139 2.9934,-4.8951 1.0282,-15.1847 1.0282,-20.7716 v -51 -191 -711.99997 -229 -60 c 0,-6.03614 2.3489,-18.44043 -1.1791,-23.56629 -3.0765,-4.46997 -14.1123,-2.43371 -18.8209,-2.43371 h -56 c -61.1334,0 -121.9856,-1 -183,-1 h -49 c -5.4473,0 -15.0344,-1.82459 -19.8518,1.02771 m 547.8518,0.41211 c -15.4713,2.48596 -31.7273,8.18664 -45,16.47534 -11.9828,7.48315 -20.8849,17.54468 -27.2438,30.08484 -12.5176,24.68567 -12.8755,63.19958 6.3742,84.56104 10.4035,11.54492 25.5652,17.87146 39.8696,23.00378 23.6373,8.48096 65.5632,11.06872 61.8264,45.43518 -4.3236,39.76367 -57.4841,23.29321 -76.8264,8.32019 -5.2216,-4.04211 -16.062,-20.47729 -23.6713,-14.71606 -5.2691,3.9895 -9.2745,13.71203 -12.598,19.39587 -4.2506,7.26941 -16.4582,21.26306 -14.4082,29.99927 1.9522,8.31909 15.9224,15.42761 22.6775,19.61181 24.3865,15.10511 56.0288,24.26331 85,20.08875 25.4781,-3.67127 49.5555,-13.97522 66.7107,-33.69983 27.4171,-31.52368 31.9718,-93.77283 -3.7114,-121.53625 -20.2544,-15.75892 -46.3385,-16.52332 -68.9993,-26.1836 -10.1908,-4.34436 -21.8127,-9.9541 -23.4961,-22.28015 -2.1016,-15.3888 14.4894,-24.52893 27.4961,-25.82947 12.4825,-1.24805 26.389,2.7865 37,9.17749 4.4634,2.68835 12.2267,10.64685 17.8665,7.60876 5.4685,-2.9458 9.0637,-16.4093 11.5471,-21.95678 2.8429,-6.35035 10.6572,-16.77539 7.8403,-23.95679 -2.4968,-6.3656 -14.3363,-10.11951 -20.2539,-12.35877 -20.532,-7.76965 -45.9258,-14.79162 -68,-11.24462 m 1457,-8.6e-4 c -15.7764,2.48438 -32.8606,8.34778 -46,17.44605 -11.6196,8.04589 -21.0366,18.12011 -26.9714,31.11499 -11.9954,26.26489 -12.4698,61.61279 8.0756,83.99609 9.658,10.52185 24.585,17.36585 37.8958,21.92517 22.0764,7.56189 67.2034,11.58362 63.8257,44.07874 -1.9946,19.1897 -21.9959,27.43323 -38.8257,25.8302 -14.7727,-1.40698 -28.928,-9.29321 -40,-18.98608 -4.4507,-3.89637 -13.4055,-15.67298 -19.9067,-14.35181 -4.96,1.00793 -6.3848,7.78772 -8.638,11.50769 -5.842,9.64514 -11.5473,19.36536 -17.3935,29 -2.9317,4.83154 -5.8208,10.43555 -1.6282,15.42358 23.1516,27.54444 71.8413,41.27991 106.5664,36.27625 29.1699,-4.20325 56.2844,-18.14966 73.4299,-42.69983 22.2957,-31.92456 20.8489,-89.59961 -11.4299,-114.4707 -19.2139,-14.80445 -45.0613,-16.86035 -67,-25.10572 -10.7312,-4.03308 -22.6111,-9.81335 -24.6675,-22.42358 -2.2107,-13.55762 12.6695,-24.02942 24.6675,-24.90967 12.8955,-0.94605 26.7078,1.2168 38,7.65808 4.1895,2.38977 13.8535,11.38318 18.79,9.11584 3.6934,-1.69641 5.5262,-7.4436 7.0672,-10.86425 3.6465,-8.09449 19.5525,-31.2594 11.9143,-38.47071 -5.4107,-5.10827 -13.9509,-7.84607 -20.7715,-10.4375 -20.2795,-7.70507 -45.2273,-14.08142 -67,-10.65283 m 723,-0.0145 c -57.8384,7.69105 -110.2483,41.76551 -128.2764,99.57557 -25.2473,80.96021 29.4742,165.35132 111.2764,180.46375 13.0859,2.41748 25.5161,4.91113 39,3.25 62.1509,-7.65699 119.0205,-52.94642 129.6743,-116.71375 13.1926,-78.96265 -40.0657,-149.47571 -117.6743,-163.32788 -11.6877,-2.08606 -21.8474,-4.86365 -34,-3.24769 m 276,0.004 c -15.3462,2.22315 -31.854,8.27723 -45,16.48694 -11.3872,7.11133 -21.6348,17.8982 -27.3594,30.08484 -18.8523,40.13489 -6.1655,88.73303 37.3594,104.76697 25.3867,9.35229 76.7622,12.14966 70.7876,50.23376 -1.0679,6.80774 -6.4316,12.31568 -11.7876,16.2146 -20.3071,14.78321 -47.5708,3.94544 -65,-10.65515 -4.8062,-4.02624 -15.6851,-18.44702 -22.8149,-14.52783 -6.502,3.57397 -10.4859,15.76037 -14.0572,21.96765 -4.1025,7.13025 -14.9153,18.26721 -13.8557,27 1.1091,9.14197 15.6873,16.71765 22.7278,21.0918 24.2383,15.05835 54.1982,23.8291 83,20.73462 29.2329,-3.14087 57.6987,-17.85401 75.0732,-41.82642 22.0113,-30.36987 23.3291,-88.18225 -8.0771,-112.98462 -21.0645,-16.63514 -47.2412,-17.91847 -70.9961,-27.7461 -9.8057,-4.05652 -21.7563,-10.38794 -23.1597,-22.26929 -1.916,-16.22168 14.4937,-24.46851 28.1597,-25.82947 12.0352,-1.19861 25.6978,3.00354 36,8.98462 4.4453,2.58081 12.3921,10.39245 17.8672,7.62256 6.0679,-3.06983 9.3423,-16.84009 11.8745,-22.77771 2.5996,-6.09632 10.6851,-16.01526 8.1587,-22.89502 -2.2691,-6.17957 -14.312,-9.73352 -19.9004,-12.01856 -20.377,-8.33227 -46.9673,-14.84997 -69,-11.6582 m -4032.99995,67.57178 -1,1 c -14.84241,-3.53382 -32.9176,-1.12244 -48,-0.0895 -14.53307,0.99536 -29.43164,0.0895 -44,0.0895 -5.72267,0 -26.37499,-3.12366 -28.76234,3.14819 -1.98693,5.21997 0.76234,14.16834 0.76234,19.85181 v 50 c 0,58.48401 2.46851,117.70068 -0.0393,176 -3.49179,81.17212 0.0393,162.75214 0.0393,244 v 489.99994 226 c 0,19.6659 0.0941,39.3344 -7.7e-4,59 -0.0281,5.8301 -2.92584,16.5852 0.87345,21.5811 3.16995,4.1682 8.73233,2.8026 13.12732,2.5084 10.59195,-0.709 21.39657,-1.9595 32,-2.0856 45.36062,-0.5397 90.61319,-1.0039 136,-1.0039 h 110 c 8.43796,0 16.63367,1.1572 25,2.1552 3.48755,0.4158 8.35468,1.7808 11.25772,-1.0132 3.23254,-3.1111 1.74228,-11.078 1.74228,-15.142 v -40 c 0.002,-5.9131 -0.2627,-12.0917 6.01852,-14.9105 6.58597,-2.9556 16.87998,-1.0895 23.98148,-1.0895 h 55 c 6.46179,0 23.95047,3.1599 26.96759,-4.1088 3.20114,-7.712 1.03241,-19.6567 1.03241,-27.8912 v -63 c 0,-71.4193 1,-142.5654 1,-214 0,-23.2997 -1.05243,-46.8672 -0.0394,-70 0.33454,-7.6388 -1.62619,-18.94562 2.35727,-25.85181 2.45621,-4.25836 8.52902,-3.14813 12.68213,-3.14813 8.36295,0 25.1145,3.1778 31.86731,-2.43365 5.57037,-4.62891 8.50635,-14.19532 11.62262,-20.56635 5.46802,-11.17908 12.80127,-22.33685 19.32104,-33 2.84571,-4.65417 5.77887,-11.07965 10.36261,-14.25769 4.60053,-3.1897 12.50684,-1.74231 17.82642,-1.74231 14.4624,0 39.97577,4.87396 52.95679,-2.17517 9.08752,-4.93488 16.11029,-24.94232 21.26776,-33.82483 17.1828,-29.59326 34.17657,-59.31213 51.19671,-89 6.03589,-10.52832 20.24152,-26.28986 18.36499,-39 -1.82373,-12.3526 -13.43627,-25.30219 -19.50537,-36 -16.06952,-28.32526 -33.30438,-56.20129 -48.5,-85 -5.26892,-9.98566 -13.85882,-34.57416 -25.78473,-37.58105 -11.64666,-2.93647 -25.61657,-1.22248 -37.57257,-1.26691 -26.12951,-0.097 -52.25683,0.84796 -78.42358,0.84796 -9.15356,0 -34.91718,4.49017 -39.10648,-6.01929 -3.6586,-9.17816 -1.89352,-23.20434 -1.89352,-32.98071 0,-24.03217 1,-48.0304 1,-72 v -248 -87 c 0,-7.92713 3.25781,-25.50196 -2.51389,-31.68213 -3.85372,-4.12647 -12.38787,-2.05652 -17.48611,-2.59949 -17.7431,-1.88977 -36.14935,-0.71838 -54,-0.71838 -59.80905,0 -119.28952,0.7113 -179,0.99926 -15.64784,0.0754 -31.35643,0.34412 -47,-0.0139 -5.2932,-0.12109 -15.02823,-2.06311 -19.6821,1.04236 -3.89796,2.60108 -2.3179,10.96119 -2.3179,14.9723 0,15.13855 -2.61281,32.19519 -1,47 m 2093.99995,43 h 1 c 3.9966,8.99158 4.5552,18.74292 7.5193,28 10.165,31.74512 17.8545,64.28748 28.1504,96 3.0796,9.4856 5.5688,19.35071 8.1789,29 1.1204,4.14124 1.5376,9.5459 5.2957,12.25769 3.1062,2.24146 7.2624,1.60254 10.8557,2.02783 9.6431,1.14148 30.7957,4.56055 36.7222,-5.32947 7.8886,-13.16455 9.5822,-31.41711 13.8967,-45.95605 11.6152,-39.14124 21.0742,-79.17688 33.3811,-118 8.3416,10.41382 5.2192,28.29199 6.0894,41 1.9411,28.35278 8.3313,56.76367 11.7556,85 1.0488,8.64746 3.6914,17.32129 4.1164,26 0.2644,5.3999 -0.033,12.74768 5.1475,16.06177 4.1975,2.68518 10.156,1.93823 14.8911,1.93823 h 33 c 4.6328,0 12.1785,1.2345 14.3965,-4.10889 2.8826,-6.94384 -0.3003,-17.89416 -1.7322,-24.89111 -2.8201,-13.78003 -4.1218,-28.08435 -6.4182,-42 -6.5784,-39.8645 -14.8691,-80.85376 -19.0764,-121 -1.8355,-17.51441 -5.249,-34.60535 -7.7415,-52 -1.1521,-8.04016 -0.02,-17.51709 -3.9968,-24.94141 -3.0684,-5.72754 -10.9707,-4.03467 -16.4314,-4.05933 -12.1211,-0.0547 -24.9656,0.46802 -37.0007,-0.10266 -6.2935,-0.29846 -13.6001,-2.45971 -18.3003,3.32801 -4.7703,5.87414 -6.2547,16.64343 -8.5833,23.77539 -6.143,18.81506 -10.7912,38.23645 -17.1946,57 -9.2685,27.15894 -17.3261,56.17249 -23.9211,84 h -2 c -9.283,-29.22278 -18.5505,-59.18005 -25.6543,-89 -4.333,-18.1886 -12.1245,-35.77625 -15.946,-54 -1.4058,-6.70435 -3.1895,-19.7522 -9.6126,-23.54322 -8.2239,-4.85388 -23.4707,-0.75244 -32.7871,-1.73144 -7.4844,-0.7865 -31.2644,-4.13941 -36.0618,2.55322 -3.0373,4.23731 -2.8069,12.64649 -3.6882,17.72144 -2.5422,14.6383 -4.1653,29.48584 -7.0503,44 -9.8799,49.70447 -18.0915,101.63892 -23.3694,152 -1.6386,15.63745 -10.7585,36.39978 -6.5124,51.94214 1.5388,5.63257 9.0866,5.05041 13.6821,5.05786 h 34 c 4.6643,-0.007 11.7532,0.36694 15.6057,-2.74158 4.0515,-3.26904 4.0586,-9.56579 4.676,-14.25842 1.4996,-11.39673 2.9495,-22.53552 3.8086,-34 1.898,-25.32788 7.9126,-50.70178 10.743,-76 1.497,-13.38232 7e-4,-28.73572 6.1667,-41 m 483,-13 c 11.0227,8.70984 16.7739,29.09155 24.5054,41 20.9265,32.23181 43.708,63.42493 65.6111,95 9.1626,13.20874 22.9748,41.33582 39.8835,44.53235 14.77,2.79223 31.9744,0.46765 47,0.46765 5.1379,0 13.3953,1.34985 17.4111,-2.70288 3.6751,-3.70874 2.5889,-11.5669 2.5889,-16.29712 0,-13.40869 -2.0942,-27.71191 -0.8303,-41 4.7156,-49.57849 -0.1697,-101.15173 -0.1697,-151 0,-9.89502 -0.7681,-20.14759 0.1697,-30 0.7927,-8.32984 3.1882,-20.97254 -0.8726,-28.77161 -2.519,-4.83789 -10.7959,-3.22839 -15.2971,-3.22839 h -41 c -4.5327,2.4e-4 -12.1924,-1.06067 -14.3965,4.13354 -4.7771,11.2583 -0.6035,32.61035 -0.6035,44.86646 0,24.95801 -1.647,50.34241 -0.8264,75.1698 0.5635,17.04993 3.8144,37.07849 -0.1736,53.8302 h -2 c -11.1904,-32.34363 -35.3027,-63.00159 -55.8032,-90 -14.5342,-19.14099 -28.6223,-39.14344 -42.1682,-59 -5.6953,-8.34876 -12.7034,-23.0868 -22.0325,-27.68213 -9.3384,-4.59998 -29.5332,-2.43897 -39.9961,-2.30701 -7.345,0.0926 -24.6089,-1.88452 -30.6821,2.16821 -4.0291,2.68872 -2.3179,11.65601 -2.3179,15.82093 0,15.3894 -1,30.64184 -1,46 v 144 41 c 0,6.14087 -1.3013,14.13403 1.0322,19.94214 2.3323,5.80542 9.8169,5.05591 14.9678,5.05786 14.3525,0.005 28.6904,-0.2738 43,-0.92517 5.2708,-0.23999 12.6924,1.47485 15.6821,-4.13342 5.4646,-10.25025 -0.3515,-26.84864 0.4073,-37.94141 2.2968,-33.58044 0.073,-68.20911 -0.09,-102 -0.056,-11.71411 -4.731,-24.49353 -1.9993,-36 M 1876.8538,31.35461 c -16.4033,2.18128 -11,15.51307 -11,28.57557 v 83 c 0,52.68909 -8.6294,120.94983 46,150.6875 13.9622,7.60034 27.9501,8.79456 43,11.98145 14.3315,3.03479 29.2759,4.56359 44,3.16125 13.8781,-1.32178 28.8514,-4.03918 42,-8.69434 9.8005,-3.46984 19.6594,-7.27343 27.9993,-13.66052 47.5861,-36.44433 36.0007,-111.90747 36.0007,-164.47534 v -68 c 0,-5.90381 2.6575,-19.29615 -4.0586,-22.10645 -4.6211,-1.93371 -11.0359,-0.89355 -15.9414,-0.89355 h -35 c -4.6566,0 -13.0229,-1.39966 -15.9723,3.27856 -2.0668,3.27832 -1.0277,9.01648 -1.0277,12.72144 v 31 c 0,39.27808 4.0955,81.18518 -2.2461,120 -1.485,9.08923 -1.744,18.70007 -6.1528,27 -8.6474,16.2793 -28.4035,21.49463 -45.6011,19.8302 -26.348,-2.55005 -37.4061,-20.24951 -40.7175,-44.8302 -5.2469,-38.948 -1.2825,-80.70203 -1.2825,-120 v -34 c 0,-3.60816 1.0903,-9.55652 -1.6034,-12.43604 -3.4813,-3.72131 -10.8741,-2.26086 -15.4005,-2.3031 -14.0822,-0.13135 -29.011,-1.69604 -42.9961,0.16357 m 642.1443,0.60328 c -5.7449,3.35424 -4.1443,13.43274 -4.1443,18.97229 0,19.04602 -0.947,38.15539 -0.7568,57.11182 0.4538,45.26721 -0.2432,90.60852 -0.2432,135.88818 v 37 c 0,5.90796 -0.9875,13.37585 1.7029,18.86646 2.6352,5.37829 10.3584,4.13354 15.2971,4.13354 h 37 c 4.8738,-2.4e-4 11.5962,0.90186 15.8911,-1.88269 6.0715,-3.9364 4.1089,-13.94141 4.1089,-20.11731 0,-18.31543 -0.7913,-36.61133 -0.2771,-54.91125 1.304,-46.40235 -0.7229,-92.71863 -0.7229,-139.08875 v -38 c 0,-4.5719 1.3047,-11.70935 -1.179,-15.77161 -2.8037,-4.58569 -10.289,-3.22839 -14.821,-3.22839 h -37 c -4.3118,0 -10.9958,-1.22596 -14.8557,1.02771 m 463.8557,-0.59864 c -11.6177,1.74439 -9,12.31604 -9,21.57093 v 64 c 0,44.12341 1.5159,88.93152 -0.3889,133 -0.5298,12.25732 -0.6118,24.69641 -0.6111,37 2e-4,4.39575 -0.8662,11.00586 2.564,14.43604 3.789,3.78894 11.5944,2.56396 16.436,2.56396 14.967,0 32.3042,2.42017 46.9961,-0.46838 9.3638,-1.84107 8.2971,-12.93409 7.9646,-20.53162 -0.9907,-22.6377 -0.9607,-45.29321 -0.9607,-68 v -135 -33 c 0,-3.82202 1.1675,-10.24744 -1.7422,-13.27234 -3.6562,-3.80103 -11.5254,-2.72766 -16.2578,-2.72766 -14.6318,0 -30.5247,-1.74439 -45,0.42907 m 564,0.0393 c -9.1194,1.77161 -7.4167,8.17212 -8.2854,15.53162 -1.6689,14.14087 -0.7146,28.76208 -0.7146,43 v 157 39 c 0.01,4.75342 -0.4124,11.97339 3.3171,15.56628 5.3484,5.15235 19.772,2.43372 26.6829,2.43372 8.9697,0 28.3225,3.54236 35.5664,-2.7384 3.6538,-3.16797 2.4336,-9.96375 2.4336,-14.2616 v -38 c 0,-11.63428 0.4651,-23.37695 -0.039,-35 -0.1067,-2.45862 -2.2595,-10.79321 2.2639,-10.79321 5.3611,0 9.2251,9.97717 11.3648,13.79321 8.4365,15.04614 17.1794,29.91882 25.5527,45 6.3557,11.44727 13.3938,30.45251 23.9119,38.48999 5.6503,4.31787 13.2795,3.51001 19.946,3.51001 16.8013,0 39.7849,4.14441 55.9404,-0.31787 8.8919,-2.45606 -7.1482,-21.40881 -9.8901,-25.68213 -13.0117,-20.27893 -26.7503,-40.13416 -40.3914,-60 -3.1115,-4.53149 -14.2382,-16.30688 -12.9082,-21.90662 1.7544,-7.38659 20.399,-11.72668 26.2493,-15.81482 14.5547,-10.17053 24.2664,-25.98828 27.8804,-43.27856 2.0344,-9.73242 1.1355,-20.1084 1.1196,-30 -0.015,-9.34204 -1.9131,-18.47779 -5.77,-27 -25.3013,-55.90503 -91.4358,-50.3075 -143.23,-48.03931 -13.3801,0.58594 -27.8613,-3.04468 -41,-0.49231 m 868,0.0903 c -3.6333,0.24719 -16.9224,-1.33984 -17.5347,3.66968 -0.499,4.08337 4.6099,8.63525 6.6729,11.7716 6.9531,10.57081 13.2944,21.56751 20.4482,32 14.521,21.17664 27.7095,43.3202 41.4605,65.00001 10.5552,16.64148 21.4843,30.85669 22.8637,51 1.7212,25.1333 -0.9126,50.79871 -0.9106,76 5e-4,7.16016 -1.8887,23.61768 2.1792,29.56714 2.584,3.77954 9.8154,3.41284 13.8208,3.43213 13.2329,0.0638 26.7988,0.81616 40,-0.0888 3.6987,-0.25354 9.7822,-0.33423 12.3965,-3.34424 2.6467,-3.04743 1.6032,-8.83967 1.6032,-12.56623 v -32 c 0,-25.2417 -4.6357,-55.73853 2.9243,-80 2.8804,-9.24292 10.2754,-17.75891 15.2788,-26 12.3164,-20.28601 25.5918,-40.16028 38.628,-60 9.1577,-13.93738 17.8745,-28.14991 27.1699,-42 2.1894,-3.26209 9.5615,-10.25965 6.9272,-14.5625 -1.8222,-2.97596 -6.1386,-1.70252 -8.9282,-1.52625 -8.3159,0.52564 -16.6626,-0.91077 -25,-0.91125 -11.5928,-7.4e-4 -23.3345,-0.54175 -34.9106,0.095 -4.858,0.26721 -10.9683,0.82812 -14.0152,5.11877 -12.6489,17.8125 -21.4219,41.21338 -31.2129,60.78626 -2.0351,4.06799 -6.3432,18.79321 -11.9414,18.79321 -5.2837,0 -9.8139,-14.86133 -11.7812,-18.79321 -9.6128,-19.21485 -17.751,-43.97181 -31.0933,-60.78626 -4.313,-5.4353 -11.8784,-4.21374 -18.0454,-4.21374 -15.4746,0 -31.6182,-1.48767 -47,-0.44129 m -1102.8665,1.1836 c -4.9311,2.16784 -4.1318,8.849 -4.1335,13.25769 v 33 c 0.01,4.11145 -0.4631,10.22924 2.5889,13.48608 3.1706,3.3833 9.2444,2.51209 13.4111,2.51392 h 29 c 5.1238,0.002 12.6641,-0.60144 15.1064,5.10803 4.9266,11.51709 0.8936,32.39832 0.8936,44.89197 v 107 34 c 0,4.17053 -1.2463,10.93835 1.179,14.58105 3.0554,4.58912 11.1364,3.41895 15.821,3.41895 14.1553,0 36.8391,4.3302 49.9561,-1.14819 5.5271,-2.30848 5.0419,-7.76624 5.0439,-12.85181 v -36 c 0,-33.66663 0.041,-67.33337 0,-101 -0.021,-16.69714 -2.478,-34.40344 0.1482,-50.99536 1.1672,-7.37427 9.0405,-7.00245 14.8518,-7.00464 11.5154,-0.004 23.6074,1.70984 35,0.91052 4.2966,-0.30139 9.4236,-1.12561 10.6821,-5.92981 3.2127,-12.26404 0.3186,-30.1969 0.3179,-42.98071 -2e-4,-4.09998 0.8979,-10.31861 -2.5139,-13.39661 -2.9605,-2.67078 -8.8215,-1.60339 -12.4861,-1.60339 h -32 -101 c -11.4578,0 -31.3684,-3.87293 -41.8665,0.74231 m -1821.1335,1269.25762 -52,-1 -17.9723,-0.6427 -1.0277,-19.3573 v -53 l 1,-211 -1,-924.99993 c -57.5819,1.1875 -115.3285,1 -173,1 -15.3326,0 -30.6675,0.0732 -46,-7.4e-4 -4.6956,-0.0226 -14.7422,0.60205 -18.6821,-2.02697 -3.6021,-2.40369 -2.3179,-9.28162 -2.3179,-12.97229 0,-11.26136 -3.3944,-29.40747 1.5886,-39.77161 2.2552,-4.69043 10.1841,-3.22839 14.4114,-3.22839 h 44 184 51 c 5.3088,0 14.4417,-1.96265 15.7716,5.01928 2.4896,13.07019 0.2284,28.66822 0.2284,41.98072 v 88 275 856.99993 M 3610.9588,89.36364 c 14.4846,-4.40173 39.291,-0.45422 48.196,12.5702 5.1963,7.59997 5.6995,16.15295 5.699,24.99609 -5e-4,6.86194 -0.3491,13.21729 -4.6382,18.96069 -5.5981,7.49671 -16.7253,11.17212 -25.3618,13.81934 -3.2947,1.00989 -6.5774,1.20276 -10,1.21924 -4.9014,0.0237 -11.739,1.06592 -15.6968,-2.51319 -7.5891,-6.86328 -3.3032,-31.01281 -3.3032,-40.48608 0,-6.79626 -3.3845,-25.98633 5.105,-28.56629 m 285.895,-0.10803 c 8.6758,-1.4458 21.5386,-1.69409 30,0.71448 74.02,21.07044 73.5159,140.36951 -5,154.49536 -7.3833,1.32837 -15.6304,0.63074 -23,-0.40515 -77.9722,-10.96008 -80.2466,-141.7644 -2,-154.80469 M 144.85385,1313.9299 l 197,-1 v 1 c -4.77972,4.7776 -4,10.6509 -4,17 0,12.6993 -0.96521,25.3646 -1,38 l -303,-2 c 0,-321.2853 1,-642.63925 1,-963.99997 0,-75.71204 -1,-151.31238 -1,-227 v -54 c 0,-4.1781 -2.05652,-15.13696 3.14815,-16.68213 8.01589,-2.37976 19.49482,-0.31787 27.85185,-0.31787 17.62466,0 35.30801,-1 53,-1 5.69513,0 21.05661,-2.68823 25.25772,1.60339 3.59897,3.67652 1.74228,13.6615 1.74228,18.39661 v 50 201 938.99997 m 842.99995,-741.99997 9.6004,-20 22.3996,-37 c 19.9595,3.70557 40.9036,-1.06305 61,1.57562 4.2957,0.56403 12.916,-1.30456 16.3966,1.45215 2.8197,2.23322 1.6034,8.82147 1.6034,11.97223 v 32 c 0,3.49908 0.7764,8.68311 -3.1482,10.39661 -8.0594,3.51886 -23.0789,0.60339 -31.8518,0.60339 -25.2889,0 -50.8166,0.98767 -76,-1 M 668.00198,522.67224 c -4.71557,2.13824 -2.07385,7.07684 -0.18286,10.25769 5.50964,9.26776 10.63208,18.83075 16.26618,28 15.50628,25.23584 28.73022,52.00562 44.62963,77 6.38166,10.0321 12.08081,20.49408 17.62427,31 2.13947,4.05475 5.69812,8.33789 6.25,13 1.21918,10.2995 -11.65771,24.4978 -16.58179,33 -16.5852,28.63678 -32.55419,57.73572 -49.76855,86 -5.71845,9.3891 -11.97955,18.98273 -16.52698,29 -1.41235,3.11127 -4.9248,8.255 -2.8117,11.68213 1.90325,3.08679 6.89996,2.31647 9.95367,2.31787 h 29 c 8.64587,0 19.6955,1.81299 27.99921,-0.80402 7.55688,-2.38165 10.36059,-10.9447 14.01239,-17.19598 9.30267,-15.9245 18.38275,-31.9353 27.42743,-48 34.10138,-60.5694 68.33032,-122.03882 105.15045,-181 11.10846,-17.78833 22.09347,-36.51025 31.98617,-55 2.0761,-3.88025 11.5282,-14.89734 5.9868,-18.68213 -6.1336,-4.18939 -21.3388,-1.31787 -28.56245,-1.31787 -11.56683,0 -30.45514,-3.58716 -40.98535,1.57251 -6.06958,2.974 -8.2298,9.93756 -11.35108,15.42749 -6.47766,11.39337 -13.26593,22.63116 -19.79168,34 -5.9029,10.28375 -11.33856,20.82233 -17.41199,31 -1.56598,2.62415 -4.41315,9.57941 -8.41278,8.53857 -3.4195,-0.88989 -5.72711,-5.8175 -7.45996,-8.53857 -5.15888,-8.10114 -8.96936,-16.95996 -14.19135,-25 -7.08764,-10.91248 -13.87262,-22.56909 -20.08716,-34 -3.35345,-6.16833 -6.06152,-14.93152 -11.51849,-19.56635 -4.13959,-3.51586 -11.62732,-3.40795 -16.79016,-3.43286 -12.33264,-0.0594 -24.66724,-7.9e-4 -37,-7.9e-4 -4.93616,0 -12.26978,-1.33545 -16.85187,0.74231 m 4149.85182,42.72144 c -57.8823,10.2279 -111.4897,48.08923 -124.3311,108.53625 -15.2124,71.60602 23.1138,136.14874 89.3311,163.59412 18.814,7.79797 43.5137,13.56207 64,9.94213 62.4766,-11.03967 115.3999,-49.71545 129.1812,-114.53625 16.2431,-76.40039 -38.6719,-150.16913 -113.1812,-164.46063 -14.6411,-2.80823 -29.9185,-5.74054 -45,-3.07562 m -2750.1689,5.09954 c -7.6597,1.42957 -9.0936,8.05652 -11.3721,14.43671 -4.3945,12.30585 -8.9423,24.58484 -12.9776,37 -17.1893,52.88495 -35.259,105.67755 -53.9405,158 -5.212,14.5976 -9.423,29.64246 -15.1968,44 -1.5307,3.80658 -5.26,12.7851 -1.74,16.25769 3.2597,3.21582 11.2263,1.74231 15.3959,1.74231 h 35 c 4.7346,0 11.5336,1.04742 15.6064,-1.93829 12.5567,-9.20502 5.4399,-38.45514 20.409,-45.12342 6.2392,-2.77942 16.2512,-0.93829 22.9846,-0.93829 h 53 c 6.8347,0 18.2229,-2.198 23.7754,2.57251 10.9785,9.43231 6.1802,31.06085 14.9521,42.1991 3.5257,4.4768 12.0926,4.20263 17.2725,4.2276 15.3657,0.0741 35.1167,3.01794 49.9414,-1.43286 8.7385,-2.6236 -1.9795,-19.37433 -3.6196,-24.56635 -8.2219,-26.02863 -16.1311,-52.61945 -26.1829,-78 -15.2029,-38.38782 -27.6948,-78.69806 -40.4692,-118 -3.8274,-11.77509 -7.8521,-23.52039 -12.4751,-35 -1.8452,-4.58179 -2.3521,-10.13702 -6.4085,-13.48535 -5.0879,-4.19983 -15.5844,-2.65192 -21.7861,-2.5 -13.9893,0.34265 -27.9473,0.98535 -42,0.98535 -6.3806,0 -13.9531,-1.59674 -20.1689,-0.43671 m 395.1689,180.43671 c -8.8718,-27.73602 -26.8796,-51.72626 -43.8486,-75 -12.9353,-17.74133 -24.9529,-36.13599 -37.7239,-54 -10.8191,-15.13367 -22.0178,-38.63904 -37.4314,-49.34723 -5.2222,-3.62799 -11.968,-2.65277 -17.9961,-2.65277 h -37 c -4.9878,0 -12.5833,-1.38153 -16.8518,1.74231 -4.6675,3.41583 -3.1482,11.22192 -3.1482,16.25769 v 43 154 39 c 0,4.4646 -1.3726,11.89691 1.7422,15.56635 6.8909,8.11785 31.0088,2.87799 40.2578,2.47302 7.3088,-0.32007 26.2126,3.49225 31.3965,-2.47302 5.1479,-5.92402 1.6035,-25.92365 1.6035,-33.56635 v -94 c 0,-12.56592 -1.5476,-24.55566 -2.9497,-37 -0.2622,-2.32758 -2.5398,-10.60254 1.1379,-11.36884 3.8448,-0.80108 9.2727,13.56934 10.8225,16.36884 10.2425,18.50049 21.6536,35.6958 33.7872,53 17.9807,25.64294 35.5412,51.58606 53.8386,77 6.4087,8.90131 13.6362,24.42114 23.4529,29.82483 5.8872,3.24072 14.4543,2.17517 20.9106,2.17517 14.6482,0 30.4871,1.70764 44.9993,-0.29016 9.2011,-1.26666 8.1435,-9.1817 8.2863,-16.70984 0.2781,-14.64844 0.7144,-29.30719 0.7144,-44 v -145 -42 c 0,-5.60992 1.4556,-13.68866 -0.7422,-18.94135 -2.3393,-5.59106 -10.1987,-3.93231 -15.0881,-4.51849 -13.4927,-1.61767 -27.5899,-0.54016 -41.1697,-0.54016 -4.8577,0 -11.9524,-1.04822 -15.3965,3.27856 -5.4516,6.84906 -1.6035,28.14045 -1.6035,36.72144 v 100 c 0,10.06995 5.9971,34.33844 -2,41 m 116.0039,-180.51697 c -6.6672,1.4765 -6.9941,6.67407 -7.0039,12.51697 v 34 c 0,4.20062 -1.3086,11.22577 1.6035,14.68213 2.8147,3.34094 8.5388,2.27582 12.3965,2.32172 10.0059,0.11895 19.9426,-0.004 30,-0.004 5.3708,0 12.7622,-1.08075 15.2578,5.04395 4.7481,11.65249 0.7422,32.37893 0.7422,44.9562 v 105 37 c 0,3.8689 -1.2104,10.36688 1.6035,13.48615 3.5486,3.93371 11.6799,2.51385 16.3965,2.51385 15.3196,0 33.9988,2.92767 48.9561,-0.34412 6.0935,-1.33294 5.0437,-7.7644 5.0439,-12.65588 v -36 -107 c 0,-13.55725 -3.8154,-34.23053 1.5996,-46.89124 1.8093,-4.23053 7.3594,-4.88574 11.4004,-5.06939 10.9548,-0.49799 22.0334,-0.0394 33,-0.0394 4.1853,0 12.0623,1.4718 14.2578,-3.22839 1.7761,-3.80265 0.7422,-9.67496 0.7422,-13.77158 v -31 c 0,-4.03589 1.1704,-10.45764 -2.3179,-13.39661 -2.9289,-2.46777 -8.0302,-1.54742 -11.5927,-1.94751 -11.5889,-1.30151 -23.4358,-0.65588 -35.0894,-0.65588 -34.3252,0 -68.7297,-0.73505 -103,0.92438 -11.1433,0.53955 -22.8999,-2.89862 -33.9961,-0.44135 m 233.9961,-0.0586 c -3.4348,0.45233 -7.8835,0.13531 -10.7715,2.31793 -6.9556,5.25671 -2.8713,23.67474 -2.561,31.25769 1.2344,30.17267 0.3325,60.75421 0.3325,91 v 104 28 c 0,3.4693 -0.9114,8.64539 1.0278,11.72144 5.2722,8.36273 28.8013,3.28173 36.9722,3.27856 h 87 c 10.0842,0 27.6006,3.41321 36.8525,-0.60339 3.9978,-1.7356 4.042,-7.69764 4.1329,-11.39661 0.2614,-10.65314 0.019,-21.34344 0.015,-32 0,-3.75055 0.9177,-10.44574 -3.2786,-12.39661 -5.0634,-2.35382 -14.2037,-0.60339 -19.7218,-0.60339 h -45 c -6.8701,0 -18.5947,2.08624 -23.3965,-4.22455 -4.1782,-5.49127 -1.6035,-19.13324 -1.6035,-25.77545 0,-5.84125 -1.8545,-15.66052 1.179,-20.85571 3.2409,-5.55066 12.4411,-4.14429 17.821,-4.14429 16.041,0 32.0134,1 48,1 4.7969,0 16.8843,2.12488 19.3965,-3.27856 2.5639,-5.51514 0.6035,-15.69745 0.6035,-21.72144 0,-7.138 3.3296,-26.01782 -1.6035,-31.48615 -4.3147,-4.78302 -16.594,-2.51385 -22.3965,-2.51385 -15.0349,0 -30.0249,1 -45,1 -5.0591,0 -12.6104,1.01331 -16.2578,-3.41895 -3.2869,-3.99377 -2.5899,-15.48529 -2.6882,-20.58105 -0.09,-4.67877 -0.1915,-14.22491 3.2639,-17.68213 4.5244,-4.52679 15.9416,-3.28039 21.6821,-2.60339 14.6504,1.72772 30.2488,0.28552 45,0.28552 5.373,0 17.2607,1.54303 21.3965,-2.60339 2.583,-2.5896 1.6035,-8.08698 1.6035,-11.39661 v -31 c 0,-3.83771 1.2244,-10.48547 -3.1482,-12.39661 -11.6623,-5.09735 -31.3166,-1.60339 -43.8518,-1.60339 -17.0117,0 -34.0088,1.69806 -51,0.96063 -17.3081,-0.75116 -36.7715,-2.80505 -54,-0.53625 m 399,179.57562 c -9.6836,-12.55621 -14.738,-29.38446 -23.0903,-43 -15.117,-24.64282 -34.1409,-47.09979 -50.4051,-71 -13.5615,-19.92865 -26.8195,-44.04681 -44.2199,-60.78625 -11.3941,-10.96113 -41.4092,-5.21375 -56.2847,-5.21375 -5.4626,0 -13.1201,-1.32568 -17.8518,2.00928 -4.3325,3.05359 -3.1482,9.37231 -3.1482,13.99072 v 38 159 44 c 0,4.27844 -1.4519,11.94574 3.2285,14.27234 7.5894,3.77252 19.5593,1.72766 27.7715,1.72766 9.7061,0 19.3066,-1 29,-1 3.7234,0 9.5098,1.04321 12.5557,-1.59955 5.5837,-4.84479 2.4443,-22.66205 2.4443,-29.40045 v -86 c 0,-16.2536 -1.7874,-31.84546 -3.0857,-48 -0.1619,-2.01288 -3.0955,-15.44037 1.8843,-13.65436 3.6782,1.31915 6.3911,10.39789 8.1767,13.65436 7.2837,13.28271 14.3577,26.41174 22.8619,39 19.8413,29.3703 41.3652,57.59253 61.1628,87 7.0962,10.54071 17.6235,31.9173 29.0146,37.82178 6.2039,3.21576 15.233,2.17822 21.9854,2.17822 15.3032,0 31.896,1.72168 46.9807,-1.22766 5.8469,-1.14319 5.7088,-8.31818 5.5054,-13.19672 -0.6189,-14.84356 -0.4861,-29.70532 -0.4861,-44.57562 v -161 c 0,-12.65338 -0.3962,-25.37598 0.4204,-38 0.2505,-3.87219 0.5842,-11.47992 -3.6489,-13.39661 -7.794,-3.52893 -20.3965,-1.60339 -28.7715,-1.60339 -9.1516,0 -31.6482,-4.0556 -38.6821,2.51385 -3.1018,2.89698 -2.2088,7.6731 -2.3936,11.48615 -0.5163,10.65729 0.5039,21.31909 0.036,32 -1.3733,31.38324 0.039,62.58221 0.039,94 0,12.36462 3.8816,28.47827 -1,40 M 3347.8692,570.5827 c -8.4839,2.74622 -6.0154,14.3949 -6.0154,21.34723 v 65 135 34 c 0,3.94611 -1.1824,10.3399 1.6035,13.56714 3.7146,4.30292 12.3284,3.43255 17.3965,3.43286 15.4133,10e-4 35.0654,3.02441 49.9414,-1.43365 6.8611,-2.0561 4.9758,-15.21039 4.344,-20.56635 -2.4846,-21.065 0.8481,-42.87488 -0.2058,-64 -2.2991,-46.08752 3.9529,-92.86328 0.094,-139 -0.9693,-11.58893 6.1264,-33.96484 -0.9158,-43.86652 -3.6294,-5.10315 -10.7978,-4.13348 -16.2578,-4.13348 -14.7725,0 -35.9316,-3.89612 -49.9846,0.65277 m 196.9846,106.34723 h 3 c 7.9963,38.6369 21.2625,77.24414 32.5618,115 3.4875,11.65295 6.352,23.42206 10.1079,35 1.2202,3.76129 1.6709,9.47357 4.1875,12.57019 2.5071,3.08478 7.4914,3.32428 11.1428,3.41516 9.334,0.23224 27.8894,3.15875 35.7754,-2.72766 4.2964,-3.20703 5.9924,-11.31018 7.2246,-16.25769 2.5867,-10.38556 6.0535,-20.58502 8.665,-31 9.8736,-39.37585 21.0689,-79.31891 33.335,-118 h 2 c 5.1003,13.96857 3.6323,30.32971 5.1697,45 2.6565,25.34833 7.4316,50.66193 10.5442,76 1.1836,9.6355 3.1816,19.34021 4.1164,29 0.4224,4.36523 -0.7942,9.95917 2.0279,13.72144 2.8928,3.85656 9.7395,4.15576 14.1418,4.26391 12.646,0.31061 25.3503,0.0748 38,0.0139 4.4031,-0.0212 13.272,0.37323 14.6675,-5.10797 1.8193,-7.14606 -1.8062,-17.81867 -3.2183,-24.89124 -2.6758,-13.40149 -4.4018,-27.44562 -6.1675,-41 -5.3471,-41.04626 -15.0656,-81.87408 -19.112,-123 -1.6919,-17.19611 -5.0676,-33.95251 -7.7307,-51 -1.1514,-7.37 0.055,-16.15948 -3.7422,-22.94135 -3.2793,-5.85614 -11.1192,-3.76617 -16.6968,-4.14813 -13.314,-0.91174 -26.6196,-0.91137 -40,-0.91052 -5.6057,3.7e-4 -12.3552,-0.56757 -16.3481,4.22455 -4.9534,5.9447 -6.3069,18.36322 -8.3965,25.77545 -5.2574,18.64783 -10.1555,37.76569 -16.6907,56 -9.5188,26.55939 -17.8496,56.38501 -23.5647,84 h -2 c -6.9075,-26.70294 -14.1289,-53.66718 -22.6697,-80 -6.2812,-19.36603 -11.2873,-39.44415 -17.122,-59 -2.5337,-8.4917 -3.0052,-19.78589 -8.9976,-26.77545 -4.2857,-4.99882 -11.2756,-4.22459 -17.2107,-4.22459 h -39 c -5.467,0 -13.5698,-1.04651 -16.2617,5.10492 -6.6436,15.18201 -5.8401,37.54169 -8.4922,53.89508 -6.8645,42.32874 -12.874,84.69818 -19.6843,127 -2.8926,17.96771 -5.1619,36.00757 -8.0008,54 -1.3894,8.80664 -5.3796,18.91559 -3.8418,27.94135 0.907,5.32348 10.1099,4.94183 14.2808,5.044 12.3174,0.3017 24.6785,0.0194 37,0.0146 4.6675,-0.002 10.8894,0.5354 14.2725,-3.41895 4.2766,-4.99871 3.3405,-15.37176 4.3178,-21.58105 2.9856,-18.96753 4.4868,-38.10132 8.0208,-57 5.155,-27.56769 3.2014,-56.89923 10.3889,-84 m 291.0007,-106.53157 c -11.1047,2.16693 -7.0139,13.28833 -7.0007,21.53162 v 66 c 0,45.35748 -1,90.6814 -1,136 v 34 c 0,3.50323 -1.0574,9.43854 1.7422,12.14197 3.6907,3.56384 12.5405,2.8562 17.2578,2.85803 15.8625,0.006 33.3508,2.00714 48.9561,-1.22455 7.7468,-1.60425 5.0439,-14.90259 5.0439,-20.77545 v -66 -135 -34 c -2e-4,-4.24243 0.8274,-10.06934 -2.5139,-13.34723 -3.9893,-3.91351 -11.4185,-2.65277 -16.4861,-2.65277 -14.666,0 -31.5979,-2.34186 -45.9993,0.46838 m 129.9993,0.0146 c -12.0615,2.63922 -8,21.21594 -8,30.51697 v 96 104 27 c 0,3.37823 -0.9431,8.62085 1.0278,11.58105 4.9134,7.37964 29.1067,3.41895 36.9722,3.41895 29.0002,0 57.9651,-1 87,-1 10.3176,0 28.4287,3.5202 37.8516,-0.74231 4.3593,-1.97198 3.1484,-8.3772 3.1484,-12.25769 0,-10.64355 -0.3755,-21.36462 0.039,-32 0.165,-4.24329 1.3847,-9.14526 -3.1724,-11.56555 -5.6846,-3.01904 -13.7847,-0.57776 -19.8662,-0.44837 -14.6523,0.31177 -29.3437,0.0139 -44,0.0139 -6.8015,0 -18.6934,2.28442 -23.2578,-4.13348 -4.3696,-6.14374 -2.0557,-18.77631 -1.7962,-25.86652 0.2159,-5.89459 -1.6538,-14.60565 1.233,-19.94519 3.4063,-6.30137 11.826,-5.05479 17.8206,-5.05479 15.6965,0 31.3479,0.99896 47,1 5.5234,3.7e-4 17.7251,2.32007 20.3965,-4.10876 2.354,-5.66468 1.289,-14.53479 1.3457,-20.62195 0.066,-7.15839 3.5161,-27.50165 -2.2564,-32.41126 -4.4926,-3.82092 -14.9819,-1.85803 -20.4858,-1.85803 -15.6792,0 -32.3887,1.7981 -47.9106,0.48999 -4.3912,-0.37006 -10.9939,1.30652 -14.4366,-2.05481 -3.8591,-3.76788 -3.5739,-14.32214 -3.5739,-19.43518 0,-4.94318 -0.4876,-16.7934 3.435,-20.25769 3.8606,-3.4093 12.7056,-1.74231 17.4861,-1.74231 h 47 c 5.8809,0 20.2217,2.50098 23.9722,-3.30322 2.0849,-3.22687 1.0278,-9.0304 1.0278,-12.69678 v -29 c -5e-4,-4.20007 0.9312,-10.07123 -3.2285,-12.68213 -8.5235,-5.34997 -29.8123,-1.31787 -39.7715,-1.31787 -20.8638,0 -42.2249,1.57605 -63,0.69983 -16.2161,-0.6839 -36.0369,-3.70972 -52,-0.2168 m 406,178.51697 c -10.6187,-10.29626 -16.1646,-28.40662 -24.0503,-41 -20.0825,-32.07123 -43.937,-61.88544 -65.4409,-93 -8.7251,-12.62476 -19.8145,-35.37665 -33.5098,-42.86035 -10.0034,-5.46631 -28.9341,-2.49988 -39.999,-1.80481 -8.2129,0.51587 -21.4507,-3.42291 -28.8662,0.84418 -4.7749,2.7478 -4.1318,9.11865 -4.1338,13.82098 v 38 160 44 c 0,4.20544 -1.4678,12.03693 3.2285,14.25848 8.4595,4.00147 22.7754,2.0268 31.7715,1.08564 8.9146,-0.93262 30.6089,4.97638 37.2578,-1.94367 4.9624,-5.16467 1.7422,-23.54626 1.7422,-30.40045 v -88 c 0,-14.59644 0.9087,-30.6225 -1.6147,-45 -0.3575,-2.03711 -4.107,-14.22144 0.6616,-13.36884 4.0522,0.72455 6.6025,9.15571 8.1196,12.36884 6.0952,12.91132 13.376,25.16516 21.3521,37 19.9975,29.67236 40.9292,58.93457 61.7714,88 8.4307,11.75708 17.0113,30.15857 29.1739,38.34796 4.7661,3.20917 12.0586,2.65167 17.5361,2.65204 h 36 c 5.0737,0 12.1807,1.24976 16.9414,-0.74231 5.6367,-2.3587 4.0586,-10.34808 4.0586,-15.25769 v -43 -160 c 0,-12.59735 2.1543,-26.62683 0.7144,-39 -0.4722,-4.05634 0.1435,-10.44891 -3.8628,-12.82098 -4.1495,-2.45667 -11.2129,-1.17902 -15.8516,-1.17902 h -38 c -4.8857,0.008 -13.1177,-0.39124 -15.3965,5.10876 -4.7241,11.40137 -0.6035,32.52662 -0.6035,44.89124 v 91 c 0,12.67499 3.334,25.42926 1,38 m 113,-178.53162 c -13.7334,2.66822 -8,34.45765 -8,45.53162 0,4.18347 -1.4478,11.88892 1.1792,15.43591 2.6841,3.62378 9.9307,2.56385 13.8208,2.56409 10.9995,7.3e-4 22.0005,-0.0572 33,7.9e-4 5.0557,0.0266 10.1416,0.64862 12.2578,6.01465 4.6792,11.86536 0.7422,32.22858 0.7422,44.98456 v 104 36 c 0,4.22742 -1.1479,10.88037 1.8584,14.34723 3.4331,3.95917 11.4443,2.73761 16.1416,2.90741 14.9932,0.54199 34.252,2.41229 48.9453,-0.48303 5.6143,-1.10633 5.0474,-7.27057 5.0547,-11.77161 v -36 -107 c 0,-13.17737 -3.8936,-33.68323 0.8936,-45.99536 4.7363,-12.1817 33.5244,-7.00464 44.1064,-7.00464 4.876,0 12.8784,1.25378 15.436,-4.13348 5.3892,-11.35187 1.564,-31.50708 1.564,-43.86652 0,-4.47284 1.1157,-10.83984 -3.2285,-13.69678 -10.6494,-7.00354 -35.3931,-2.30322 -47.7715,-2.30322 -23.625,0 -47.4517,1.23145 -71,0.62732 -20.5938,-0.52832 -44.7148,-4.10004 -65,-0.15894 m -2767,102.53162 c 5.7135,4.64203 5.9266,11.29065 7.5247,18 2.1634,9.0835 5.8221,17.91235 8.1412,27 6.7598,26.48932 15.9325,52.39758 22.4359,79 2.827,11.56403 5.3556,32.40149 12.868,41.72144 6.7073,8.3211 28.7713,4.3775 38.0302,3.44757 4.8007,-0.48218 8.7699,-0.4018 11.2802,-5.21296 9.5017,-18.21063 12.4498,-42.19879 17.8719,-61.95605 9.1729,-33.42462 19.7147,-66.53845 28.8479,-100 h 3 c 5.0848,27.38843 7.3368,57.17932 9.9252,85 1.7049,18.32581 5.1248,36.60474 6.905,55 0.6868,7.09662 0.4624,17.76282 5.0239,23.72144 3.0006,3.91967 9.6912,3.62774 14.1459,3.56872 11.9976,-0.15893 23.9935,-0.29016 36,-0.29016 4.0754,0 12.2599,1.33789 14.3966,-3.27856 2.1196,-4.57935 -0.5411,-11.95881 -1.1111,-16.72144 -1.7217,-14.38806 -4.3121,-28.59857 -6.2855,-43 -6.5358,-47.69757 -16.4808,-95.15729 -21.8334,-143 -1.7518,-15.65839 -3.817,-31.6452 -7.2784,-47 -1.0607,-4.70477 -0.2954,-11.72461 -3.6266,-15.56635 -3.4402,-3.96759 -11.5866,-2.43365 -16.2616,-2.43365 -15.1515,0 -36.5243,-3.91333 -50.9954,0.51385 -10.9954,3.3639 -12.1062,28.11103 -15.2098,37.48615 -10.1204,30.57092 -20.5193,62.57294 -27.588,94 -2.2074,9.8139 -4.7268,32.07159 -14.2068,37 -5.0746,-40.15063 -20.7228,-80.38251 -32.5648,-119 -4.1543,-13.54718 -5.1703,-35.07886 -13.5741,-46.58105 -3.3102,-4.53064 -10.9975,-3.41895 -15.8611,-3.41895 h -42 c -5.4303,3.7e-4 -12.7069,-0.82471 -15.4861,5.05481 -5.5145,11.66614 -3.3502,29.28473 -6.0316,41.94519 -10.5245,49.69293 -17.998,101.49072 -23.6489,152 -1.9867,17.7583 -6.6065,35.12476 -7.9237,53 -0.3289,4.46326 -3.0902,9.51892 -2.3025,13.95605 1.0793,6.08014 8.8513,5.04364 13.3928,5.04395 h 37 c 4.0287,0 11.2152,1.31812 14.4005,-1.74231 2.402,-2.30774 2.3152,-7.18237 2.8495,-10.25769 1.6125,-9.28156 2.1685,-18.8374 4.1744,-28 9.2557,-42.276 7.699,-86.57422 15.5756,-129 m 388,-53 c 8.5078,4.19427 9.6641,19.45648 11.311,28 4.1416,21.48474 12.1114,43.26758 19.0223,64 1.7233,5.16998 9.2263,22.78387 5.0202,27.39661 -2.7834,3.05261 -10.6384,1.60339 -14.3535,1.60339 h -39 c -4.4924,0 -13.1694,1.71094 -14.6782,-4.05865 -2.0452,-7.82013 3.5364,-19.73816 6.2153,-26.94135 4.9338,-13.26636 8.1602,-27.4043 12.0354,-41 4.4478,-15.60455 6.8804,-34.67737 14.4275,-49 m 2720,8.28552 c 9.7964,-1.17169 20.7983,-0.69909 30,2.98761 20.6006,8.25366 36.2471,21.54254 44.5361,42.72687 17.1519,43.83508 -5.6015,104.47388 -56.5361,110.81482 -9.0439,1.12585 -18.2905,0.002 -27,-2.39117 -75.1226,-20.64032 -71.2671,-144.53791 9,-154.13813 M 540.85385,832.92993 c -3.41254,14.52185 -16.90704,30.17755 -24.60034,43 -2.6518,4.4198 -5.50351,12.11407 -9.92822,14.97223 -4.67218,3.018 -15.06333,1.02777 -20.47144,1.02777 -3.97916,0 -14.19031,2.07434 -17.39661,-0.11731 -2.98156,-2.03802 -1.60339,-9.77942 -1.60339,-12.88269 v -33 c 0,-3.5202 -1.11823,-9.67932 2.3179,-11.97223 3.71912,-2.48175 11.3082,-1.02911 15.6821,-1.60339 18.35358,-2.40985 37.55457,0.57562 56,0.57562 M 2758.8538,1109.369 c -15.4519,2.4322 -30.9651,9.8165 -44,18.26 -11.1902,7.2487 -20.6265,18.2823 -26.3564,30.3009 -12.4151,26.0403 -11.7745,63.0676 8.7954,84.8264 9.6909,10.251 23.4782,16.5674 36.561,21.0957 24.0283,8.3169 67.7542,11.1105 63.8257,46.0779 -2.3113,20.5724 -26.0332,25.6317 -42.8257,23.8264 -14.0496,-1.5105 -27.5037,-11.7868 -38,-20.4414 -4.3096,-3.5533 -10.6199,-12.8846 -16.96,-11.9582 -4.9575,0.7242 -7.4113,7.8277 -9.6442,11.5732 -5.7405,9.6296 -11.5025,19.2092 -16.9705,29 -2.2888,4.0981 -4.9622,9.3174 -1.8218,13.7145 4.8347,6.7698 13.5735,11.6166 20.3965,16.1157 23.28,15.351 55.0049,24.3325 83,20.8835 26.6477,-3.2829 54.1572,-14.7724 71.6753,-35.7137 26.0613,-31.1542 29.3657,-93.1619 -4.845,-119.9993 -20.4077,-16.0092 -46.5403,-17.7163 -69.8303,-26.8125 -9.3931,-3.6685 -21.4133,-10.0787 -22.8149,-21.1882 -4.0767,-32.3135 44.3679,-27.1741 61.8149,-18.243 4.7349,2.4237 15.2065,13.036 20.5046,8.635 4.7622,-3.956 7.4424,-12.8905 9.97,-18.392 2.6445,-5.7561 11.9502,-19.9768 10.5693,-25.9961 -1.7839,-7.777 -14.8305,-10.4044 -21.0439,-13.1435 -22.1042,-9.7447 -47.6638,-16.252 -72,-12.4213 m -779,182.5609 c -5.3633,-2.7865 -6.9181,-8.936 -9.7314,-14 -5.6205,-10.1167 -11.1023,-20.4158 -17.6127,-30 -21.3333,-31.4056 -43.426,-62.5132 -66.0263,-93 -8.1453,-10.9878 -16.3498,-29.3535 -27.8032,-36.9907 -4.8824,-3.2558 -12.2519,-2.0093 -17.8264,-2.0093 h -36 c -5.0242,0 -12.1938,-1.2778 -16.8911,0.7423 -5.0894,2.1889 -4.1087,8.742 -4.1089,13.2577 v 38 161 43 c 0.01,5.9388 -0.1455,13.1594 7.0046,14.6559 15.063,3.1524 31.6833,0.3441 46.9954,0.3441 4.7179,0 13.629,1.6317 17.4005,-1.858 5.6738,-5.25 2.7667,-24.0287 2.5485,-31.1027 -0.9152,-29.6538 -0.949,-59.3289 -0.949,-89.0393 0,-14.0836 1.4232,-29.051 -0.5795,-43 -0.339,-2.3612 -3.692,-12.6816 -0.1065,-13.3689 3.9289,-0.7529 6.7934,7.7695 8.0849,10.3689 5.992,12.0602 12.4303,23.6805 19.7431,35 21.4203,33.1564 45.3954,64.8563 68.3001,97 8.1823,11.4827 16.9344,31.6844 31.5579,35.5209 15.2291,3.9952 35.3645,1.9345 51,1.4359 4.7251,-0.1506 13.0249,-0.1766 16.2075,-4.1961 2.7527,-3.4764 1.7923,-9.6413 1.7925,-13.7607 7e-4,-11.0232 -1,-21.9454 -1,-33 0,-43.074 1,-85.8641 1,-129 0,-22.5956 -1.2886,-44.9777 -0.1904,-67.5757 0.282,-5.803 2.6843,-19.6059 -3.0882,-23.2453 -4.6495,-2.9313 -14.4419,-1.7773 -19.736,-1.3379 -11.1982,0.9293 -22.7499,0.1589 -33.9854,0.1589 -5.0515,0 -13.3727,-1.4915 -15.9907,4.1335 -2.0228,4.346 -0.2465,9.3492 -0.049,13.8665 0.3877,8.8533 0.5445,18.1583 -0.05,27 -2.9055,43.1982 5.4817,88.3362 0.09,131 m 592.7146,-176.46 c -3.0422,0.3747 -7.6326,-0.1377 -9.9724,2.2023 -3.0789,3.0791 -1.7422,10.3082 -1.7422,14.2577 v 39 c 0,37.4814 2.1462,75.7538 -2.0503,113 -2.3306,20.6848 -10.3354,39.7296 -32.9497,44.6096 -17.4695,3.7697 -41.6431,-1.3017 -51.1204,-17.6135 -5.8271,-10.0295 -6.2182,-20.791 -7.5949,-31.9961 -4.5735,-37.2235 -1.2847,-76.5007 -1.2847,-114 0,-13.0864 3.4351,-31.4639 0.018,-43.9561 -1.7993,-6.5764 -9.7119,-5.0439 -15.0183,-5.0439 h -39 c -4.5718,0 -11.7095,-1.3046 -15.7715,1.179 -6.0945,3.7263 -3.2285,19.6486 -3.2285,25.821 v 80 c 0,41.7778 -4.8279,93.1587 18.615,129.9607 28.6916,45.0416 98.5027,43.6998 144.385,35.7106 7.04,-1.2259 14.2817,-4.5569 21,-6.9799 61.8337,-22.301 56,-95.3679 56,-148.6914 v -39 c 0,-17.356 -1.7485,-35.7655 0.2854,-53 0.6965,-5.9021 3.1619,-18.6705 -1.8494,-23.2577 -3.4599,-3.1671 -11.1206,-1.7423 -15.436,-1.7423 -14.1504,0 -29.2957,-2.1823 -43.2854,-0.46 m 325.3008,0.033 c -5.5296,1.6376 -5.9883,6.4418 -6.0147,11.4275 -0.06,11.3326 -7e-4,22.6672 -7e-4,34 0,4.4744 -1.1348,10.9647 1.7422,14.7716 2.7212,3.6006 7.2783,3.0377 11.2578,3.5139 10.5103,1.2577 20.533,-0.018 31,-0.2709 4.9863,-0.1202 13.075,-0.5299 15.3965,5.0934 4.7222,11.4375 0.5835,32.4956 0.6035,44.892 0.055,34.4734 1.8301,69.4835 0.9854,104 -0.2857,11.6672 -1.0413,23.2697 -0.9847,35 0.02,4.1903 -0.3979,12.0005 2.0271,15.5702 2.8599,4.2098 10.5965,3.2779 14.9722,3.8542 8.8118,1.1604 17.2185,-0.6215 26,-0.4098 7.9856,0.1927 17.1221,2.0186 24.9414,-0.6674 5.2625,-1.8076 4.0586,-7.8775 4.0586,-12.3472 v -36 -104 c 0,-15.0265 -3.2603,-34.5088 1.2786,-48.9561 1.9851,-6.3188 9.5002,-4.9406 14.7068,-5.0693 10.9477,-0.2706 22.0744,-0.4004 33.0146,-0.8998 4.0786,-0.1861 9.4929,0.402 11.3965,-4.1836 4.6289,-11.1517 0.6035,-31.7981 0.6035,-43.8917 0,-4.0369 1.3828,-11.1345 -2.3179,-13.9075 -3.5359,-2.6494 -9.5132,-2.0597 -13.6821,-2.0894 -10.332,-0.074 -20.6677,-0.016 -31,0 -32.2766,0.039 -64.6589,1 -97,1 -12.9536,0 -30.5977,-4.0958 -42.9846,-0.4275 m 291.9846,171.4244 c 7.0371,1.4326 8.8721,7.2539 12.0278,13 5.146,9.3699 10.4983,18.7578 15.8826,28 6.5947,11.3198 13.271,22.6232 19.7532,34 3.9101,6.8627 7.5273,16.297 13.5464,21.5811 5.249,4.608 13.2595,4.4185 19.79,4.4189 h 40 c 5.3682,0 13.7659,0.8704 18.6812,-1.6027 5.9868,-3.012 -9.4881,-21.575 -12.0362,-25.3973 -12.0014,-18.0027 -23.3884,-36.5358 -36.1704,-54 -4.4746,-6.1138 -15.3679,-17.3273 -16.0124,-24.9846 -0.472,-5.6067 7.7085,-7.3836 11.5378,-9.2847 12.7317,-6.3208 24.0752,-13.6603 32.1096,-25.7307 22.4614,-33.7445 14.8447,-86.8892 -16.1096,-112.6743 -10.3215,-8.5982 -24.1755,-12.4976 -37,-15.7169 -31.0239,-7.7879 -65.3301,-2.621 -97,-2.6088 -8.2542,0 -27.9729,-3.8663 -34.5664,1.7423 -3.8286,3.2567 -2.4336,10.8056 -2.4336,15.2577 v 43 155 39 c 0,4.4961 -1.1365,11.0243 2.4336,14.4869 6.5566,6.359 22.3203,3.5591 30.5664,3.2585 8.52,-0.3107 25.4612,3.1899 32.4111,-2.8349 5.2408,-4.5431 2.5889,-19.6742 2.5889,-25.9105 0,-23.7146 -2.0232,-48.4113 0,-72 m 228,-171.2902 c -12.6638,0.1686 -25.3274,0.2902 -38,0.2902 -3.9817,0 -11.1392,-1.3253 -14.2617,1.7423 -3.8843,3.8158 -1.7927,11.5227 -1.7422,16.2577 0.1538,14.377 -0.9732,28.6975 -0.9961,43 -0.081,50.3807 1,100.672 1,151 v 39 c 0,4.9639 -1.3191,12.4878 1.8582,16.7214 2.9704,3.9582 10.6186,4.0412 15.1418,4.2393 14.064,0.6158 28.9583,0.9348 43,-0.05 3.7104,-0.2604 8.7664,-0.7557 11.0115,-4.1389 3.4431,-5.1882 1.2751,-12.1202 1.0278,-17.7716 -0.5803,-13.2618 -0.1772,-26.7255 -0.035,-40 0.5659,-52.9858 0,-106.0551 0,-159 0,-12.0544 1.0046,-23.978 1,-36 0,-4.1274 0.6516,-10.1254 -2.7029,-13.2577 -3.322,-3.1022 -12.022,-2.0893 -16.2971,-2.0325 m 153.7146,-0.1689 c -3.4487,0.4432 -7.4763,0.4354 -10.1567,2.973 -3.6409,3.4468 -3.8721,9.0447 -5.5086,13.4861 -4.133,11.2177 -8.3305,22.5547 -11.8193,34 -16.0579,52.6815 -35.0322,105.3634 -54.0493,157 -5.3072,14.4105 -8.6311,29.8046 -14.514,44 -1.7238,4.16 -6.0131,13.3262 -2.8342,17.5664 2.7859,3.7158 11.9636,3.3798 16.1675,3.4297 13.1643,0.1566 38.3984,4.5576 49.7871,-3.0856 8.0501,-5.4026 9.7017,-24.1753 12.7747,-32.9105 1.5141,-4.3044 1.7395,-8.8711 6.4821,-10.8518 7.0678,-2.9537 17.4144,-1.1484 24.9518,-1.1484 h 51 c 7.1494,0 18.9534,-3.103 24.895,1.5139 11.6687,9.0668 6.5886,31.2632 15.669,42.2577 3.9035,4.7266 11.924,4.2263 17.436,4.2284 14.98,0.01 32.313,2.2953 46.9954,-0.7732 11.0332,-2.3058 1.2475,-18.5018 -1.1311,-25.2268 -9.1431,-25.8485 -17.0884,-52.111 -25.9646,-78 -14.054,-40.9907 -28.2242,-82.042 -42.3951,-123 l -10.81,-31 c -1.4378,-4.1646 -1.97,-9.515 -5.8281,-12.2577 -6.5647,-4.6667 -19.3902,-2.4838 -26.9058,-1.8873 -17.9453,1.4239 -36.5422,-2.5895 -54.2461,-0.3141 m -1916.6953,1.0316 c -8.1315,2.4338 -5.0193,14.0194 -5.0193,20.4275 v 64 135 35 c 0,4.0664 -1.0746,10.2047 1.7423,13.5702 3.5776,4.2745 11.317,3.4294 16.2577,3.4298 14.9636,10e-4 33.5115,2.7145 47.9846,-1.5725 8.309,-2.4612 6.0154,-13.7498 6.0154,-20.4275 v -64 -137 -34 c 0,-3.7563 1.1925,-10.3229 -1.7423,-13.2577 -3.3495,-3.3496 -11.9363,-1.7423 -16.2577,-1.7423 -14.6824,0 -34.9156,-3.6375 -48.9807,0.5725 m 455.0896,0.1698 c -8.0681,3.4699 -4.1089,28.7688 -4.1089,36.2577 v 112 86 c 0,8.1691 -3.3381,26.0493 1.7422,32.7716 2.7212,3.6008 7.2781,3.0377 11.2578,3.5139 10.3806,1.2422 20.8232,0.5882 31.2546,0.4599 42.8169,-0.5268 87.5279,1.8765 127.7454,-15.2091 76.5732,-32.5308 92.5718,-146.6247 43.9854,-208.5363 -37.5281,-47.8206 -102.7935,-48 -157.9854,-48 h -37 c -5.0242,0 -12.1938,-1.2778 -16.8911,0.7423 m 1668.9065,-0.2593 c -10.0432,2.2642 -6.0154,23.5849 -6.0154,31.517 v 102 97 c 0,8.792 -3.8013,29.2157 1.179,36.5702 5.3464,7.8951 29.5832,4.6796 37.8171,4.3387 27.3264,-1.1309 54.6467,-0.9089 82.0039,-0.9089 11.6421,0 27.8921,2.891 38.8911,-1.3441 5.1509,-1.9833 4.1087,-8.1478 4.1089,-12.6559 v -34 c 0,-3.5972 1.0334,-9.5596 -1.7422,-12.3966 -3.4077,-3.4832 -13.7182,-2.6017 -18.2578,-2.6034 -16.022,-0.01 -32.0486,0.9939 -48,1 -6.6289,0 -16.9766,1.2684 -21.2578,-5.0586 -7.2058,-10.6489 -2.7422,-35.5228 -2.7422,-47.9414 v -115 c 0,-8.9294 5.8799,-32.7263 -1.5139,-39.3966 -3.5601,-3.2117 -12.0337,-1.6034 -16.4861,-1.6034 -15.0427,0 -33.3057,-2.8263 -47.9846,0.483 m -171.7815,50.4383 c 6.0603,-0.9703 9.2026,20.8009 10.0278,25.0787 4.6123,23.9138 14.1497,47.7507 21.3972,71 1.523,4.8855 8.1238,20.5045 1.2815,22.5664 -14.4585,4.3568 -35.8149,0.4336 -50.9404,0.4336 -4.1804,0 -13.3257,1.662 -15.3818,-3.2284 -1.9002,-4.5198 1.6189,-12.2877 2.7561,-16.7716 3.8381,-15.1346 9.0586,-30.0699 13.6504,-45 4.1201,-13.3961 8.654,-27.2578 11.2863,-41 0.5713,-2.9822 2.2181,-12.4856 5.9229,-13.0787 m -1422.1907,6.5123 c 8.1294,-2.3599 19.7647,-0.5515 27.9568,0.8133 19.3767,3.2282 38.0874,9.0726 50.0764,25.7531 26.8242,37.3209 17.3384,110.3059 -31.0764,124.2184 -12.3738,3.5556 -24.1921,4.7816 -37,4.7816 -3.9329,0 -10.1653,1.1222 -13.3472,-1.7423 -5.1508,-4.637 -2.6528,-17.9989 -2.6528,-24.2577 v -68 -46 c 2e-4,-5.5576 -0.7126,-13.6051 6.0432,-15.5664 m 1009.9761,0.1698 c 13.8017,-5.3189 38.6001,0.9031 47.5625,12.412 14.345,18.4209 6.5098,46.6175 -14.5818,54.8673 -8.2783,3.2379 -31.0073,8.9518 -36.9722,-1.0964 -4.1967,-7.0697 -1.0278,-23.6512 -1.0278,-31.7863 0,-7.892 -3.9851,-30.9265 5.0193,-34.3966 z"
       id="path1" />
  </g>
</svg>
